<?xml version="1.0" encoding="utf-8"?>
<!-- Generator: Adobe Illustrator 14.0.0, SVG Export Plug-In . SVG Version: 6.00 Build 43363)  -->
<!DOCTYPE svg PUBLIC "-//W3C//DTD SVG 1.1//EN" "http://www.w3.org/Graphics/SVG/1.1/DTD/svg11.dtd">
<svg version="1.1" xmlns="http://www.w3.org/2000/svg" xmlns:xlink="http://www.w3.org/1999/xlink" x="0px" y="0px" width="904px"
	 height="808px" viewBox="0 0 904 808" enable-background="new 0 0 904 808" xml:space="preserve">
<g id="Layer_2" display="none">
	<rect display="inline" stroke="#000000" width="904" height="808"/>
</g>
<g id="Layer_1">
	<g>
		<defs>
			<rect id="SVGID_1_" x="-48.5" y="-56.5" width="1000" height="1000"/>
		</defs>
		<clipPath id="SVGID_2_">
			<use xlink:href="#SVGID_1_"  overflow="visible"/>
		</clipPath>
		<path clip-path="url(#SVGID_2_)" fill="#FFFFFF" d="M152.867,366.12c-4.269-26.177,8.045-51.703,22.662-72.605
			c14.874-21.267,32.669-41.526,52.034-58.81c20.353-18.166,44.004-31.696,67.656-45.045c11.884-6.707,24.129-11.941,37.701-14.008
			c13.584-2.07,27.354-1.785,41.021-0.851c13.768,0.94,27.267,3.133,40.967,4.598c6.83,0.731,13.308,0.56,20.025-1.052
			c6.604-1.585,12.829-4.412,19.339-6.314c26.205-7.655,54.381-2.793,80.726,1.664c25.322,4.284,50.641,10.321,73.64,22.069
			c11.667,5.96,21.84,13.586,32.146,21.597c10.326,8.027,20.987,13.38,33.023,18.339c26.628,10.971,44.756,33.02,62.715,54.625
			c18.206,21.904,38.122,50.613,27.795,80.435c1.29-0.982,2.581-1.965,3.871-2.947c-10.199-0.872-20.456-0.999-30.658-1.933
			c-10.204-0.934-20.386-2.235-30.541-3.59c-20.71-2.762-41.323-6.205-61.94-9.579c-39.479-6.46-79.076-12.878-119.058-15.217
			c-41.782-2.444-83.613,0.309-125.306,3.065c-20.589,1.362-41.183,2.721-61.807,3.425c-20.771,0.709-41.49,0.038-62.259,0.14
			c-22.041,0.108-42.861,3.279-63.869,9.94c-20.631,6.542-41.033,14.623-62.785,16.466c-4.042,0.343-4.082,6.693,0,6.353
			c18.75-1.564,36.523-7.413,54.282-13.284c19.024-6.29,37.845-11.52,57.959-12.641c20.292-1.13,40.655,0.1,60.966-0.276
			c20.631-0.382,41.235-1.585,61.82-2.955c41.793-2.78,83.628-6.257,125.55-4.89c41.116,1.342,81.844,7.566,122.374,14.246
			c22.482,3.705,44.95,7.492,67.492,10.822c11.076,1.636,22.174,3.134,33.298,4.403c11.438,1.306,22.968,3.149,34.482,3.533
			c1.73,0.058,3.438-1.285,3.871-2.947c6.816-26.271-3.926-51.903-19.465-72.789c-8.037-10.802-16.95-21.021-25.878-31.092
			c-8.233-9.287-16.923-18.215-26.884-25.669c-11.502-8.608-24.371-12.662-37.197-18.699c-12.202-5.743-22.111-14.968-33.075-22.627
			c-21.683-15.146-47.181-23.918-72.751-29.891c-26.598-6.212-54.66-11.431-82.054-10.942c-6.407,0.115-12.844,0.764-19.141,1.971
			c-7.267,1.393-14.181,4.084-21.408,5.615c-7.451,1.578-15.445,1.365-23.034,1.245c-7.449-0.117-14.926-0.32-22.315-1.287
			c-28.488-3.724-57.058-6.767-84.16,5.009c-12.895,5.602-24.893,13.139-36.852,20.471c-12.24,7.505-24.234,15.306-35.422,24.332
			c-23.564,19.011-44.574,42.205-62.166,66.815c-16.957,23.721-31.101,52.53-22.317,82.12
			C148.896,370.694,153.387,369.306,152.867,366.12"/>
		<path clip-path="url(#SVGID_2_)" fill="#FFFFFF" d="M149.418,380.397c0.954,17.307,19.842,18.647,32.625,22.033
			c8.737,2.315,15.232,6.597,22.653,11.499c5.488,3.626,11.786,5.064,18.232,3.231c4.621-1.315,11.88-5.426,11.574-11.105
			c-0.169-3.15-2.79-5.185-4.375-7.632c-2.612-4.029-1.819-8.707-0.39-13.015c1.513-4.559,3.664-9.797,6.868-13.447
			c1.847-2.103,4.224-3.691,5.306-6.372c2.531-6.275-3.086-11.736-7.545-15.259c-1.275-1.006-3.103,0.731-1.823,1.823
			c2.776,2.368,6.927,5.806,6.907,9.864c-0.019,3.878-4.087,6.131-6.211,8.871c-3.141,4.052-5.352,9.515-6.863,14.403
			c-1.354,4.38-2.036,9.34-0.068,13.648c1.434,3.142,5.709,5.808,3.046,9.743c-1.784,2.635-5.941,4.175-8.915,4.787
			c-7.269,1.496-12.608-2.383-18.181-6.369c-4.867-3.482-10.23-5.915-15.947-7.646c-6.403-1.939-13.117-2.568-19.507-4.493
			c-7.899-2.378-11.789-7.443-14.221-14.992C152.049,378.313,149.314,378.503,149.418,380.397"/>
		<path clip-path="url(#SVGID_2_)" fill="#FFFFFF" d="M152.075,387.271c-19.536,2.018-29.99,20.373-33.43,37.946
			c-0.201,1.025,0.492,2.491,1.77,2.325c5.763-0.75,10.476-3.452,13.632-8.416c1.077-1.694-1.055-3.768-2.737-2.737
			c-23.744,14.552-47.237,29.196-69.696,45.707c-1.192,0.875-1.418,2.672,0,3.503c9.694,5.685,20.679,2.39,29.58-3.249
			c11.855-7.51,22.863-16.657,34.136-25.009c-1.06-0.815-2.12-1.63-3.18-2.445c-3.958,9.768,0.554,21.544,10.173,25.982
			c1.228,0.566,2.3,0.241,3.113-0.816c4.921-6.409,13.333-7.831,20.94-7.031c5.83,0.613,12.105,4.469,17.573,0.971
			c5.608-3.588,10.321-10.867,13.556-16.502c3.563-6.206,6.118-12.941,7.462-19.971c0.458-2.398,1.679-6.762,1.003-9.13
			c-0.601-2.105-3.302-3.967-5.089-5.142c-5.232-3.439-11.889-4.315-17.994-3.453c-7.553,1.066-14.365,4.806-20.783,8.728
			c-8.208,5.017-16.343,10.16-24.536,15.203c-2.016,1.241-0.151,4.447,1.859,3.18c6.607-4.168,13.208-8.344,19.849-12.458
			c6.28-3.889,12.631-8.075,19.806-10.112c6.397-1.817,15.131-1.82,20.321,3.105c4.386,4.163-0.313,14.597-2.227,19.523
			c-2.546,6.553-6.203,12.738-10.769,18.086c-2.646,3.099-5.268,6.559-9.816,5.553c-2.768-0.613-5.4-1.441-8.227-1.82
			c-9.631-1.29-20.228,0.452-26.502,8.513c0.919-0.118,1.838-0.237,2.757-0.355c-7.922-3.703-11.604-12.762-8.294-20.902
			c0.689-1.696-1.713-3.529-3.18-2.444c-9.488,7.011-18.961,14.043-28.465,21.034c-8.814,6.482-20.119,13.77-31.019,7.459v3.503
			c22.234-16.533,45.331-32.46,69.669-45.755c-0.913-0.913-1.825-1.825-2.737-2.737c-2.636,3.924-6.008,6.091-10.666,6.827
			c0.753,0.753,1.506,1.506,2.259,2.259c2.789-16.667,11.129-34.666,29.889-37.127C153.194,388.919,153.237,387.151,152.075,387.271
			"/>
		<path clip-path="url(#SVGID_2_)" fill="#FFFFFF" d="M132.339,448.729c-4.075,8.36-7.183,17.02-9.274,26.091
			c-1.496,6.491-1.783,12.123,5.491,14.565c4.226,1.419,8.853,2.021,13.206,2.962c4.796,1.038,9.606,2.311,14.458,3.047
			c8.205,1.242,13.016-2.458,19.125-7.307c25.186-19.99,59.478-49.162,48.849-85.545c-0.46,0.604-0.92,1.208-1.38,1.812
			c1.525-0.335,3.022-0.146,4.49,0.568c1.905,1.314,3.329,3.031,4.273,5.152c1.654-0.729,0.462-3.303-1.206-2.86l-0.444,0.118
			c-0.717,0.19-1.128,0.839-1.175,1.543c-0.098,1.452,0.6,2.558,2.056,2.82c0.569,0.102,1.28,0.051,1.68-0.444
			c4.446-5.508-5.082-10.36-9.674-9.759c-0.963,0.125-1.575,0.809-1.38,1.811c6.17,31.629-18.241,55.765-40.223,74.218
			c-2.752,2.31-5.531,4.589-8.337,6.833c-2.872,2.295-5.846,5.317-9.421,6.475c-4.231,1.369-9.094-0.431-13.239-1.406
			c-3.59-0.845-7.18-1.689-10.77-2.535c-2.954-0.694-6.818-0.998-9.551-2.353c-4.387-2.175-2.174-8.166-1.321-11.961
			c1.719-7.655,4.143-15.18,7.006-22.48C136.307,448.234,133.216,446.929,132.339,448.729"/>
		<path clip-path="url(#SVGID_2_)" fill="#FFFFFF" d="M232.539,377.509c14.057,1.489,27.5,5.743,40.913,10.007
			c6.629,2.107,13.302,4.111,20.058,5.773c3.444,0.847,9.458,3.274,11.901-0.766c2.22-3.672-1.073-8.03-2.785-11.117
			c-3.205-5.777-6.026-11.953-7.817-18.325c-0.955-3.394-1.886-7.769,0.165-10.966c2.039-3.179,6.082-3.82,9.546-3.515
			c6.654,0.587,12.451,4.491,19.299,3.829c1.849-0.179,1.931-2.975,0-2.946c-9.354,0.14-22.716-9.406-30.803-0.633
			c-6.926,7.514-0.582,20.876,2.761,28.55c1.276,2.927,2.778,5.711,4.218,8.555c1.491,2.948,1.148,3.628-2.607,3.48
			c-1.454-0.057-3.004-0.626-4.432-0.95c-7.084-1.606-14.073-3.598-21.092-5.459c-12.933-3.429-25.921-6.631-39.325-7.404
			C231.31,375.551,231.354,377.384,232.539,377.509"/>
		<path clip-path="url(#SVGID_2_)" fill="#FFFFFF" d="M320.495,385.375c-13.032,5.053-23.685,16.237-35,24.217
			c-12.034,8.486-24.715,16.286-38.862,20.698c-6.333,1.975-12.959,3.041-19.084,5.656c-5.932,2.533-10.925,6.591-15.036,11.531
			c-4.107,4.935-7.411,10.459-10.552,16.039c-3.063,5.442-5.88,10.833-4.329,17.201c0.281,1.151,1.774,2.16,2.952,1.676
			c11.483-4.711,20.246-13.142,28.703-21.988c9.905-10.359,19.665-19.599,32.491-26.307c22.549-11.794,51.504-19.762,61.611-45.844
			c0.363-0.937-0.405-2.118-1.328-2.339c-3.165-0.759-6.316-1.515-9.513-2.124c-1.836-0.35-2.535,2.165-0.771,2.796
			c3.063,1.097,6.162,2.045,9.273,2.996c-0.379-0.932-0.758-1.863-1.137-2.794c-11.632,25.311-40.114,32.613-62.636,44.81
			c-10.998,5.957-19.906,13.902-28.567,22.821c-8.758,9.019-17.574,18.408-29.402,23.345l2.952,1.676
			c-1.682-6.728,3.915-14.091,7.247-19.627c3.201-5.319,6.795-10.486,11.506-14.587c9.813-8.54,24.298-9.237,35.96-14.22
			c11.965-5.112,22.902-12.242,33.21-20.123c4.645-3.551,9.198-7.223,13.713-10.938c5.509-4.533,10.77-10.026,17.113-13.351
			C321.667,386.25,321.209,385.098,320.495,385.375"/>
		<path clip-path="url(#SVGID_2_)" fill="#FFFFFF" d="M309.897,384.316c12.109,2.718,24.236,5.368,36.325,8.175
			c-0.09-0.686-0.179-1.371-0.269-2.057c-25.215,12.99-47.957,30.298-67.132,51.21c-9.383,10.233-17.826,21.29-25.249,33.023
			c-7.805,12.339-15.788,25.7-16.519,40.636c-0.119,2.443,2.945,3.363,4.57,1.892c11.646-10.539,19.376-24.137,27.519-37.369
			c4.311-7.007,8.781-13.973,14.202-20.185c5.705-6.537,12.388-12.1,19.133-17.52c14.046-11.286,27.692-22.958,40.512-35.636
			c3.783-3.742,8.93-8.619,5.371-14.327c-2.771-4.445-8.791-5.82-13.599-6.382c-2.628-0.307-3.275,4.277-0.63,4.656
			c2.79,0.4,6.858,1.053,8.885,3.22c3.218,3.441-1.389,6.676-3.806,9.054c-5.446,5.36-11.02,10.588-16.723,15.673
			c-11.551,10.299-24.232,19.323-35.579,29.83c-20.293,18.791-28.763,46.562-49.071,65.201c1.523,0.631,3.047,1.262,4.57,1.893
			c0.623-14.893,9.405-28.588,17.246-40.804c7.269-11.326,15.496-22.065,24.508-32.059c18.044-20.011,39.387-36.964,62.928-50.062
			c0.808-0.45,0.694-1.867-0.268-2.058c-12.186-2.422-24.341-5.002-36.508-7.513C309.333,382.605,308.91,384.094,309.897,384.316"/>
		<path clip-path="url(#SVGID_2_)" fill="#FFFFFF" d="M333.426,355.286c4.7,4.854,7.932,10.838,12.295,15.974
			c4.022,4.736,8.66,8.972,13.775,12.505c10.513,7.263,23.167,11.352,35.965,11.274c10.807-0.066,25.414-2.761,32.115-12.261
			c3.188-4.519,3.473-9.876,1.44-14.949c-2.517-6.279-9.008-12.88-4.218-19.672c1.576-2.235-1.822-4.638-3.687-2.845
			c-8.276,7.96,1.271,18.137,3.114,26.401c3.142,14.091-20.063,18.24-29.622,18.427c-12.34,0.24-24.256-3.792-34.417-10.675
			c-5.105-3.458-9.707-7.61-13.736-12.276c-3.864-4.474-7.25-9.291-11.722-13.205C333.843,353.208,332.593,354.426,333.426,355.286"
			/>
		<path clip-path="url(#SVGID_2_)" fill="#FFFFFF" d="M437.992,375.577c16.383-3.448,34.098-3.099,50.021,2.385
			c7.092,2.443,14.06,6.428,17.998,13.03c3.696,6.198,4.793,13.61,8.966,19.579c5.675,8.116,19.767,15.251,28.748,7.977
			c8.984-7.277,5.916-23.619,0.728-32.119c-3.395-5.561-8.236-9.682-14.14-12.369c-3.949-1.797-8.272-3.751-8.033-8.827
			c0.214-4.538,3.109-8.604,5.245-12.447c1.174-2.113-1.778-4.644-3.47-2.677c-7.028,8.168-11.007,20.942,0.32,27.256
			c5.829,3.249,10.904,5.533,14.581,11.493c3.352,5.43,4.813,12.078,3.702,18.394c-0.709,4.03-2.415,7.546-6.849,8.069
			c-3.395,0.4-7.044-0.824-9.952-2.48c-6.827-3.886-9.111-10.929-11.991-17.751c-5.065-12.001-14.434-18.688-26.842-22.062
			c-16.174-4.398-33.468-3.71-49.51,0.818C436.396,374.162,436.867,375.814,437.992,375.577"/>
		<path clip-path="url(#SVGID_2_)" fill="#FFFFFF" d="M540.21,364.563c5.638,5.102,11.076,10.883,17.173,15.425
			c4.873,3.63,10.211,3.452,15.914,2.064c14.004-3.408,25.759-12.71,38.016-19.821c2.349-1.362,0.278-4.827-2.114-3.617
			c-10.984,5.56-20.667,13.708-32.259,18.064c-6.983,2.624-13.421,3.909-19.637-0.992c-5.248-4.138-10.378-8.437-15.563-12.653
			C540.681,362.171,539.16,363.612,540.21,364.563"/>
		<path clip-path="url(#SVGID_2_)" fill="#FFFFFF" d="M578.262,392.271c9.272,13.448,12.085,29.527,16.85,44.832
			c3.784,12.15,9.547,29.473,23.172,33.629c5.547,1.692,12.175,0.506,16.092-3.98c4.343-4.975,3.789-11.844,1.967-17.753
			c-0.573-1.857-2.112-3.516,0.271-4.345c2.251-0.783,4.447,1.997,5.263,3.633c1.832,3.679,1.248,8.614,1.248,12.609
			c0.001,4.69-0.062,9.382-0.1,14.072c-0.031,3.797-0.515,8.041,0.871,11.675c2.892,7.582,14.346,8.608,20.99,10.536
			c10.648,3.093,21.278,6.259,31.961,9.234c2.311,0.643,4.787-1.618,4.009-4.009c-2.903-8.921-4.291-18.147-3.852-27.53
			c0.242-5.213,1.168-10.247,2.364-15.312c0.939-3.978,1.923-7.923,1.318-12.035c-1.022-6.968-6.24-11.943-11.481-16.15
			c-7.107-5.705-14.435-11.145-21.67-16.685v4.115c23.237-11.544,49.958-9.717,75.14-11.08c11.728-0.635,23.555-1.811,34.833-5.259
			c9.306-2.844,19.697-7.096,22.917-17.141c0.44-1.375-0.792-3.297-2.361-3.099c-22.461,2.828-45.068,1.393-67.592,0.198
			c-11.204-0.594-22.408-1.188-33.612-1.783c-5.297-0.281-10.865-0.055-16.105-0.836c-3.884-0.578-4.874-4.32-1.32-6.628
			c2.601-1.69,6.583-1.146,9.514-0.91c2.712,0.219,2.633-3.897,0-4.189c-4.641-0.513-10.029-0.827-13.608,2.772
			c-2.429,2.441-3.675,6.582-1.866,9.74c2.278,3.979,7.592,3.776,11.525,4c7.577,0.432,15.156,0.834,22.736,1.239
			c29.991,1.606,60.356,4.544,90.329,1.294c-0.787-1.033-1.574-2.066-2.361-3.1c-3.711,10.919-19.062,14.316-28.964,16.433
			c-11.762,2.514-23.806,3.089-35.791,3.507c-22.432,0.784-45.065,1.128-65.817,10.727c-1.309,0.605-1.611,2.828-0.482,3.743
			c6.903,5.596,13.883,11.107,20.752,16.746c2.916,2.395,6.042,4.951,7.978,8.243c2.619,4.457,1.894,8.888,0.667,13.671
			c-4.034,15.725-4.272,31.432,0.526,47.042c1.336-1.337,2.673-2.673,4.01-4.009c-8.757-2.594-17.557-5.04-26.34-7.539
			c-4.392-1.249-8.783-2.499-13.175-3.748c-5.156-1.467-9.701-1.999-10.122-8.391c-0.558-8.469-0.19-17.003-0.543-25.481
			c-0.229-5.528-1.489-11.899-7.02-14.476c-3.531-1.644-9.829-1.412-11.51,2.941c-0.927,2.403,1.033,5.341,1.624,7.69
			c0.984,3.904,1.696,9.02-1.496,12.177c-7.2,7.119-17.182-1.188-21.322-7.323c-4.278-6.338-7.091-13.604-9.539-20.804
			c-5.185-15.252-9.104-31.244-19.502-43.964C579.011,390.448,577.698,391.454,578.262,392.271"/>
		<path clip-path="url(#SVGID_2_)" fill="#FFFFFF" d="M712.318,438.615c16.072-7.385,34.596-4.114,50.957-11.032
			c7.781-3.29,15.418-7.534,22.316-12.41c4.872-3.443,9.604-8.092,8.084-14.528c-0.682-2.893-4.891-2.121-5.018,0.679
			c-0.336,7.444-10.404,11.788-15.928,15.205c-6.405,3.962-13.063,7.421-20.246,9.745c-13.587,4.396-28.327,4.034-41.374,10.274
			C709.714,437.216,710.933,439.252,712.318,438.615"/>
		<path clip-path="url(#SVGID_2_)" fill="#FFFFFF" d="M765.497,406.211c-12.759,3.415-25.628,6.823-38.726,8.674
			c-14.098,1.991-27.349,1.443-41.219-1.702c-2.548-0.578-3.556,3.095-1.077,3.906c26.595,8.699,56.111-1.026,81.4-9.502
			C766.74,407.297,766.392,405.971,765.497,406.211"/>
		<path clip-path="url(#SVGID_2_)" fill="#FFFFFF" d="M297.358,445.208c23.905,2.175,47.211,5.725,69.921,13.794
			c22.201,7.89,43.322,19.604,61.644,34.436c7.772,6.292,16.151,18.851,27.362,13.508c5.289-2.52,10.154-6.134,15.278-8.994
			c5.676-3.169,11.462-6.134,17.332-8.924c23.24-11.05,47.776-19.164,72.459-26.31c13.725-3.975,27.538-7.641,41.356-11.275
			c6.939-1.825,13.823-3.329,20.898-4.51c7.942-1.326,15.523-0.646,23.479-0.804c4.048-0.081,4.227-5.206,0.893-6.601
			c-11.847-4.959-26.545-1.319-38.498,1.543c-12.266,2.938-24.471,6.176-36.653,9.444c-24.677,6.622-49.218,13.959-72.84,23.766
			c-11.278,4.684-22.353,9.855-33.042,15.772c-2.849,1.577-5.669,3.205-8.458,4.885c-3.027,1.822-6.538,5.416-10.16,3.348
			c-2.184-1.247-4.118-3.821-6.01-5.489c-2.469-2.178-4.989-4.298-7.56-6.354c-18.023-14.412-38.145-25.756-59.76-33.834
			c-24.376-9.11-51.579-14.564-77.642-12.004C294.411,440.896,294.389,444.938,297.358,445.208"/>
		<path clip-path="url(#SVGID_2_)" fill="#FFFFFF" d="M722.585,441.08c12.55,7.613,20.411,22.08,27.989,34.193
			c7.413,11.85,14.808,23.699,24.883,33.514c0.932-2.25,1.863-4.5,2.796-6.75c-6.534,0.093-13.787-5.073-19.557-7.827
			c-6.505-3.105-13.002-6.224-19.503-9.337c-12.996-6.221-25.892-12.752-39.1-18.511c-3.887-1.695-7.348,3.745-3.415,5.843
			c13.851,7.384,28.168,13.96,42.272,20.846c7.062,3.448,14.125,6.891,21.178,10.354c5.697,2.798,11.576,6.624,18.124,6.54
			c3.339-0.042,5.33-4.347,2.796-6.75c-10.923-10.363-18.827-23.159-27.226-35.53c-7.7-11.345-16.436-24.08-29.218-30.043
			C722.304,436.548,720.344,439.72,722.585,441.08"/>
		<path clip-path="url(#SVGID_2_)" fill="#FFFFFF" d="M159.75,487.605c-0.772,8.399-8.193,14.126-12.701,20.692
			c-5.613,8.18-3.91,15.1-1.064,24.093c1.89,5.971,3.948,11.887,5.962,17.816c1.414,4.163,2.66,9.22,6.755,11.609
			c4.482,2.616,10.142-0.262,13.549,4.403c3.284,4.497,1.91,10.52,2.791,15.657c0.637,3.708,6.072,3.205,7.013,0
			c2.498-8.504,0.414-20.37-7.644-25.316c-1.617-0.993-3.401-1.616-5.265-1.922c-2.859-0.47-5.565,0.534-6.943-2.44
			c-2.724-5.883-4.683-12.207-7.097-18.225c-1.969-4.911-5.476-10.614-5.676-16.021c-0.155-4.192,2.278-7.782,4.669-11
			c4.301-5.793,9.779-11.633,9.379-19.347C163.353,485.182,159.968,485.235,159.75,487.605"/>
		<path clip-path="url(#SVGID_2_)" fill="#FFFFFF" d="M186.25,586.065c16.931,15.462,39.329,22.231,61.689,24.746
			c13.508,1.521,27.111,2.094,40.596,3.836c13.083,1.692,25.764,4.977,38.218,9.284c23.517,8.136,46.308,19.068,71.118,22.788
			c11.371,1.706,22.877,2.04,34.233,0.022c5.302-0.942,10.457-2.466,15.423-4.547c5.827-2.442,11.3-6.648,17.525-7.957
			c5.853-1.229,11.376,1.725,16.638,3.851c5.892,2.381,11.646,3.604,18.025,3.002c5.95-0.561,11.684-2.255,17.496-3.543
			c7.166-1.587,14.426-2.678,21.729-3.396c13.796-1.354,27.65-1.466,41.501-1.367c6.535,0.046,13.648-0.494,20.018,1.226
			c5.773,1.558,10.265,5.609,15.672,7.971c21.76,9.506,41.143-11.776,60.425-18.157c11.612-3.843,23.928-5.067,35.456-9.193
			c9.365-3.351,17.967-8.326,25.654-14.626c16.895-13.847,29.14-34.771,30.926-56.733c1.588-19.525-5.945-42.272-25.691-49.583
			c-3.481-1.288-5.87,4.361-2.536,6.017c16.575,8.226,22.244,27.485,20.374,44.882c-2.069,19.251-13.306,37.241-27.98,49.482
			c-7.584,6.326-16.436,11.165-25.854,14.123c-11.196,3.517-22.988,4.792-34.06,8.742c-10.184,3.634-19.023,9.831-28.609,14.688
			c-10.257,5.196-19.589,6.864-29.773,0.667c-4.366-2.657-8.612-5.113-13.679-6.156c-5.721-1.177-11.637-1.04-17.444-1.092
			c-12.875-0.115-25.779-0.165-38.636,0.637c-12.547,0.782-24.754,2.769-37.016,5.47c-6.077,1.339-12.185,2.459-18.3,0.693
			c-5.527-1.598-10.544-4.693-16.204-5.878c-11.309-2.368-19.572,4.646-29.433,8.685c-10.405,4.263-21.711,5.545-32.879,5.052
			c-23.894-1.056-46.224-10.332-68.3-18.686c-12.424-4.7-24.984-9.198-38.009-11.938c-13.345-2.808-26.997-3.75-40.565-4.81
			c-25.722-2.008-54.355-3.961-75.405-20.543C186.963,582.438,184.638,584.594,186.25,586.065"/>
		<path clip-path="url(#SVGID_2_)" fill="#FFFFFF" d="M337.608,485.867c4.652,0.434,11.433,1.148,15.495,3.767
			c5.111,3.295,0.431,8.327-2.147,11.73c-4.647,6.132-8.605,12.926-10.921,20.304c-1.753,5.586-2.261,12.291,1.454,17.216
			c3.359,4.45,10.564,6.334,14.482,1.516c1.612-1.983,0.182-6.072-2.844-4.885c-10.288,4.037-6.163-11.86-4.323-16.12
			c3.072-7.11,8.103-12.729,11.725-19.438c8.311-15.391-11.985-18.607-22.921-18.646
			C334.628,481.301,334.736,485.601,337.608,485.867"/>
		<path clip-path="url(#SVGID_2_)" fill="#FFFFFF" d="M353.902,512.447c5.335-0.822,11.04,1.375,13.882,6.104
			c3.059,5.089,1.239,9.546-0.273,14.668c-0.784,2.657,2.851,4.933,4.77,2.776c5.029-5.646,3.862-15.256-0.566-20.941
			c-4.459-5.724-11.892-7.902-18.829-6.292C350.443,509.33,351.531,512.813,353.902,512.447"/>
		<path clip-path="url(#SVGID_2_)" fill="#FFFFFF" d="M365.376,539.498c1.071,3.423,2.455,6.699,4.374,9.739
			c0.809,1.281,1.71,2.485,2.637,3.682c0.426,0.551,6.639,8.124,1.374,7.743c-3.3-0.239-3.745,4.699-0.759,5.606
			c5.193,1.577,9.393-3.652,8.386-8.644c-0.582-2.888-2.602-5.056-4.427-7.227c-3.151-3.75-5.595-7.452-7.28-12.087
			C368.714,535.65,364.506,536.721,365.376,539.498"/>
		<path clip-path="url(#SVGID_2_)" fill="#FFFFFF" d="M378.821,534.555c9.121-0.182,17.857,2.018,25.786,6.555
			c3.675,2.103,7.269,4.658,10.071,7.863c1.571,1.798,3.454,4.396,3.172,6.956c-0.249,2.261-2.261,4.262-4.555,3.522
			c-4.477-1.441-6.119,5.276-1.909,6.925c5.3,2.075,10.683-1.145,12.849-6.122c2.661-6.116-0.796-12.494-5.118-16.823
			c-10.444-10.461-25.762-15.146-40.296-13.985C375.589,529.703,375.49,534.62,378.821,534.555"/>
		<path clip-path="url(#SVGID_2_)" fill="#FFFFFF" d="M390.551,554.851c-2.199-1.426-5.09-0.429-5.963,2.141
			c-1.252,3.683,2.463,8.763,4.376,11.584c4.515,6.661,14.01,12.571,21.565,6.762c3.034-2.334,0.48-7.234-3.09-5.286
			c-3.961,2.16-8.127,1.165-11.444-1.73c-1.563-1.364-2.822-3.029-3.985-4.735c-0.362-0.532-2.817-5.588-2.789-5.579
			C391.146,558.63,392.142,555.881,390.551,554.851"/>
		<path clip-path="url(#SVGID_2_)" fill="#FFFFFF" d="M434.724,561.174c7.926-3.232,18.732-0.458,19.616,9.444
			c0.719,8.053-6.518,11.162-13.224,10.69c-3.344-0.236-8.802,1.354-7.528,5.955c1.404,5.068,10.906,4.874,14.858,5.216
			c3.587,0.309,3.607-4.658,0.784-5.792c-6.458-2.597-13.012-5.153-19.677-7.162c-2.972-0.897-5.119,3.817-2.163,5.132
			c6.595,2.932,13.444,5.383,20.272,7.716c0.261-1.93,0.523-3.861,0.784-5.792c-2.217,0.052-4.414-0.018-6.619-0.268
			c-4.993-0.568-2.085,0.353-0.055,0.957c3.127,0.93,6.192,0.815,9.241-0.372c5.525-2.153,9.418-7.603,9.805-13.504
			c0.995-15.219-15.518-22.419-27.921-16.554C430.502,557.975,432.226,562.193,434.724,561.174"/>
		<path clip-path="url(#SVGID_2_)" fill="#FFFFFF" d="M428.198,542.293c-2.561-5.868,13.429-8.057,16.724-8.617
			c4.079-0.693,17.117-0.803,12.978,6.821c-2.239,4.126,3.423,7.111,6.121,3.578c2.921-3.825,1.8-9.329-1.196-12.797
			c-3.853-4.459-9.922-5.042-15.427-4.239c-7.354,1.073-29.239,5.472-22.935,17.438
			C425.787,546.993,429.284,544.782,428.198,542.293"/>
		<path clip-path="url(#SVGID_2_)" fill="#FFFFFF" d="M472.719,542.825c7.631-1.493,14.732-4.513,20.982-9.159
			c1.872-1.391,1.546-3.899-0.621-4.753c-7.047-2.775-20.917-0.57-22.162,8.817c-0.603,4.53,3.43,7.996,6.107,11.089
			c3.273,3.777,7.347,10.861,12.388,12.308c4.707,1.351,10.351-1.972,14.564-3.838c4.539-2.009,10.673-3.848,13.063-8.632
			c4.15-8.301-3.923-21.832-9.822-27.396c-2.2-2.074-5.788,0.562-4.229,3.264c3.22,5.58,7.729,10.539,9.364,16.952
			c1.357,5.32-1.794,7.512-6.01,9.395c-3.488,1.559-7.379,2.996-11.146,3.709c-4.748,0.899-6.272-1.396-9.17-4.55
			c-2.24-2.44-4.517-4.852-6.723-7.322c-1.297-1.455-3.452-2.984-2.486-5.272c0.603-1.425,3.012-2.894,4.362-3.535
			c3.416-1.626,7.109-1.314,10.517,0.027c-0.207-1.585-0.414-3.169-0.621-4.754c-5.921,4.494-12.306,7.607-19.568,9.256
			C468.631,539.084,469.863,543.384,472.719,542.825"/>
		<path clip-path="url(#SVGID_2_)" fill="#FFFFFF" d="M521.981,522.071c3.828-0.925,9.667-2.645,12.957,0.44
			c2.647,2.48,1.015,4.827,0.76,7.723c-0.165,1.877,1.814,2.805,3.351,2.552c6.589-1.084,4.083-10.381,0.973-13.598
			c-5.144-5.32-13.034-3.433-19.215-1.378C518.12,518.703,519.198,522.743,521.981,522.071"/>
		<path clip-path="url(#SVGID_2_)" fill="#FFFFFF" d="M515.324,543.825c8.39-5.41,17.392-9.735,27.446-10.781
			c5.228-0.544,12.281-1.415,14.883,4.176c2.325,4.997,1.056,11.909,0.439,17.1c-0.863,7.266,3.586,11.936,10.447,13.796
			c3.749,1.017,7.891,0.924,11.572-0.307c2.819-0.94,9.965-7,12.688-4.374c0.938,0.904,2.815,1.129,3.718,0
			c3.913-4.896,5.318-10.265,4.403-16.462c-0.373-2.528-4.504-1.904-4.431,0.601c0.143,4.81-1.253,8.836-4.102,12.676
			c1.376-0.178,2.753-0.355,4.129-0.532c-7.908-7.091-14.41,2.997-22.562,3.174c-2.718,0.06-7.872-0.695-9.289-3.425
			c-1.136-2.186,0.646-6.925,0.8-9.447c0.32-5.27-0.403-11.133-2.374-16.053c-3.626-9.05-14.88-6.218-22.457-4.432
			c-9.629,2.269-18.888,6.362-26.232,13.098C513.772,543.211,514.596,544.295,515.324,543.825"/>
		<path clip-path="url(#SVGID_2_)" fill="#FFFFFF" d="M586.462,529.149c6.681,1.296,12.802,4.942,16.355,10.884
			c1.229,2.057,1.707,4.978,3.521,6.637c1.791,1.637,4.423,1.481,6.669,1.519c12.949,0.215,28.666,2.705,40.571-3.513
			c2.964-1.549,0.869-6.836-2.323-5.511c-6.339,2.631-12.781,3.192-19.582,3.204c-3.401,0.007-6.805-0.021-10.206-0.087
			c-2.702-0.051-7.878,0.858-10.34-0.2c-1.877-0.808-2.871-3.74-4.082-5.313c-1.626-2.112-3.474-4.016-5.58-5.654
			c-4.099-3.186-8.805-5.124-13.938-5.828C585.048,524.948,583.881,528.648,586.462,529.149"/>
		<path clip-path="url(#SVGID_2_)" fill="#FFFFFF" d="M672.443,530.851c4.38-3.99,11.668-2.688,14.195,2.702
			c0.106-0.825,0.213-1.651,0.319-2.477c-0.859,0.774-2.176,0.274-2.469-0.777c-0.764-2.733-4.771-1.576-4.218,1.162
			c0.867,4.286,6.729,5.895,9.577,2.506c0.566-0.675,0.84-1.677,0.319-2.478c-4.127-6.346-13.84-7.761-19.157-2.071
			C670.118,530.374,671.479,531.729,672.443,530.851"/>
		<path clip-path="url(#SVGID_2_)" fill="#FFFFFF" d="M689.135,524.504c-10.762-0.259-30.708,9.891-21.886,23.178
			c3.205,4.827,9.424,7.964,15.195,6.337c5.693-1.605,8.921-7.245,7.709-12.9c-0.667-3.117-5.993-2.49-5.65,0.765
			c1.086,10.325-15.088,7.525-14.826-1.301c0.253-8.54,12.855-12.343,19.458-13.133
			C690.969,527.229,691.082,524.551,689.135,524.504"/>
		<path clip-path="url(#SVGID_2_)" fill="#FFFFFF" d="M696.608,530.301c6.138,1.82,16.637,6.662,16.752,14.02
			c0.119,7.605-12.101,10.784-18.056,12.502c-3.334,0.963-1.925,5.805,1.42,5.149c7.983-1.565,22.069-7.429,21.647-17.466
			c-0.382-9.096-13.61-15.017-21.03-16.868C695.616,527.207,694.902,529.795,696.608,530.301"/>
		<path clip-path="url(#SVGID_2_)" fill="#FFFFFF" d="M695.214,556.45c3.554,7.841,8.461,14.807,14.682,20.761l1.952-4.712
			c-8.567,1.055-21.273,2.672-27.479,9.462c-6.683,7.313-0.096,16.362,5.768,21.574c0.204-1.583,0.408-3.166,0.611-4.749
			c-2.417,1.507-4.649,2.072-7.492,1.938c-3.581-0.17-3.432,5.106,0,5.478c3.819,0.412,7.179-0.365,10.545-2.193
			c1.631-0.886,2.061-3.482,0.612-4.75c-5.257-4.596-11.284-11.7-2.434-16.171c5.993-3.026,13.264-4.347,19.868-5.066
			c2.127-0.232,3.956-2.992,1.952-4.713c-6.259-5.371-11.293-11.565-15.168-18.855C697.416,552.166,694.182,554.173,695.214,556.45"
			/>
		<path clip-path="url(#SVGID_2_)" fill="#FFFFFF" d="M646.02,588.794c2.734,3.346,5.4,7.79,1.062,11.021
			c-2.595,1.933-6.199,2.871-9.286,3.668c-3.405,0.879-19.517,5.421-19.785-0.812c-0.161-3.736-5.607-3.729-5.801,0
			c-0.761,14.724,21.215,8.818,28.907,6.374c4.949-1.572,11.282-3.961,13.503-9.111c2.392-5.548-1.505-10.742-5.085-14.656
			C647.34,582.88,644.032,586.362,646.02,588.794"/>
		<path clip-path="url(#SVGID_2_)" fill="#FFFFFF" d="M636.166,580.897c4.834,3.839-4.184,13.881-6.709,16.929
			c-3.115,3.757-9.56,11.957-15.252,8.851c-3.349-1.826-6,2.912-2.95,5.048c9.057,6.341,18.412-4.34,23.43-10.918
			c4.632-6.072,13.248-17.671,4.688-24.066C636.987,574.958,633.812,579.028,636.166,580.897"/>
		<path clip-path="url(#SVGID_2_)" fill="#FFFFFF" d="M554.766,583.982c3.977,7.746,8.091,15.495,12.518,22.994
			c1.953,3.309,7.08,0.327,5.158-3.015c-2.204-3.832-5.174-6.856-8.715-9.469c-2.326-1.716-5.27,2.108-3.097,4.013
			c2.823,2.474,4.854,5.188,6.653,8.471c1.719-1.005,3.438-2.01,5.158-3.015c-4.83-7.315-9.412-14.654-13.621-22.35
			C557.364,578.95,553.391,581.305,554.766,583.982"/>
		<path clip-path="url(#SVGID_2_)" fill="#FFFFFF" d="M313.048,559.622c0.355,0,0.356-0.552,0-0.552
			C312.693,559.07,312.692,559.622,313.048,559.622"/>
		<path clip-path="url(#SVGID_2_)" fill="#FFFFFF" d="M247.798,541.129c-7.531-5.952-17.407-8.904-23.66-16.398
			c-6.289-7.538-13.516-9.273-23.003-9.982c-5.152-0.385-13.897,1.167-11.128,8.478c1.871,4.938,6.549,9.603,9.623,13.874
			c2.238,3.11,9.701,10.591,5.428,14.337c-2.648,2.32,0.723,5.835,3.514,4.554c6.7-3.075,4.883-10.792,1.361-15.606
			c-2.672-3.652-5.628-7.125-8.442-10.67c-1.563-1.968-3.14-3.925-4.687-5.904c-2.614-3.345-0.7-4.56,2.809-4.532
			c4.41,0.034,9.55,0.909,13.475,3.02c3.994,2.147,6.463,6.277,10.019,9.044c6.675,5.194,14.959,7.633,21.599,12.881
			C246.891,545.948,250.005,542.874,247.798,541.129"/>
		<path clip-path="url(#SVGID_2_)" fill="#FFFFFF" d="M185.956,554.894c-3.521,1.472-6.761,3.375-9.885,5.562
			c-1.178,0.824-1.808,2.766-0.497,3.856c6.601,5.495,18.004,0.673,18.519-7.894c0.208-3.46-4.999-4.001-5.922-0.802
			c-1.214,4.212-5.454,6.724-9.622,4.839c0.166,1.285,0.332,2.571,0.497,3.856c2.306-2.741,5.007-4.802,8.116-6.559
			C188.657,556.909,187.628,554.194,185.956,554.894"/>
		<path clip-path="url(#SVGID_2_)" fill="#FFFFFF" d="M191.723,570.215c8.09,3.374,16.324,5.728,25.065,6.521
			c2.684,0.243,3.335-4.305,0.642-4.746c-8.358-1.374-16.558-3.149-24.52-6.08C190.17,564.9,189.139,569.137,191.723,570.215"/>
		<path clip-path="url(#SVGID_2_)" fill="#FFFFFF" d="M212.226,581.765c3.153,7.654,12.047,10.815,19.344,6.789
			c2.776-1.532,0.334-5.574-2.462-4.214c-4.547,2.213-10.452,0.021-12.928-4.242C214.993,578.054,211.267,579.437,212.226,581.765"
			/>
		<path clip-path="url(#SVGID_2_)" fill="#FFFFFF" d="M307.53,528.368c3.408,10.339,4.879,21.222,3.624,32.072
			c-1.198,10.358-4.154,22.832-16.638,23.514c-6.452,0.351-16.183-4.892-21.435,0.741c-4.353,4.669,0.562,12.457,6.451,9.247
			c2.884-1.572,0.769-5.433-2.093-4.964c1.415-1.135,2.951-1.38,4.61-0.736c0.966,0.229,1.935,0.442,2.907,0.642
			c1.7,0.323,3.425,0.582,5.151,0.721c3.12,0.252,6.379,0.091,9.408-0.762c6.357-1.785,10.717-6.379,12.969-12.479
			c5.572-15.091,3.189-34.008-2.158-48.767C309.699,525.865,306.94,526.577,307.53,528.368"/>
		<path clip-path="url(#SVGID_2_)" fill="#FFFFFF" d="M312.762,575.664c3.392,18.739,23.573,24.114,39.626,26.883
			c-0.682-0.894-1.363-1.789-2.044-2.684c0.588-0.317,1.176-0.633,1.764-0.95c-1.885-1.879-4.539,0.489-3.506,2.705
			c1.574,3.379,6.459,2.47,7.211-1.015c0.289-1.344-0.392-3.18-1.945-3.426c-14.377-2.283-33.331-5.809-36.801-22.701
			C316.486,571.647,312.255,572.865,312.762,575.664"/>
		<path clip-path="url(#SVGID_2_)" fill="#FFFFFF" d="M356.552,571.263c-2.343-3.616-5.769-7.444-10.595-6.449
			c-4.375,0.902-5.778,5.26-5.113,9.246c2.031,12.165,11.958,22.182,20.661,30.115c2.277,2.075,5.485-1.117,3.385-3.385
			c-4.689-5.064-9.594-9.982-13.481-15.717c-1.975-2.911-3.763-6.08-4.827-9.447c-0.652-2.063-1.248-3.206,0.206-5.072
			c2.373-3.044,5.201,0.708,7.161,2.717C355.242,574.596,357.591,572.866,356.552,571.263"/>
		<path clip-path="url(#SVGID_2_)" fill="#FFFFFF" d="M373.667,595.682c-0.606,6.493,1.677,12.902,6.536,17.291
			c2.106,1.903,5.085-1.043,3.124-3.124c-3.697-3.925-5.559-8.777-5.149-14.167C378.399,592.772,373.934,592.823,373.667,595.682"/>
		<path clip-path="url(#SVGID_2_)" fill="#FFFFFF" d="M396.172,601.955c-10.929,3.419-9.734,17.156-3.087,24.052
			c3.553,3.688,9.556,8.249,14.839,8.687c3.663,0.303,7.463-1.582,10.837-2.691c4.277-1.406,8.555-2.811,12.833-4.217
			c-0.485-1.758-0.969-3.516-1.454-5.273c-3.514,1.233-9.495,1.995-11.643,5.502c-1.581,2.58-0.662,5.538,1.82,7.012
			c0.224-1.715,0.448-3.429,0.672-5.143c-12.579,4.073-25.467,5.918-38.601,7.063c-2.555,0.223-2.642,4.136,0,4.051
			c13.516-0.438,26.903-2.875,40.097-5.688c2.608-0.556,2.444-3.826,0.672-5.142c1.453,1.079,6.868-1.823,8.437-2.381
			c3.281-1.167,1.913-6.396-1.454-5.273c-4.883,1.627-9.766,3.253-14.65,4.88c-2.47,0.823-5.434,2.32-8.116,1.856
			c-1.92-0.332-4.183-1.925-5.829-2.927c-3.942-2.401-8.047-5.822-9.129-10.545c-1.007-4.397,0.782-9.05,4.98-10.919
			C399.043,604.123,397.872,601.423,396.172,601.955"/>
		<path clip-path="url(#SVGID_2_)" fill="#FFFFFF" d="M527.519,610.454c4.643,0.885,9.044,2.561,13.147,4.901
			c2.443,1.394,4.477-2.193,2.184-3.736c-4.306-2.898-8.989-4.728-14.096-5.647C525.836,605.445,524.569,609.893,527.519,610.454"/>
		<path clip-path="url(#SVGID_2_)" fill="#FFFFFF" d="M634.879,563.346c-11.471,2.567-22.941,5.135-34.411,7.7
			c-1.386,0.311-0.8,2.455,0.587,2.131c11.441-2.671,22.884-5.341,34.326-8.011C636.564,564.889,636.063,563.081,634.879,563.346"/>
		<path clip-path="url(#SVGID_2_)" fill="#FFFFFF" d="M573.25,564.843c-8.813,0.929-16.519,7.871-15.052,17.313
			c1.385,8.912,11.314,13.53,19.036,8.926c1.607-0.958,1.51-3.187,0-4.165c-3.252-2.108-6.648-3.73-10.307-4.991
			c-2.624-0.905-3.59,3.083-1.126,4.083c3.243,1.317,6.172,3.016,8.999,5.073v-4.165c-5.677,3.823-12.647,0.219-13.523-6.435
			c-0.963-7.312,5.234-12.522,11.973-13.384C574.66,566.918,574.706,564.688,573.25,564.843"/>
		<path clip-path="url(#SVGID_2_)" fill="#FFFFFF" d="M538.194,508.949c-2.882,2.067-3.721,6.503-1.048,9.157
			c2.708,2.688,7.135,1.975,9.19-1.091c1.39-2.075-1.922-4.705-3.507-2.706c-0.618,0.782-1.798,1.099-2.41,0.523
			c-0.685-0.641-0.459-1.761,0.425-2.449C542.783,510.871,540.213,507.501,538.194,508.949"/>
		<path clip-path="url(#SVGID_2_)" fill="#FFFFFF" d="M604.688,531.138c2.873,0,2.878-4.465,0-4.465
			C601.815,526.673,601.811,531.138,604.688,531.138"/>
		<path clip-path="url(#SVGID_2_)" fill="#FFFFFF" d="M625.31,533.792c3.761,0,3.769-5.846,0-5.846
			C621.549,527.946,621.542,533.792,625.31,533.792"/>
		<path clip-path="url(#SVGID_2_)" fill="#FFFFFF" d="M654.769,521.027c3.761,0,3.768-5.847,0-5.847
			C651.008,515.181,651,521.027,654.769,521.027"/>
		<path clip-path="url(#SVGID_2_)" fill="#FFFFFF" d="M686.068,566.22c-0.031-0.327-0.062-0.655-0.092-0.981
			c-0.085-0.908-0.744-1.794-1.749-1.749c-1.021,0.046-1.658,0.77-1.749,1.749c-0.031,0.326-0.063,0.654-0.092,0.981
			c-0.092,0.962,0.91,1.883,1.841,1.841C685.147,568.02,686.164,567.247,686.068,566.22"/>
		<path clip-path="url(#SVGID_2_)" fill="#FFFFFF" d="M699.938,520.329c1.599,0,1.602-2.486,0-2.486
			C698.34,517.843,698.336,520.329,699.938,520.329"/>
		<path clip-path="url(#SVGID_2_)" fill="#FFFFFF" d="M652.805,500.367c-1.637,0.031-3.273,0.062-4.91,0.093
			c-2.487,0.047-2.491,3.819,0,3.866c1.637,0.03,3.273,0.062,4.91,0.093C655.412,504.467,655.416,500.318,652.805,500.367"/>
		<path clip-path="url(#SVGID_2_)" fill="#FFFFFF" d="M587.014,507.44c0.178,0,0.178-0.275,0-0.275S586.836,507.44,587.014,507.44"
			/>
		<path clip-path="url(#SVGID_2_)" fill="#FFFFFF" d="M584.067,577.267c2.843,0,2.849-4.419,0-4.419
			C581.225,572.848,581.22,577.267,584.067,577.267"/>
		<path clip-path="url(#SVGID_2_)" fill="#FFFFFF" d="M584.323,588.193c-1.331-3.268-2.663-6.534-3.994-9.801
			c-1.066-2.615-5.363-1.507-4.306,1.187c1.286,3.279,2.573,6.558,3.861,9.838C580.959,592.155,585.437,590.927,584.323,588.193"/>
		<path clip-path="url(#SVGID_2_)" fill="#FFFFFF" d="M550.682,538.35c2.044,0,2.047-3.177,0-3.177
			C548.637,535.173,548.634,538.35,550.682,538.35"/>
		<path clip-path="url(#SVGID_2_)" fill="#FFFFFF" d="M518.276,593.845c2.695,0,2.7-4.188,0-4.188
			C515.582,589.656,515.576,593.845,518.276,593.845"/>
		<path clip-path="url(#SVGID_2_)" fill="#FFFFFF" d="M614.295,298.108c13.191,4.743,19.744,14.85,26.684,26.266
			c5.099,8.387,10.831,16.546,20.336,20.203c6.337,2.439,12.966,2.138,19.63,1.798c7.559-0.385,14.822-0.112,22.099,2.192
			c7.633,2.417,14.254,6.661,20.064,12.113c4.725,4.433,9.149,9.123,15.007,12.073c2.34,1.178,4.4-2.273,2.066-3.538
			c-6.409-3.472-11.108-8.805-16.577-13.486c-4.882-4.179-10.398-7.462-16.414-9.729c-6.418-2.417-13.257-3.469-20.102-3.286
			c-7.844,0.209-16.175,2.104-23.802-0.593c-11.059-3.91-16.7-16.722-22.552-25.937c-6.223-9.798-13.866-18.291-25.668-20.873
			C613.228,294.91,612.546,297.479,614.295,298.108"/>
		<path clip-path="url(#SVGID_2_)" fill="#FFFFFF" d="M422.508,178.248c-14.201-4.987-27.619,7.037-36.944,16.11
			c-6.489,6.313-13.032,12-20.964,16.47c-6.868,3.871-14.124,6.99-21.253,10.335c-28.914,13.565-54.639,33.034-75.4,57.324
			c-1.612,1.886,1.136,4.639,2.734,2.734c19.805-23.601,44.32-42.684,72.104-56.016c13.326-6.394,27.04-12.081,38.113-22.153
			c12.396-11.275,22.861-25.018,41.407-23.312C423.206,179.822,423.27,178.515,422.508,178.248"/>
		<path clip-path="url(#SVGID_2_)" fill="#FFFFFF" d="M377.794,170.31c-11.446,7.863-19.802,18.926-29.193,28.969
			c-10.389,11.109-21.715,21.317-34.419,29.724c-1.52,1.006-0.129,3.444,1.441,2.464c12.159-7.593,23.09-16.919,32.827-27.429
			c9.967-10.757,18.46-23.117,30.506-31.741C380.144,171.445,379.026,169.463,377.794,170.31"/>
		<path clip-path="url(#SVGID_2_)" fill="#FFFFFF" d="M410.061,242.367c-5.581,2.232-11.162,4.464-16.742,6.696
			c-1.501,0.6-0.647,2.703,0.869,2.061c5.533-2.344,11.067-4.688,16.6-7.032C411.76,243.681,411.055,241.969,410.061,242.367"/>
		<path clip-path="url(#SVGID_2_)" fill="#FFFFFF" d="M181.886,358.538c17.69-13.719,40.806-17.909,61.746-24.288
			c10.147-3.091,19.891-6.887,29.272-11.854c10.742-5.688,21.162-12.014,32.689-16.043c2.681-0.938,1.605-5.115-1.187-4.306
			c-11.344,3.287-21.337,9.37-31.596,15.049c-10.665,5.905-21.752,10.385-33.353,14.089c-20.783,6.635-41.6,12.108-59.003,25.921
			C179.429,357.918,180.872,359.323,181.886,358.538"/>
		<path clip-path="url(#SVGID_2_)" fill="#FFFFFF" d="M619.915,205.327c15.366,12.366,29.848,25.748,43.624,39.859
			c1.223,1.253,3.146-0.672,1.92-1.92c-13.895-14.14-28.856-27.122-44.596-39.168C620.164,203.563,619.223,204.77,619.915,205.327"
			/>
		<path clip-path="url(#SVGID_2_)" fill="#FFFFFF" d="M707.221,296.462c-25.493-17.774-55.004-29.237-85.644-34.217
			c-1.19-0.193-1.699,1.629-0.502,1.82c30.67,4.899,59.475,16.648,85.31,33.828C707.28,298.488,708.087,297.066,707.221,296.462"/>
		<path clip-path="url(#SVGID_2_)" fill="#FFFFFF" d="M458.645,240.191c-1.089,7.067-4.578,13.128-9.731,18.026
			c-0.608,0.577,0.29,1.446,0.912,0.911c5.609-4.822,8.714-11.547,9.361-18.864C459.215,239.958,458.692,239.883,458.645,240.191"/>
		<path clip-path="url(#SVGID_2_)" fill="#FFFFFF" d="M423.027,277.195c-7.828-0.073-15.749-0.496-23.567-0.115
			c-1.835,0.089-1.838,2.764,0,2.854c7.818,0.381,15.739-0.042,23.567-0.115C424.715,279.803,424.718,277.211,423.027,277.195"/>
		<path clip-path="url(#SVGID_2_)" fill="#FFFFFF" d="M399.745,313.612c-26.697,13.947-54.488,25.036-83.005,34.65
			c-1.866,0.629-1.089,3.57,0.82,2.974c28.829-8.999,56.636-21.568,83.114-36.034C401.717,314.632,400.793,313.064,399.745,313.612"
			/>
		<path clip-path="url(#SVGID_2_)" fill="#FFFFFF" d="M129.925,608.988c33.01,20.556,72.046,30.811,110.241,36.237
			c42.585,6.052,85.723,8.805,128.627,11.489c45.343,2.838,90.734,4.859,136.112,7.02c21.633,1.029,43.124,2.165,64.43-2.59
			c10.183-2.272,20.151-5.381,30.284-7.852c10.939-2.667,22.049-4.224,33.259-5.192c24.743-2.138,49.556-3.28,74.292-5.588
			c25.129-2.345,50.185-5.302,75.18-8.792c-1.381-1.053-2.763-2.104-4.144-3.156c4.522,54.074-51.317,81.282-95.671,92.229
			c-49.194,12.143-100.52,9.558-150.684,7.546c-25.349-1.018-50.748-1.842-76.102-0.538c-26.955,1.385-53.734,4.908-80.599,7.373
			c-26.635,2.441-53.54,3.791-80.174,0.586c-26.597-3.201-52.238-11.66-77.341-20.695c-13.714-4.936-27.407-9.945-41.04-15.102
			c-6.751-2.555-14.357-4.629-20.464-8.55c-6.167-3.959-7.882-10.318-10.238-16.824c-4.212-11.63-12.446-19.967-19.66-29.726
			c-6.869-9.291-13.214-24.377-3.791-34.21c2.112-2.203-1.236-5.56-3.352-3.352c-6.957,7.259-7.373,17.411-4.249,26.582
			c3.593,10.55,11.649,18.171,18.181,26.885c3.665,4.891,6.459,10.045,8.176,15.916c1.562,5.341,2.929,10.864,6.681,15.166
			c3.141,3.6,7.419,5.814,11.749,7.658c6.837,2.909,13.82,5.511,20.76,8.163c26.397,10.089,52.915,20.866,80.338,27.867
			c27.475,7.016,55.53,8.803,83.791,7.498c28.883-1.333,57.527-5.436,86.284-8.223c27.005-2.617,53.977-3.219,81.09-2.582
			c53.154,1.248,107.371,6.5,159.968-3.852c27.295-5.372,55.222-14.771,77.554-31.821c20.707-15.81,37.541-40.963,35.338-67.996
			c-0.189-2.325-1.929-3.46-4.143-3.155c-44.238,6.083-88.647,10.364-133.194,13.353c-21.162,1.419-41.404,4.319-61.859,10.007
			c-10.411,2.895-20.869,5.874-31.625,7.177c-10.773,1.305-21.669,1.197-32.495,0.815c-87.431-3.088-175.364-7.552-262.286-17.733
			c-44.112-5.168-88.089-13.376-127.04-35.775C129.687,603.859,127.564,607.519,129.925,608.988"/>
		<path clip-path="url(#SVGID_2_)" fill="#FFFFFF" d="M124.365,609.275c7.786-7.057,18.235-10.262,28.411-11.709
			c3.123-0.444,2.418-5.954-0.753-5.56c-11.833,1.469-21.087,7.323-29.513,15.414C121.285,608.597,123.12,610.404,124.365,609.275"
			/>
		<path clip-path="url(#SVGID_2_)" fill="#FFFFFF" d="M171.609,579.325c-12.169,0.564-23.479,8.586-27.175,20.385
			c-2.217,7.078,1.405,10.821,6.814,15.053c6.099,4.772,13.123,8.896,20.583,11.098c2.747,0.81,3.644-3.142,1.15-4.172
			c-5.18-2.143-10.221-4.235-14.967-7.254c-5.535-3.519-12.174-7.509-9.462-15.06c3.503-9.754,12.846-16.655,23.057-17.61
			C173.145,581.621,173.199,579.251,171.609,579.325"/>
		<path clip-path="url(#SVGID_2_)" fill="#FFFFFF" d="M167.452,584.109c17.856,10.486,36.974,21.967,58.249,22.75
			c2.407,0.089,3.054-3.939,0.581-4.294c-20.662-2.963-39.083-11.268-57.575-20.602
			C167.288,581.247,166.062,583.292,167.452,584.109"/>
		<path clip-path="url(#SVGID_2_)" fill="#FFFFFF" d="M760.899,620.893c-2.486-13.114-15.797-22.415-28.935-19.744
			c-1.682,0.342-0.934,2.773,0.697,2.53c11.838-1.767,23.415,6.128,25.707,17.911C758.691,623.248,761.213,622.544,760.899,620.893"
			/>
		<path clip-path="url(#SVGID_2_)" fill="#FFFFFF" d="M762.642,622.877c-13.756,7.64-28.297,11.655-44.042,11.798
			c-2.67,0.023-2.666,4.079,0,4.142c16.102,0.38,32.248-4.847,44.906-14.819C764.158,623.482,763.325,622.496,762.642,622.877"/>
		<path clip-path="url(#SVGID_2_)" fill="#FFFFFF" d="M413.634,668.35c-0.887,9.286-0.766,18.938,1.481,28.036
			c0.607,2.455,4.138,1.381,3.729-1.027c-1.542-9.071-2.572-17.789-1.988-27.009C416.988,666.262,413.828,666.314,413.634,668.35"/>
		<path clip-path="url(#SVGID_2_)" fill="#FFFFFF" d="M406.783,691.881c-21.087,10.183-37.309,28.306-59.773,35.94
			c-1.754,0.596-1.054,3.266,0.771,2.797c23.274-5.979,39.531-25.702,59.838-37.306
			C408.556,692.777,407.733,691.422,406.783,691.881"/>
		<path clip-path="url(#SVGID_2_)" fill="#FFFFFF" d="M397.032,693.256c-23.536,5.358-47.537,7.927-71.641,8.766
			c-11.423,0.397-22.797,0.007-34.216-0.271c-10.144-0.246-20.765-0.206-30.087,4.262c-1.562,0.749-0.428,3.046,1.135,2.692
			c22.334-5.049,45.311-1.668,68.012-2.829c22.742-1.161,45.305-5.061,67.433-10.313
			C399.168,695.207,398.533,692.913,397.032,693.256"/>
		<path clip-path="url(#SVGID_2_)" fill="#FFFFFF" d="M255.919,706.345c-32.053-15.213-68.287-11.752-102.504-16.95
			c-2.218-0.337-3.204,3.031-0.942,3.417c33.939,5.794,70.203,1.005,102.308,15.479C256.086,708.88,257.239,706.972,255.919,706.345
			"/>
		<path clip-path="url(#SVGID_2_)" fill="#FFFFFF" d="M429.905,701.044c13.741,0.908,27.483,1.758,41.242,2.326
			c2.256,0.093,2.24-3.378,0-3.499c-13.739-0.737-27.489-1.192-41.242-1.589C428.117,698.231,428.146,700.928,429.905,701.044"/>
		<path clip-path="url(#SVGID_2_)" fill="#FFFFFF" d="M605.451,648.396c20.996,7.597,42.013,15.162,63.597,20.944
			c10.572,2.833,21.261,5.17,32.076,6.863c10.571,1.654,21.656,3.341,32.374,2.828c3.128-0.15,3.025-4.474,0-4.787
			c-10.98-1.138-21.919-1.543-32.853-3.304c-10.802-1.739-21.521-4.08-32.133-6.733c-21.027-5.255-41.683-11.931-62.29-18.608
			C604.431,645.02,603.717,647.769,605.451,648.396"/>
		<path clip-path="url(#SVGID_2_)" fill="#FFFFFF" d="M698.489,678.339c-11.288,7.05-21.14,17.138-26.541,29.421
			c-0.768,1.747,1.701,3.303,2.624,1.533c6.123-11.746,13.895-21.701,24.963-29.165C700.63,679.389,699.632,677.626,698.489,678.339
			"/>
		<path clip-path="url(#SVGID_2_)" fill="#FFFFFF" d="M707.491,678.647c7.161,3.229,14.339,6.404,21.591,9.427
			c7.579,3.159,15.498,7.359,23.508,9.201c1.838,0.422,3.126-2.203,1.33-3.155c-6.877-3.646-14.909-5.621-22.227-8.258
			c-7.885-2.841-15.781-5.647-23.671-8.478C707.295,677.124,706.775,678.324,707.491,678.647"/>
		<path clip-path="url(#SVGID_2_)" fill="#FFFFFF" d="M279.122,441.701c1.906-6.525-10.99-4.07-13.753-3.707
			c-9.271,1.218-18.758,3.349-27.326,7.144c-2.867,1.271-0.827,5.977,2.128,5.048c3.04-0.955,35.681-11.598,36.288-8.485
			C276.73,443.093,278.761,442.937,279.122,441.701"/>
		<path clip-path="url(#SVGID_2_)" fill="#FFFFFF" d="M127.271,127.446c5.418,6.087,11.959,11.363,17.969,16.857
			c5.739,5.245,11.283,10.993,17.49,15.673c2.893,2.18,6.225-2.459,3.793-4.916c-5.732-5.793-12.605-10.738-18.863-15.963
			c-5.911-4.935-11.682-10.346-18.074-14.651C127.708,123.18,125.893,125.897,127.271,127.446"/>
		<path clip-path="url(#SVGID_2_)" fill="#FFFFFF" d="M200.268,89.843c10.718,11.639,20.927,24.446,32.613,35.107
			c3.125,2.852,7.118-1.374,4.556-4.556c-9.917-12.319-22.055-23.301-33.003-34.717C201.797,82.928,197.706,87.061,200.268,89.843"
			/>
		<path clip-path="url(#SVGID_2_)" fill="#FFFFFF" d="M295.096,53.956c7.895,11.628,16.297,23.608,26.488,33.348
			c2.682,2.563,6.159-1.201,3.971-3.971c-8.527-10.794-17.736-20.912-25.769-32.118C297.779,48.415,293.112,51.033,295.096,53.956"
			/>
		<path clip-path="url(#SVGID_2_)" fill="#FFFFFF" d="M448.699,33.009c1.997,15.402,5.578,30.571,11.697,44.877
			c1.389,3.246,7.078,0.9,5.763-2.43c-5.441-13.766-9.74-27.738-11.706-42.447C453.97,29.398,448.223,29.336,448.699,33.009"/>
		<path clip-path="url(#SVGID_2_)" fill="#FFFFFF" d="M559.717,47.951c-2.061,11.793-0.2,23.46,5.844,33.836
			c1.984,3.408,7.197,0.362,5.286-3.089c-4.938-8.915-6.858-19.022-5.138-29.095C566.376,45.696,560.406,44.008,559.717,47.951"/>
		<path clip-path="url(#SVGID_2_)" fill="#FFFFFF" d="M642.491,77.746c-5.504,8.331-8.213,17.969-7.644,27.95
			c0.223,3.879,6.236,3.928,6.076,0c-0.367-9.031,1.808-17.338,6.734-24.93C649.763,77.522,644.604,74.547,642.491,77.746"/>
		<path clip-path="url(#SVGID_2_)" fill="#FFFFFF" d="M750.962,130.194c-7.475,7.672-13.607,16.367-18.264,26.017
			c-1.685,3.491,3.571,6.547,5.207,3.043c4.327-9.28,9.978-17.659,17.027-25.089C757.418,131.545,753.492,127.597,750.962,130.194"
			/>
		<path clip-path="url(#SVGID_2_)" fill="#FFFFFF" d="M816.737,201.86c-5.87,4.604-11.74,9.208-17.61,13.812
			c-2.44,1.915,0.86,6.256,3.348,4.338l17.721-13.668C823.43,203.848,820.009,199.293,816.737,201.86"/>
		<path clip-path="url(#SVGID_2_)" fill="#FFFFFF" d="M845.664,276.806c-8.371,6.06-16.666,12.175-24.837,18.503
			c-2.345,1.816,0.715,5.767,3.18,4.12c8.383-5.598,16.598-11.389,24.793-17.257C852.027,279.86,848.905,274.459,845.664,276.806"/>
		<path clip-path="url(#SVGID_2_)" fill="#FFFFFF" d="M70.505,213.629c3.702,0,3.708-5.754,0-5.754
			C66.803,207.875,66.797,213.629,70.505,213.629"/>
		<path clip-path="url(#SVGID_2_)" fill="#FFFFFF" d="M92.979,231.162c-24.029-6.967-47.363-15.62-70.735-24.493
			c-3.524-1.338-6.085,4.627-2.589,6.141c23.144,10.023,47.34,17.774,71.623,24.521C95.253,238.436,96.932,232.308,92.979,231.162"
			/>
		<path clip-path="url(#SVGID_2_)" fill="#FFFFFF" d="M162.416,584.56c-6.79,8.368-10.493,18.514-12.927,28.904
			c-0.636,2.716,2.897,5.232,4.963,2.889c6.845-7.758,13.781-14.756,22.463-20.502c-1.329-1.724-2.659-3.446-3.989-5.171
			c-6.925,7.697-13.312,20.451-3.727,28.905c1.547,1.364,4.265,1.365,5.323-0.687c4.205-8.154,6.474-16.778,8.905-25.56
			c0.462-1.668-1.572-3.543-3.137-2.412c-5.044,3.646-7.896,10.187-7.907,16.359c-0.009,4.734,3.236,11.054,8.89,8.929
			c3.009-1.131,2.931-6.476-0.826-6.104c-1.654,0.165-1.816-3.561-1.798-4.353c0.032-1.506,0.312-3.025,0.736-4.468
			c0.809-2.76,2.372-5.01,3.827-7.442c-1.327-0.358-2.653-0.719-3.98-1.078c-1.124,8.48-5.518,16-10.563,22.707
			c1.775-0.229,3.549-0.457,5.323-0.686c-5.957-6.187-0.966-14.202,3.59-19.456c2.295-2.648-0.712-7.415-3.99-5.171
			c-9.004,6.165-17.503,13.616-23.804,22.59c1.845,0.499,3.689,0.999,5.534,1.499c1.32-9.888,5.33-18.838,9.66-27.714
			C165.738,584.992,163.662,583.023,162.416,584.56"/>
		<path clip-path="url(#SVGID_2_)" fill="#FFFFFF" d="M192.233,596.114c-2.902,7.143-2.626,15.797-0.332,23.065
			c1.289,4.085,7.484,2.413,6.436-1.774c-1.773-7.084-1.571-13.384-0.679-20.557C198.075,593.491,193.292,593.507,192.233,596.114"
			/>
		<path clip-path="url(#SVGID_2_)" fill="#FFFFFF" d="M210.006,595.954c-3.502,5.886-5.836,12.489-6.131,19.366
			c-0.179,4.151,5.819,3.91,6.306,0c0.724-5.816,2.163-11.182,5.032-16.323C217.105,595.605,211.993,592.614,210.006,595.954"/>
		<path clip-path="url(#SVGID_2_)" fill="#FFFFFF" d="M213.279,595.941c-1.392,4.874-7.449,28.502,5.1,24.952
			c3.757-1.063,2.149-6.452-1.591-5.77c-0.719,0.131,1.544-16.383,1.862-17.701C219.488,593.94,214.267,592.486,213.279,595.941"/>
		<path clip-path="url(#SVGID_2_)" fill="#FFFFFF" d="M232.813,604.512c-2.591,3.632-4.968,8.398-5.03,12.983
			c-0.039,2.86,2.602,6.481,5.671,4.434c1.897-1.266,0.759-4.795-1.649-3.912c0.922,0.449,1.215,0.275,0.88-0.521l0.103-0.984
			c0.11-1.258,0.417-2.514,0.74-3.731c0.597-2.248,1.447-4.308,2.584-6.34C237.333,604.257,234.22,602.54,232.813,604.512"/>
		<path clip-path="url(#SVGID_2_)" fill="#FFFFFF" d="M238.72,610.431c-2.445,3.398,0.62,8.338,4.611,8.264
			c3.024-0.058,3.023-4.612,0-4.695c-0.257-0.01-0.3-0.01-0.13,0.001c0.167,0.019,0.128,0.001-0.115-0.055
			c0.141,0.209,0.07,0.052-0.121-0.094c-0.137-0.091-0.123-0.079,0.044,0.033c-0.053-0.052-0.106-0.104-0.159-0.156
			c-0.323-0.572,0.221,0.305-0.163-0.239c-0.229-0.325-0.01,0.056-0.073-0.154c-0.053-0.177-0.106-0.354-0.15-0.534
			c0.1,0.404-0.008-0.12,0.002-0.252c-0.033,0.408,0.136-0.243-0.01,0.066C243.652,610.08,240.348,608.168,238.72,610.431"/>
		<path clip-path="url(#SVGID_2_)" fill="#FFFFFF" d="M249.086,613.1c-2.879,3.98,0.186,9.363,4.658,10.397
			c2.715,0.628,5.472-0.353,7.953-1.337c5.546-2.2,10.089-2.86,16.029-2.952c3.902-0.061,3.859-5.82,0-6.03
			c-4.277-0.233-8.515,0.766-12.58,2.053c-1.876,0.594-3.636,1.447-5.489,2.09c-1.191,0.413-8.851,1.974-6.597-1.897
			C254.581,612.811,250.79,610.744,249.086,613.1"/>
		<path clip-path="url(#SVGID_2_)" fill="#FFFFFF" d="M724.545,606.14c7.908,5.567,15.792,11.172,23.731,16.693
			c2.305,1.602,5.854-1.08,4.872-3.745c-1.974-5.359-4.491-10.33-7.763-15.02c-2.492-3.571-7.92-0.499-5.883,3.438
			c2.062,3.985,3.382,8.148,3.783,12.623c2.111-0.875,4.225-1.75,6.337-2.625c-3.75-3.328-7.573-6.569-11.308-9.917
			c-2.114-1.896-6.848-0.837-6.383,2.644c0.678,5.077,1.409,10.13,2.228,15.186l6.47-3.766c-4.206-4.604-8.394-9.234-12.394-14.021
			c-2.826-3.382-7.257,0.396-6.67,3.883c1.158,6.89,3.141,13.665,5.576,20.206c2.516-1.061,5.031-2.121,7.546-3.182
			c-2.518-5.008-6.05-8.898-10.529-12.222c-2.521-1.869-5.451,0.734-5.675,3.256c-0.324,3.671-0.821,7.328-1.262,10.986
			c2.173-0.899,4.347-1.801,6.521-2.701c-4.948-4.325-9.496-8.924-13.621-14.046c-1.817-2.256-5.673-0.886-6.323,1.67
			c-0.986,3.873-1.448,7.702-1.033,11.694c1.848-1.06,3.696-2.121,5.545-3.182c-3.407-2.55-6.813-4.997-10.005-7.826
			c-1.759-1.561-4.67-0.53-4.701,1.947c-0.065,5.353-0.231,10.715-0.149,16.067c1.478-0.849,2.957-1.697,4.436-2.546
			c-2.988-1.794-6.081-3.479-8.797-5.679c-1.381-1.118-3.542-0.455-3.587,1.486c-0.053,2.323,0.083,6.719-3.499,7.027
			c-2.85,0.246-2.949,4.48,0,4.511c6.511,0.068,7.867-6.224,7.701-11.538c-1.055,0.604-2.107,1.209-3.161,1.813
			c2.828,2.048,5.262,4.593,7.77,7.009c1.84,1.772,5.009,0.494,5.033-2.084c0.053-5.354-0.142-10.715-0.237-16.067
			c-1.567,0.648-3.135,1.298-4.701,1.946c3.378,3.073,6.328,6.386,9.433,9.721c2.156,2.315,6.385,0.547,6.291-2.606
			c-0.101-3.369,0.103-6.412,0.959-9.683c-2.108,0.556-4.215,1.112-6.323,1.669c4.077,5.137,8.548,9.874,13.57,14.097
			c2.65,2.229,6.18,0.672,6.52-2.7c0.369-3.663,0.682-7.337,1.164-10.986c-2.145,0.888-4.291,1.776-6.437,2.666
			c3.56,2.935,6.069,6.272,7.97,10.468c1.914,4.226,9.145,1.218,7.547-3.181c-2.403-6.622-4.223-13.284-5.842-20.134
			c-2.224,1.295-4.448,2.589-6.671,3.885c4.314,4.497,8.452,9.165,12.563,13.849c2.829,3.225,6.987-0.352,6.469-3.766
			c-0.718-4.724-1.499-9.421-2.348-14.121c-2.083,1.213-4.167,2.426-6.25,3.639c3.819,3.251,7.545,6.605,11.346,9.878
			c2.158,1.856,6.718,0.862,6.337-2.625c-0.638-5.856-2.216-11.04-5.324-16.062c-1.961,1.146-3.922,2.293-5.883,3.438
			c2.985,4.17,5.422,8.544,7.25,13.345c1.624-1.249,3.248-2.497,4.872-3.745c-8.226-5.024-16.503-9.964-24.757-14.94
			C724.292,600.612,722.159,604.46,724.545,606.14"/>
		<path clip-path="url(#SVGID_2_)" fill="#FFFFFF" d="M665.242,636.56c-0.698,2.279-1.397,4.559-2.097,6.837
			c-0.565,1.843,2.391,2.659,2.885,0.795c0.61-2.303,1.221-4.606,1.831-6.909C668.311,635.587,665.755,634.891,665.242,636.56"/>
		<path clip-path="url(#SVGID_2_)" fill="#FFFFFF" d="M622.364,649.318c3.316,0,3.323-5.155,0-5.155
			C619.047,644.163,619.041,649.318,622.364,649.318"/>
		<path clip-path="url(#SVGID_2_)" fill="#FFFFFF" d="M700.56,445.267c-0.617-3.931-1.224-7.863-1.851-11.792
			c-0.34-2.121-0.328-4.285-2.239-5.593c-1.708-1.171-3.536-0.692-5.461-0.561c-4.367,0.298-7.888-0.855-10.905-4.117
			c-1.951-2.109-5.755,0.701-4.048,3.123c2.478,3.514,4.993,7.002,7.497,10.498l4.851-3.743c-4.831-4.138-8.93-8.508-12.144-14.041
			c-1.724,1.33-3.447,2.659-5.17,3.989c3.859,3.413,7.848,6.655,11.951,9.77c1.979,1.505,4.414-0.242,5.138-2.09
			c0.588-1.5,0.687-2.711,0.515-4.312c-0.14-1.294-1.157-3.293-0.814-4.486c0.896-3.127,5.378-3.32,7.967-3.506
			c5.517-0.394,11.085-0.292,14.945-4.909c1.51-1.807,1.318-5.461-1.563-5.919c-9.725-1.545-19.291-0.949-28.68,2.073
			c-4.502,1.449-2.558,7.543,1.903,6.906c8.567-1.224,17.172-2.069,25.81-2.597c-0.32-2.359-0.64-4.717-0.958-7.076
			c-13.547,3.605-15.688,19.945-4.935,28.025c2.291,1.721,4.391-1.793,2.846-3.687c-4.688-5.75-4.064-15.23,4.004-17.391
			c3.831-1.026,3.183-7.335-0.957-7.075c-9.282,0.582-18.509,1.565-27.713,2.895c0.635,2.302,1.27,4.604,1.903,6.906
			c8.109-2.625,16.451-3.446,24.894-2.15c-0.521-1.973-1.041-3.945-1.563-5.918c-4.14,5.006-13.316,2.001-18.95,4.919
			c-2.307,1.195-4.363,2.928-5.31,5.418c-1.293,3.406,1.128,6.914-0.09,10.024c1.713-0.697,3.426-1.394,5.139-2.091
			c-3.715-2.667-7.315-5.454-10.827-8.384c-2.708-2.261-7.268,0.603-5.17,3.989c3.748,6.049,8.315,11.364,14.086,15.569
			c3.021,2.202,5.835-2.354,3.743-4.851c-2.762-3.297-5.513-6.603-8.3-9.878l-3.645,3.644c3.563,3.209,7.86,5.103,12.727,4.693
			c0.871-0.074,1.785-0.406,2.643-0.427c0.969-0.558,1.866-0.436,2.695,0.368c1.403,0.255,2.035,1.129,1.896,2.624
			c1.563,3.334,1.993,7.915,2.896,11.503C699.523,446.431,700.686,446.066,700.56,445.267"/>
		<path clip-path="url(#SVGID_2_)" fill="#FFFFFF" d="M695.841,430.603c-3.756,3-3.171,9.438,1.201,11.534
			c2.012,0.965,3.563-1.699,1.741-2.98c-1.848-1.301-1.871-4.43-0.241-5.853C700.423,431.663,697.723,429.1,695.841,430.603"/>
		<path clip-path="url(#SVGID_2_)" fill="#FFFFFF" d="M702.145,447.914c-1.473,8.481-1.119,16.469-0.027,24.973
			c0.196,1.531,1.841,3.068,3.424,1.965c3.216-2.243,5.036-5.213,5.691-9.08c0.569-3.368-4.647-4.733-5.104-1.407
			c-0.388,2.821-1.432,4.819-3.345,6.913l3.804,1.005c-2.122-7.558-2.14-15.687-1.069-23.438
			C705.818,446.667,702.534,445.667,702.145,447.914"/>
		<path clip-path="url(#SVGID_2_)" fill="#FFFFFF" d="M717.672,379.822c-7.241-3.165-14.584-6.166-21.689-9.628
			c-0.373,1.377-0.746,2.754-1.118,4.131c4.135,0.146,8.542,0.729,12.642,0.482c3.882-0.233,3.938-5.96,0-6.076
			c-6.912-0.203-12.621,0.67-19.382,2.117c-1.229,0.263-2.243,1.883-1.758,3.097c5.838,14.636,29.44,9.953,40.832,6.268
			c-1.053-1.807-2.104-3.614-3.156-5.421c-1.279,1.407-2.455,2.408-4.466,2.661c-3.826,0.48-4.044,6.435,0,6.168
			c3.605-0.239,6.677-1.46,9.053-4.242c1.911-2.239,0.158-6.608-3.155-5.421c-5.957,2.133-12.073,3.476-18.416,3.668
			c-4.768,0.144-13.583,0.378-15.837-5.02c-0.586,1.032-1.172,2.065-1.758,3.097c2.814-0.65,5.64-1.453,8.482-1.958
			c3.194-0.568,5.651,0.182,8.754,0.954c0.269-1.989,0.537-3.979,0.807-5.968c-4.172-0.027-8.472,0.79-12.642,1.16
			c-2.534,0.225-2.957,3.447-0.59,4.355c7.214,2.766,14.261,6.012,21.354,9.074C717.992,384.34,720.062,380.867,717.672,379.822"/>
		<path clip-path="url(#SVGID_2_)" fill="#FFFFFF" d="M296.948,396.688c-8.904-8.049-20.931,10.266-25.157,15.992
			c-1.636,2.216,2.032,5.054,3.832,2.956c5.138-5.987,10.128-12.156,15.502-17.933c2.218-2.384-0.727-6.774-3.646-4.725
			c-3.553,2.493-7.053,4.808-10.982,6.68c1.588,0.646,3.176,1.292,4.764,1.938c-0.463-2.931-0.094-5.695,1.078-8.413
			c-1.714-0.224-3.429-0.448-5.143-0.672c0.854,4.509,1.515,9.053,2.34,13.568c0.585,3.206,6.118,2.514,5.751-0.778
			c-0.636-5.701-2.201-10.824-4.724-15.966c-0.883-1.801-4.071-1.448-4.433,0.58c-1.244,6.954-1.642,13.93-0.425,20.917
			c0.482,2.763,5.16,2.152,4.928-0.667c-0.526-6.382-0.774-12.599,0.175-18.961c-1.478,0.193-2.956,0.387-4.434,0.58
			c1.942,4.313,2.86,8.806,3.057,13.517c1.917-0.26,3.834-0.519,5.751-0.779c-0.808-4.51-1.781-8.991-2.559-13.507
			c-0.422-2.446-4.023-2.65-5.144-0.673c-2.165,3.823-3.061,7.737-2.588,12.117c0.268,2.483,2.536,3.987,4.88,2.8
			c4.073-2.063,7.955-4.492,11.354-7.556c-1.575-1.215-3.151-2.431-4.726-3.646c-4.511,6.203-9.471,12.112-14.226,18.129
			c1.277,0.985,2.554,1.971,3.832,2.957c2.216-4.942,12.514-21.994,19.576-16.684C296.605,399.229,297.89,397.54,296.948,396.688"/>
		<path clip-path="url(#SVGID_2_)" fill="#FFFFFF" d="M267.787,395.355c-0.978,8.56-2.589,17.024-3.49,25.591
			c-0.229,2.176,3.205,2.54,3.752,0.508c2.291-8.518,3.08-17.324,3.743-26.099C271.988,392.753,268.074,392.846,267.787,395.355"/>
		<path clip-path="url(#SVGID_2_)" fill="#FFFFFF" d="M257.8,390.702c-4.995,9.529-7.668,21.118-4.555,31.674
			c0.554,1.879,3.646,1.607,3.526-0.478c-0.603-10.493-0.389-20.197,3.763-30.043C261.193,390.292,258.579,389.216,257.8,390.702"/>
		<path clip-path="url(#SVGID_2_)" fill="#FFFFFF" d="M251.627,380.736c-7.117,2.766-8.751,10.68-10.572,17.346
			c-2.641,9.668-4.587,19.65-4.665,29.695c-0.018,2.315,3.747,2.973,4.159,0.563c1.331-7.794,2.377-15.63,4.042-23.366
			c1.299-6.035,2.323-17.437,8.685-20.326C255.458,383.657,253.893,379.855,251.627,380.736"/>
		<path clip-path="url(#SVGID_2_)" fill="#FFFFFF" d="M227.535,388.271c-1.929,3.663-3.697,7.322-5.355,11.115
			c-0.888,2.031,1.746,3.681,3.02,1.766c2.287-3.437,4.399-6.894,6.429-10.488C233.134,387.998,228.954,385.577,227.535,388.271"/>
		<path clip-path="url(#SVGID_2_)" fill="#FFFFFF" d="M226.301,387.397c-5.489,2.275-10.143,5.806-14.174,10.145
			c-1.006,1.083,0.567,2.671,1.628,1.627c3.989-3.923,8.525-7.102,13.291-10.005C227.939,388.62,227.35,386.963,226.301,387.397"/>
		<path clip-path="url(#SVGID_2_)" fill="#FFFFFF" d="M180.651,423.36c-3.778,5.296-6.707,10.897-9.248,16.869
			c0.942,0.55,1.885,1.101,2.827,1.652c4.074-9.597,5.4-20.345,6.769-30.603c0.369-2.763-3.559-2.702-4.44-0.601
			c-1.669,3.982-2.827,8.13-4.605,12.077c-1.637,3.635-3.756,7.022-5.409,10.637c-1.617,3.534,2.935,6.221,5.206,3.043
			c4.889-6.839,8.454-16.809,9.248-25.156h-4.521c-0.798,10.037-3.535,19.485-5.24,29.342c-0.353,2.038,2.648,2.951,3.157,0.87
			c1.525-6.232,4.278-11.898,7.886-17.177C182.971,423.302,181.348,422.383,180.651,423.36"/>
		<path clip-path="url(#SVGID_2_)" fill="#FFFFFF" d="M165.123,408.142c-5.627-0.665-8.887-8.42-14.356-10.329
			c-5.338-1.862-10.857-0.568-15.117,2.978c-0.964,0.803-1.258,2.773-0.491,3.805c3.239,4.356,6.112,8.918,9.015,13.502
			c1.489,2.353,5.057,0.278,3.736-2.184c-2.567-4.782-5.127-9.524-7.329-14.487c-0.164,1.268-0.327,2.536-0.491,3.804
			c5.697-5.146,10.752-1.162,15.024,3.334c2.904,3.056,5.693,5.189,10.009,5.423C168.951,414.195,168.765,408.573,165.123,408.142"
			/>
		<path clip-path="url(#SVGID_2_)" fill="#FFFFFF" d="M275.28,419.221c5.388-7.452,13.605-13.002,22.847-14.187
			c-0.192-1.417-0.384-2.834-0.576-4.251c-8.846,3.08-17.322,8.174-25.039,13.427c-3.915,2.664-14.402,7.914-9.82,13.761
			c0.79,1.007,2.326,0.913,3.341,0.431c19.632-9.325,39.096-19.156,59.004-27.876c-1.009-1.308-2.019-2.616-3.028-3.924
			c-12.917,12.785-25.914,26.272-36.489,41.09c-1.775,2.488,2.296,5.668,4.265,3.291c11.574-13.972,23.715-27.292,35.758-40.848
			c1.904-2.143-0.461-5.203-3.028-3.924c-19.469,9.696-39.508,18.335-59.265,27.43c1.257,0.33,2.515,0.659,3.772,0.989
			c-0.039-0.052,13.734-9.743,15.368-10.766c5.443-3.405,11.209-6.063,16.829-9.126c2.167-1.18,0.687-4.6-1.668-3.955
			c-10.089,2.763-18.424,8.47-23.901,17.485C273.008,419.327,274.582,420.187,275.28,419.221"/>
		<path clip-path="url(#SVGID_2_)" fill="#FFFFFF" d="M331.79,405.283c-26.261,21.385-66.108,36.521-69.13,75.54
			c-0.222,2.865,4.108,3.271,4.882,0.66c2.709-9.145,5.705-17.996,11.033-26.002c4.574-6.874,10.546-12.73,16.902-17.953
			c12.633-10.378,27.058-18.345,39.177-29.381C336.614,406.363,333.773,403.668,331.79,405.283"/>
		<path clip-path="url(#SVGID_2_)" fill="#FFFFFF" d="M309.127,402.187c3.452-3.608,3.827-8.956,0.929-13.095
			c-3.388-4.839-9.703-5.614-15.084-4.766c0.873,1.136,1.746,2.272,2.619,3.407c3.934-7.673,5.394-16.299,4.883-24.863
			c-0.095-1.595-1.652-3.213-3.384-2.578c-6.862,2.513-13.491,5.503-19.9,9.015c-3.295,1.806-0.318,6.94,2.95,5.048
			c5.914-3.424,12.01-6.406,18.371-8.907c-1.128-0.86-2.256-1.719-3.384-2.578c0.679,8.159-0.816,15.511-3.775,23.076
			c-0.673,1.721,1.288,3.254,2.853,2.853c3.054-0.782,6.549-0.92,9.142,1.191c2.939,2.392,3.933,6.542,1.144,9.561
			C304.866,401.309,307.461,403.927,309.127,402.187"/>
		<path clip-path="url(#SVGID_2_)" fill="#FFFFFF" d="M514.349,201.815c2.399,0,2.403-3.728,0-3.728
			C511.95,198.087,511.945,201.815,514.349,201.815"/>
		<path clip-path="url(#SVGID_2_)" fill="#FFFFFF" d="M552.646,281.836c3.021,0,3.025-4.695,0-4.695
			C549.624,277.142,549.619,281.836,552.646,281.836"/>
		<path clip-path="url(#SVGID_2_)" fill="#FFFFFF" d="M596.833,220.994c1.807,0,1.811-2.808,0-2.808
			C595.026,218.186,595.023,220.994,596.833,220.994"/>
		<path clip-path="url(#SVGID_2_)" fill="#FFFFFF" d="M495.691,241.17c3.762,0,3.769-5.846,0-5.846
			C491.931,235.324,491.924,241.17,495.691,241.17"/>
		<path clip-path="url(#SVGID_2_)" fill="#FFFFFF" d="M172.628,276.627c2.636,0,2.64-4.097,0-4.097
			C169.992,272.53,169.988,276.627,172.628,276.627"/>
		<path clip-path="url(#SVGID_2_)" fill="#FFFFFF" d="M266.896,229.386c3.761,0,3.768-5.846,0-5.846
			C263.135,223.54,263.128,229.386,266.896,229.386"/>
		<path clip-path="url(#SVGID_2_)" fill="#FFFFFF" d="M206.015,328.894c1.659,0,1.661-2.578,0-2.578
			C204.356,326.315,204.354,328.894,206.015,328.894"/>
		<path clip-path="url(#SVGID_2_)" fill="#FFFFFF" d="M201.105,270c1.688,0,1.691-2.624,0-2.624
			C199.417,267.375,199.414,270,201.105,270"/>
		<path clip-path="url(#SVGID_2_)" fill="#FFFFFF" d="M301.265,301.269c2.754,0,2.759-4.281,0-4.281
			C298.51,296.987,298.505,301.269,301.265,301.269"/>
		<path clip-path="url(#SVGID_2_)" fill="#FFFFFF" d="M589.705,306.679c1.31-0.327,2.619-0.655,3.929-0.982
			c1.39-0.348,2.36-1.985,1.913-3.369c-0.467-1.44-1.879-2.285-3.369-1.913l-3.929,0.982c-1.39,0.348-2.36,1.985-1.912,3.369
			C586.803,306.206,588.216,307.051,589.705,306.679"/>
		<path clip-path="url(#SVGID_2_)" fill="#FFFFFF" d="M665.813,283.033c0.995,1.302,1.989,2.603,2.985,3.905
			c0.51,0.666,0.999,1.185,1.844,1.417c0.737,0.203,1.721,0.111,2.376-0.311c1.282-0.827,2.129-2.83,1.105-4.219l-2.906-3.952
			c-0.967-1.315-2.758-2.105-4.281-1.122C665.655,279.576,664.749,281.642,665.813,283.033"/>
		<path clip-path="url(#SVGID_2_)" fill="#FFFFFF" d="M674.407,352.721c0.327-0.015,0.655-0.031,0.982-0.046
			c1.297-0.061,2.548-1.1,2.486-2.486c-0.063-1.398-1.094-2.42-2.486-2.485c-0.327-0.016-0.655-0.031-0.982-0.046
			c-1.324-0.062-2.591,1.209-2.531,2.531C671.935,351.508,672.99,352.788,674.407,352.721"/>
		<path clip-path="url(#SVGID_2_)" fill="#FFFFFF" d="M616.473,250.176c1.45,0,1.453-2.255,0-2.255
			C615.021,247.921,615.019,250.176,616.473,250.176"/>
		<path clip-path="url(#SVGID_2_)" fill="#FFFFFF" d="M500.602,319.235c1.866,0,1.869-2.9,0-2.9
			C498.735,316.335,498.732,319.235,500.602,319.235"/>
		<path clip-path="url(#SVGID_2_)" fill="#FFFFFF" d="M538.798,707.153c0.067-0.309,0.133-0.618,0.2-0.927
			c0.29-1.349-0.624-2.709-2.064-2.709c-1.432,0-2.354,1.359-2.063,2.709c0.065,0.309,0.133,0.618,0.2,0.927
			C535.467,708.996,538.401,708.998,538.798,707.153"/>
		<path clip-path="url(#SVGID_2_)" fill="#FFFFFF" d="M289.736,730.576c-0.632-1.643-1.265-3.284-1.897-4.928
			c-0.46-1.193-1.595-2.019-2.916-1.656c-1.117,0.308-2.15,1.727-1.656,2.916c0.677,1.632,1.354,3.262,2.031,4.893
			c0.476,1.146,1.525,1.966,2.831,1.606C289.237,733.103,290.186,731.742,289.736,730.576"/>
		<path clip-path="url(#SVGID_2_)" fill="#FFFFFF" d="M177.538,694.005c2.695,0,2.7-4.189,0-4.189
			C174.843,689.815,174.838,694.005,177.538,694.005"/>
		<path clip-path="url(#SVGID_2_)" fill="#FFFFFF" d="M162.038,596.18c-2.476,8.947-2.336,19.116,2.494,27.272
			c1.179,1.992,4.741,0.683,3.87-1.631c-3.097-8.22-4.772-15.867-2.547-24.59C166.485,594.763,162.718,593.722,162.038,596.18"/>
		<path clip-path="url(#SVGID_2_)" fill="#FFFFFF" d="M173.567,603.565c-0.115-1.021-0.224-1.913-0.158-2.938
			c0.134-2.104-3.396-2.112-3.274,0c0.367,6.331,3.774,12.468,8.001,17.038c1.469,1.587,4.286-0.509,3.037-2.342
			c-3.36-4.933-5.519-10.144-7.988-15.522c-0.942,0.55-1.884,1.101-2.826,1.652c0.456,0.761,0.832,1.56,1.128,2.394
			C171.887,604.847,173.713,604.859,173.567,603.565"/>
		<path clip-path="url(#SVGID_2_)" fill="#FFFFFF" d="M178.698,607.462c0.255,8.877,7.408,16.81,16.496,16.869
			c1.988,0.013,2.551-3.209,0.483-3.572c-6.726-1.179-12.649-6.251-13.389-13.297C182.052,605.217,178.63,605.104,178.698,607.462"
			/>
		<path clip-path="url(#SVGID_2_)" fill="#FFFFFF" d="M191.925,608.444c0.051,6.239,1.535,12.202,4.591,17.653
			c1.201,2.144,4.54,0.204,3.299-1.928c-2.843-4.883-4.69-10.094-5.266-15.726C194.38,606.802,191.911,606.721,191.925,608.444"/>
		<path clip-path="url(#SVGID_2_)" fill="#FFFFFF" d="M163.758,608.455c6.844,6.362,13.692,12.719,20.533,19.085
			c3.093,2.879,6.065,6.212,9.429,8.766c2.011,1.524,3.684,2.004,5.9,0.752c2.785-1.573,0.229-5.968-2.509-4.292
			c-0.922,0.563-14.176-12.274-15.522-13.453c-5.097-4.465-10.195-8.931-15.292-13.396
			C164.572,604.406,162.052,606.869,163.758,608.455"/>
		<path clip-path="url(#SVGID_2_)" fill="#FFFFFF" d="M183.621,603.565c9.039,12.584,21.279,25.544,35.76,31.784
			c2.519,1.086,4.425-2.06,2.161-3.696c-6.214-4.492-12.688-8.458-18.482-13.526c-5.771-5.047-10.961-10.693-15.544-16.839
			C185.81,599,181.913,601.188,183.621,603.565"/>
		<path clip-path="url(#SVGID_2_)" fill="#FFFFFF" d="M197.802,604.9c9.122,10.762,17.886,21.996,27.463,32.351
			c2.394,2.588,5.96-1.176,3.808-3.808c-8.912-10.903-18.803-21.125-28.179-31.635C199.005,599.691,196.001,602.775,197.802,604.9"
			/>
		<path clip-path="url(#SVGID_2_)" fill="#FFFFFF" d="M227.522,617.379c6.519,8.324,14.174,15.495,23.198,21.034
			c3.179,1.952,5.831-2.839,2.88-4.929c-8.186-5.795-15.622-12.439-21.944-20.239C229.271,610.304,225.24,614.466,227.522,617.379"
			/>
		<path clip-path="url(#SVGID_2_)" fill="#FFFFFF" d="M235.487,610.543c6.194,9.399,15.421,19.221,26.379,22.87
			c2.934,0.976,4.327-3.172,2.004-4.754c-4.421-3.012-9.1-5.391-13.194-8.904c-4.065-3.489-7.586-7.47-10.618-11.884
			C238.147,605.091,233.597,607.675,235.487,610.543"/>
		<path clip-path="url(#SVGID_2_)" fill="#FFFFFF" d="M252.464,613.746c5.707,9.586,13.628,18.156,23.258,23.879
			c1.994,1.187,3.618-1.76,1.789-3.06c-8.938-6.352-16.841-13.268-23.637-21.907C253.236,611.848,251.953,612.889,252.464,613.746"
			/>
		<path clip-path="url(#SVGID_2_)" fill="#FFFFFF" d="M286.644,627.975c4.23,4.285,8.534,8.482,12.863,12.668
			c2.303,2.226,5.742-1.211,3.515-3.516c-4.184-4.329-8.383-8.633-12.668-12.862C287.948,621.889,284.267,625.567,286.644,627.975"
			/>
		<path clip-path="url(#SVGID_2_)" fill="#FFFFFF" d="M286.377,495.676c3.261,2.561,6.833,3.992,10.959,4.381
			c0.762,0.072,0.767-1.139,0-1.197c-3.797-0.29-7.465-1.506-10.68-3.545C286.44,495.177,286.169,495.513,286.377,495.676"/>
		<path clip-path="url(#SVGID_2_)" fill="#FFFFFF" d="M301.265,492.558c1.244,0,1.246-1.933,0-1.933
			C300.021,490.625,300.019,492.558,301.265,492.558"/>
		<path clip-path="url(#SVGID_2_)" fill="#FFFFFF" d="M300.283,474.714c3.554,0,3.56-5.523,0-5.523
			C296.729,469.19,296.723,474.714,300.283,474.714"/>
		<path clip-path="url(#SVGID_2_)" fill="#FFFFFF" d="M281.512,507.541c0.66,1.306,1.32,2.612,1.98,3.918
			c0.582,1.152,2.299,1.574,3.369,0.883c1.187-0.765,1.494-2.13,0.884-3.369c-0.647-1.313-1.294-2.627-1.941-3.94
			c-0.575-1.169-2.328-1.583-3.4-0.893C281.216,504.906,280.883,506.297,281.512,507.541"/>
		<path clip-path="url(#SVGID_2_)" fill="#FFFFFF" d="M286.257,541.277c1.954-0.692,3.907-1.383,5.861-2.075
			c1.288-0.456,2.149-1.728,1.768-3.114c-0.353-1.286-1.804-2.178-3.114-1.768c-1.974,0.617-3.948,1.235-5.922,1.854
			c-1.364,0.426-2.237,1.843-1.849,3.255C283.36,540.733,284.903,541.756,286.257,541.277"/>
		<path clip-path="url(#SVGID_2_)" fill="#FFFFFF" d="M304.21,541.395c3.436,0,3.441-5.339,0-5.339
			C300.774,536.056,300.77,541.395,304.21,541.395"/>
		<path clip-path="url(#SVGID_2_)" fill="#FFFFFF" d="M297.337,492.297h-3.928c-1.685,0-3.3,1.482-3.222,3.223
			c0.078,1.745,1.416,3.222,3.222,3.222h3.928c1.685,0,3.3-1.482,3.222-3.222C300.48,493.773,299.143,492.297,297.337,492.297"/>
		<path clip-path="url(#SVGID_2_)" fill="#FFFFFF" d="M251.185,514.36l3.928,0.046c1.662,0.021,3.252-1.475,3.176-3.176
			c-0.077-1.704-1.396-3.197-3.176-3.176l-3.928,0.046c-1.637,0.019-3.206,1.426-3.13,3.13
			C248.132,512.942,249.43,514.34,251.185,514.36"/>
		<path clip-path="url(#SVGID_2_)" fill="#FFFFFF" d="M271.417,529.287c0.389,0.221,0.779,0.442,1.168,0.664
			c0.874,0.496,2.139,0.4,2.845-0.367c0.713-0.777,0.899-1.909,0.367-2.846c-0.222-0.389-0.443-0.777-0.664-1.168
			c-0.868-1.524-3.044-1.771-4.266-0.549C269.648,526.24,269.892,528.42,271.417,529.287"/>
		<path clip-path="url(#SVGID_2_)" fill="#FFFFFF" d="M280.978,559.715l3.957-5.875c1.87-2.777-2.659-5.424-4.491-2.626
			c-1.293,1.974-2.585,3.948-3.878,5.922c-0.756,1.155-0.231,2.824,0.917,3.495C278.739,561.367,280.204,560.861,280.978,559.715"/>
		<path clip-path="url(#SVGID_2_)" fill="#FFFFFF" d="M279.662,519.201c3.939,0,3.946-6.122,0-6.122
			C275.723,513.079,275.715,519.201,279.662,519.201"/>
		<path clip-path="url(#SVGID_2_)" fill="#FFFFFF" d="M253.356,541.671c-0.015,0.203-0.031,0.405-0.046,0.608
			c-0.271,3.575,5.3,3.557,5.569,0c0.016-0.203,0.031-0.405,0.047-0.608c0.275-3.641-5.938-3.647-5.662,0
			c0.015,0.203,0.031,0.405,0.046,0.608c0.269,3.552,5.841,3.581,5.569,0c-0.015-0.203-0.03-0.405-0.046-0.608
			C258.567,538.151,253.623,538.146,253.356,541.671"/>
		<path clip-path="url(#SVGID_2_)" fill="#FFFFFF" d="M250.939,570.883c0.352-1.63,0.705-3.26,1.057-4.889
			c0.315-1.457-0.434-2.986-1.929-3.396c-1.335-0.367-3.134,0.452-3.397,1.929c-0.293,1.646-0.586,3.291-0.88,4.938
			c-0.252,1.418,0.384,2.877,1.865,3.283C248.989,573.113,250.634,572.299,250.939,570.883"/>
		<path clip-path="url(#SVGID_2_)" fill="#FFFFFF" d="M211.081,492.623c1.002,0.253,2.005,0.508,3.007,0.761
			c1.457,0.367,3.189-0.473,3.539-2.01c0.168-0.736,0.131-1.563-0.29-2.217c-0.434-0.673-0.987-1.017-1.719-1.322
			c-0.962-0.4-1.924-0.803-2.885-1.203c-0.69-0.288-1.782-0.046-2.394,0.313c-0.645,0.377-1.259,1.116-1.428,1.857
			C208.543,490.414,209.395,492.197,211.081,492.623"/>
		<path clip-path="url(#SVGID_2_)" fill="#FFFFFF" d="M229.697,474.898c0.008-0.327,0.015-0.655,0.023-0.982
			c0.038-1.614-1.446-3.157-3.084-3.084c-1.638,0.073-3.124,1.356-3.084,3.084c0.008,0.327,0.015,0.655,0.023,0.982
			c0.038,1.599,1.381,3.136,3.061,3.061C228.327,477.883,229.657,476.614,229.697,474.898"/>
		<path clip-path="url(#SVGID_2_)" fill="#FFFFFF" d="M180.484,489.282c3.347,0,3.352-5.201,0-5.201
			C177.137,484.081,177.132,489.282,180.484,489.282"/>
		<path clip-path="url(#SVGID_2_)" fill="#FFFFFF" d="M168.073,501.936c0.417,0.884,1.042,1.577,1.674,2.312
			c0.706,0.818,2.2,0.977,3.096,0.398c0.98-0.632,1.443-1.74,1.174-2.885c-0.089-0.38-0.171-0.764-0.268-1.143
			c-0.147-0.568-0.428-1.076-0.708-1.586c-0.725-1.32-2.654-1.858-3.936-1.032C167.701,498.905,167.385,500.476,168.073,501.936"/>
		<path clip-path="url(#SVGID_2_)" fill="#FFFFFF" d="M170.78,516.042c-0.347,0.643-0.694,1.286-1.042,1.929
			c-0.548,1.018-0.286,2.453,0.793,3.023c0.974,0.514,2.506,0.328,3.023-0.793c0.307-0.666,0.615-1.332,0.922-1.998
			c0.468-1.016,0.321-2.354-0.768-2.93C172.711,514.747,171.348,514.99,170.78,516.042"/>
		<path clip-path="url(#SVGID_2_)" fill="#FFFFFF" d="M171.497,539.496c0.059-0.311,0.118-0.622,0.178-0.933
			c0.203-1.068,0.055-2.222-0.794-3.001c-0.603-0.554-1.345-0.903-2.18-0.903c-0.791,0-1.622,0.344-2.181,0.903
			c-0.825,0.825-1.004,1.895-0.793,3.001c0.059,0.311,0.118,0.622,0.178,0.933c0.226,1.192,1.605,2.182,2.796,2.129
			C169.906,541.571,171.254,540.773,171.497,539.496"/>
		<path clip-path="url(#SVGID_2_)" fill="#FFFFFF" d="M158.566,490.565c0.572,11.764,8.005,23.64,18.536,28.98
			c3.384,1.717,6.024-2.902,2.95-5.048c-8.938-6.24-13.965-14.028-16.197-24.648C163.234,486.893,158.418,487.533,158.566,490.565"
			/>
		<path clip-path="url(#SVGID_2_)" fill="#FFFFFF" d="M166.907,490.621c-4.549,2.693-6.906,8.469-5.026,13.522
			c1.495,4.021,7.615,2.495,6.524-1.799c-0.677-2.667-0.062-5.359,1.877-7.35C172.464,492.752,169.672,488.983,166.907,490.621"/>
		<path clip-path="url(#SVGID_2_)" fill="#FFFFFF" d="M156.025,501.394c-1.091,8.252,1.804,17.179,6.789,23.728
			c1.862,2.445,5.907,0.332,4.253-2.486c-4.004-6.823-5.833-13.437-6.807-21.241C159.92,498.668,156.384,498.681,156.025,501.394"/>
		<path clip-path="url(#SVGID_2_)" fill="#FFFFFF" d="M152.248,533.587l4.807,4.036c1.027,0.862,2.508,1.007,3.515,0
			c0.858-0.859,1.065-2.686,0-3.516c-1.657-1.291-3.313-2.582-4.97-3.873c-1.008-0.787-2.368-0.983-3.352,0
			C151.402,531.08,151.262,532.76,152.248,533.587"/>
		<path clip-path="url(#SVGID_2_)" fill="#FFFFFF" d="M150.415,536.38c2.915,2.323,5.831,4.646,8.746,6.968
			c2.713,2.162,5.719-1.663,2.928-3.795c-2.961-2.263-5.923-4.524-8.885-6.788C151.147,531.194,148.371,534.751,150.415,536.38"/>
		<path clip-path="url(#SVGID_2_)" fill="#FFFFFF" d="M182.448,556.193c3.524,0,3.53-5.477,0-5.477
			C178.924,550.717,178.918,556.193,182.448,556.193"/>
		<path clip-path="url(#SVGID_2_)" fill="#FFFFFF" d="M225.654,536.762c3.791,0,3.797-5.893,0-5.893
			C221.863,530.869,221.857,536.762,225.654,536.762"/>
		<path clip-path="url(#SVGID_2_)" fill="#FFFFFF" d="M246.275,546.957c1.747,0,1.75-2.717,0-2.717
			C244.528,544.24,244.525,546.957,246.275,546.957"/>
		<path clip-path="url(#SVGID_2_)" fill="#FFFFFF" d="M236.456,484.694c3.761,0,3.768-5.846,0-5.846
			C232.694,478.849,232.688,484.694,236.456,484.694"/>
		<path clip-path="url(#SVGID_2_)" fill="#FFFFFF" d="M216.816,530.248h2.946c1.216,0,2.381-1.069,2.324-2.324
			c-0.056-1.26-1.021-2.324-2.324-2.324h-2.946c-1.216,0-2.381,1.068-2.324,2.324C214.548,529.184,215.513,530.248,216.816,530.248"
			/>
		<path clip-path="url(#SVGID_2_)" fill="#FFFFFF" d="M292.099,555.153c0.902-2.226,2.451-4.077,4.285-5.593
			c1.161-0.957,0.992-2.945,0-3.938c-1.143-1.143-2.78-0.966-3.938,0c-2.598,2.169-4.427,4.938-5.673,8.062
			c-0.553,1.386,0.604,3.033,1.929,3.397C290.28,557.516,291.536,556.541,292.099,555.153"/>
		<path clip-path="url(#SVGID_2_)" fill="#FFFFFF" d="M330.723,524.886c3.673,0,3.679-5.708,0-5.708
			C327.05,519.178,327.044,524.886,330.723,524.886"/>
		<path clip-path="url(#SVGID_2_)" fill="#FFFFFF" d="M345.835,507.819c0.975,1.64,1.951,3.28,2.926,4.921
			c0.825,1.388,2.692,1.894,4.093,1.074c1.382-0.809,1.914-2.706,1.074-4.095l-2.966-4.897c-0.83-1.37-2.663-1.883-4.062-1.065
			C345.52,504.564,345.013,506.437,345.835,507.819"/>
		<path clip-path="url(#SVGID_2_)" fill="#FFFFFF" d="M383.749,592.111c2.991,0,2.996-4.649,0-4.649
			C380.758,587.462,380.753,592.111,383.749,592.111"/>
		<path clip-path="url(#SVGID_2_)" fill="#FFFFFF" d="M422.25,578.857c1.964,0.327,3.928,0.655,5.892,0.982
			c1.555,0.259,3.146-0.408,3.595-2.041c0.385-1.4-0.475-3.335-2.041-3.596c-1.964-0.327-3.928-0.655-5.892-0.982
			c-1.555-0.259-3.147,0.409-3.595,2.042C419.824,576.662,420.684,578.597,422.25,578.857"/>
		<path clip-path="url(#SVGID_2_)" fill="#FFFFFF" d="M473.34,581.325l-1.004-4.903c-0.245-1.194-1.656-1.883-2.775-1.575
			c-1.249,0.343-1.809,1.575-1.575,2.774c0.32,1.639,0.641,3.277,0.96,4.915c0.236,1.209,1.682,1.9,2.804,1.593
			C473.002,583.783,473.588,582.535,473.34,581.325"/>
		<path clip-path="url(#SVGID_2_)" fill="#FFFFFF" d="M377.506,446.718c6.911,1.407,12.119,5.953,17.351,10.396
			c5.333,4.527,10.555,9.19,15.648,13.986c10.084,9.493,20.44,19.474,28.747,30.6c2.079,2.784,7.345,2.247,7.163-1.941
			c-0.234-5.396-1.854-10.23-4.745-14.788c-2.38-3.753-8.055-0.447-5.961,3.485c1.927,3.619,2.777,7.217,3.018,11.303
			c2.187-0.905,4.375-1.812,6.562-2.718c-11.345-10.66-22.041-21.861-33.952-31.935c-5.491-4.645-11.11-9.146-16.875-13.446
			c-5.112-3.813-10.142-7.015-16.564-7.834C376.257,443.615,375.888,446.389,377.506,446.718"/>
		<path clip-path="url(#SVGID_2_)" fill="#FFFFFF" d="M419.069,455.271c14.704,13.798,26.417,30.438,33.814,49.239
			c1.764,4.481,7.588,3.611,8.167-1.104c0.698-5.687,0.275-11.169-1.04-16.734c-1.137-4.811-8.043-2.689-7.278,2.007
			c0.731,4.494,0.78,9.11,0.151,13.622c2.533-0.331,5.066-0.662,7.6-0.993c-9.014-19.014-21.48-36.216-36.988-50.463
			C420.536,448.126,416.119,452.503,419.069,455.271"/>
		<path clip-path="url(#SVGID_2_)" fill="#FFFFFF" d="M444.403,465.418c3.508,7.025,6.878,14.108,10.229,21.212
			c2.445,5.187,4.389,12.497,9.856,15.31c2.108,1.085,4.088,0.36,5.471-1.434c2.349-3.053,3.732-6.19,4.592-9.94
			c1.036-4.521-5.327-6.184-6.879-1.896c-0.934,2.576-2.254,4.87-3.992,6.99c1.615-0.208,3.229-0.416,4.844-0.625
			c-2.596-1.24-3.679-4.404-4.995-6.809l-4.698-8.583c-3.134-5.728-6.215-11.473-9.22-17.269
			C447.817,458.918,442.678,461.961,444.403,465.418"/>
		<path clip-path="url(#SVGID_2_)" fill="#FFFFFF" d="M477.084,474.726c1.018,5.972,3.012,11.679,5.863,17.021
			c0.765,1.432,2.398,1.832,3.87,1.574c0.958-0.167,1.913-0.343,2.87-0.52c3.615-0.662,2.829-6.775-0.875-6.464
			c-0.969,0.082-1.938,0.163-2.906,0.253c0.985,0.566,1.972,1.131,2.959,1.697c-2.866-4.775-4.749-9.743-5.789-15.214
			C482.326,469.127,476.419,470.827,477.084,474.726"/>
		<path clip-path="url(#SVGID_2_)" fill="#FFFFFF" d="M497.277,476.548c2.035,8.253,12.383,12.54,19.512,7.714
			c3.012-2.036,0.311-6.834-2.88-4.928c-4.013,2.396-9.888,0.271-11.173-4.291C501.748,471.535,496.404,473.006,497.277,476.548"/>
		<path clip-path="url(#SVGID_2_)" fill="#FFFFFF" d="M535.952,472.183c4.087,0,4.094-6.353,0-6.353
			C531.865,465.83,531.857,472.183,535.952,472.183"/>
	</g>
</g>
</svg>
