<svg version="1.1" xmlns="http://www.w3.org/2000/svg" xmlns:xlink="http://www.w3.org/1999/xlink" x="0px" y="0px" width="682px"
	 height="656px" viewBox="0 0 682 656" enable-background="new 0 0 682 656" xml:space="preserve">
<g id="Layer_2" display="none">
	<rect x="-236" y="-220" display="inline" stroke="#FFFFFF" width="1166" height="1100"/>
</g>
<g id="Layer_1">
	<g>
		<defs>
			<rect id="SVGID_1_" x="-156.5" y="-180.5" width="1000" height="1000"/>
		</defs>
		<clipPath id="SVGID_2_">
			<use xlink:href="#SVGID_1_"  overflow="visible"/>
		</clipPath>
		<path clip-path="url(#SVGID_2_)" fill="#FFFFFF" d="M448.563,19.469c-6.543-3.273-13.564-4.523-20.832-4.86
			c-8.542-0.396-17.027-0.634-25.563-1.265c-9.15-0.676-18.279-0.425-27.444-0.552c-9.011-0.126-17.787-1.31-26.728-2.266
			c-36.275-3.876-72.914-3.075-109.111,0.812c-34.404,3.695-66.789,18.829-98.191,32.579c-15.305,6.701-28.228,16.733-40.688,27.72
			C87.81,82.393,76.278,93.213,66.733,106.466c-9.518,13.214-16.81,27.472-22.434,42.733c-2.892,7.848-6.321,15.493-8.801,23.49
			c-2.471,7.969-4.988,15.853-8.139,23.586C14.186,228.609,9.116,263.924,9.547,298.68c0.447,36.026,7.864,71.132,15.228,106.249
			c3.539,16.88,6.54,34.689,12.961,50.757c6.38,15.961,16.35,29.765,27.189,42.979c10.721,13.073,23.192,24.156,35.3,35.883
			c12.409,12.018,24.531,24.336,37.443,35.821c12.427,11.057,25.538,21.095,40,29.354c14.269,8.148,29.336,14.809,44.551,20.97
			c8.099,3.28,16.3,6.21,24.516,9.177c7.712,2.784,15.179,6.42,23.069,8.681c16.96,4.859,35.184,4.923,52.67,5.809
			c35.897,1.82,72.777,2.866,108.255-4.32c17.164-3.476,34.122-9.539,50.142-16.549c7.871-3.443,15.336-7.713,22.822-11.907
			c7.228-4.049,14.553-7.884,21.455-12.484c13.74-9.158,26.324-20.462,38.362-31.725c12.89-12.059,24.263-25.421,35.176-39.27
			c5.329-6.763,10.644-13.6,15.061-21.004c4.389-7.354,8.034-15.113,11.739-22.823c7.688-16.003,15.009-32.217,22.362-48.378
			c14.749-32.419,22.969-66.25,24.421-101.879c0.738-18.112-0.37-36.208-1.141-54.3c-0.753-17.692-0.687-35.479-3.429-53.016
			c-5.168-33.05-23.806-62.276-38.994-91.483c-8.019-15.421-18.021-27.985-30.32-40.189c-11.738-11.644-21.359-25.851-34.412-36.049
			c-13.086-10.224-28.221-17.749-42.648-25.871c-14.822-8.344-29.934-15.594-46.81-18.541c-8.121-1.418-16.235-2.596-24.256-4.538
			c-5.637-1.365-12.425-4.343-18.313-3.994c-6.313,0.373-6.356,10.248,0,9.872c2.312-0.137,4.772,0.881,6.988,1.471
			c3.769,1.004,7.548,1.979,11.345,2.871c8.023,1.885,16.182,2.906,24.262,4.479c16.201,3.152,30.556,10.823,44.739,18.961
			c14.047,8.06,29.385,15.25,41.56,26.097c5.977,5.324,10.875,11.68,16.033,17.762c5.205,6.135,10.924,11.762,16.598,17.456
			c5.563,5.584,11.09,11.273,15.599,17.764c4.792,6.898,8.667,14.371,12.456,21.85c7.049,13.916,14.728,27.527,21.472,41.595
			c7.076,14.758,12.449,30.147,14.525,46.441c2.19,17.194,1.942,34.674,2.655,51.968c1.437,34.883,1.726,69.3-6.914,103.405
			c-4.144,16.352-10.399,31.917-17.524,47.175c-7.125,15.255-13.938,30.651-21.221,45.833
			c-7.298,15.216-15.652,28.872-26.213,42.057c-10.425,13.015-21.23,25.525-33.448,36.901
			c-11.773,10.962-24.012,22.037-37.564,30.764c-6.757,4.351-13.898,8.045-20.902,11.976c-7.32,4.109-14.657,8.272-22.411,11.523
			c-15.415,6.464-31.658,12.061-48.113,15.146c-16.952,3.178-34.522,3.877-51.726,4.587c-17.658,0.73-35.011-0.428-52.624-1.349
			c-16.903-0.884-34.841-0.776-51.054-6.237c-7.548-2.542-14.762-6.095-22.225-8.891c-7.653-2.867-15.271-5.771-22.791-8.975
			c-14.321-6.099-28.445-12.768-41.824-20.751c-27.999-16.707-50.007-40.915-73.036-63.604
			c-22.41-22.08-47.802-44.752-59.239-74.997c-5.927-15.674-9.016-32.771-12.554-49.112c-3.68-17.004-7.542-34.01-10.683-51.122
			c-5.972-32.539-7.704-66.557-2.372-99.313c2.657-16.321,6.864-32.898,12.903-48.307c5.882-15.005,10.429-30.46,16.081-45.56
			c5.598-14.96,12.039-28.848,21.19-42.018c8.883-12.784,19.971-23.123,31.497-33.464c12.163-10.913,24.596-20.627,39.606-27.32
			c15.275-6.811,30.648-13.352,46.224-19.442c16.276-6.364,31.973-11.224,49.4-13.302c17.299-2.063,34.263-3.706,51.699-3.805
			c17.245-0.098,34.512-0.175,51.71,1.283c8.63,0.732,17.149,1.924,25.827,2.019c8.532,0.094,17.068-0.447,25.597-0.099
			c8.098,0.331,16.115,0.938,24.229,0.728c8.383-0.218,16.8-0.5,24.688,2.831C448.867,24.233,451.097,20.737,448.563,19.469"/>
		<path clip-path="url(#SVGID_2_)" fill="#FFFFFF" d="M143.139,87.835c-6.022,2.116-10.084,6.813-15.041,10.542
			c-5.223,3.93-10.181,8.554-14.159,13.775c-4.385,5.754-7.189,12.665-9.926,19.315c-3.164,7.688-6.182,15.439-9.237,23.172
			C82.877,184.75,69.255,216.511,67.37,249.2c-2.001,34.699,2.853,69.068,4.722,103.61c0.428,7.921,0.112,15.841,1.265,23.709
			c1.235,8.428,2.906,16.904,5.408,25.049c2.481,8.076,5.593,15.895,7.9,24.036c2.108,7.438,3.701,15.411,6.935,22.448
			c7.655,16.653,17.214,32.492,27.517,47.643c4.744,6.975,9.902,13.808,16.139,19.523c5.842,5.354,11.517,11.781,18.386,15.822
			c1.456,0.857,2.686-1.316,1.311-2.242c-5.948-4.007-10.582-10-15.676-15.002c-5.633-5.531-10.415-11.639-14.737-18.24
			c-8.404-12.838-15.935-26.459-23.078-40.03c-3.883-7.378-7.096-14.36-9.546-22.335c-2.261-7.36-4.119-14.859-6.788-22.088
			c-5.592-15.143-9.924-31.219-10.021-47.466c-0.098-16.378-2.082-32.512-3.545-48.781c-1.44-16.015-1.576-32.202-1.728-48.271
			c-0.157-16.63,0.801-32.499,4.785-48.704c3.707-15.077,8.838-29.645,14.533-44.072c6.576-16.658,12.77-33.863,20.584-49.977
			c3.629-7.486,8.693-13.77,14.626-19.578c2.806-2.747,5.905-4.827,8.506-7.796c2.454-2.799,5.542-5.51,8.9-7.131
			C144.594,88.93,144.013,87.528,143.139,87.835"/>
		<path clip-path="url(#SVGID_2_)" fill="#FFFFFF" d="M172.753,544.522c3.597,3.845,7.753,7.042,11.529,10.694
			c3.45,3.336,6.493,6.867,10.171,9.97c3.538,2.985,6.743,6.058,10.892,8.189c4.789,2.46,9.416,5.141,14.118,7.765
			c8.994,5.022,18.33,6.894,28.283,9.099c10.875,2.407,21.625,4.658,32.649,6.336c21.937,3.337,43.901,9.938,66.138,10.875
			c10.885,0.458,22.003,0.315,32.881-0.237c10.767-0.548,20.983-2.793,31.391-5.475c10.654-2.745,20.896-6.971,31.361-10.363
			c10.2-3.309,19.546-7.348,29.069-12.182c3.983-2.021,7.789-3.532,11.348-6.299c4.54-3.528,9.585-6.037,14.551-8.902
			c9.221-5.32,17.949-11.808,26.049-18.708c7.684-6.548,15.401-13.555,22.377-20.855c7.102-7.431,12.22-16.427,18.966-24.188
			c7.104-8.173,14.266-16.472,20.927-25.005c6.557-8.398,11.887-17.421,17.696-26.3c11.221-17.149,21.437-37.155,25.248-57.477
			c1.99-10.607,4.988-21.097,6.469-31.774c1.59-11.456,2.128-22.969,2.171-34.525c0.044-11.765,0.575-23.59-0.497-35.326
			c-0.959-10.503-3.749-20.82-5.656-31.181c-3.764-20.439-9.341-41.027-16.889-60.402c-3.626-9.308-7.843-18.415-13.069-26.938
			c-5.442-8.871-10.963-18.035-17.67-26.01c-14.069-16.73-27.319-34.308-42.504-50.065c-14.781-15.338-34.416-23.223-53.71-31.319
			c-10.567-4.434-21.3-7.969-32.194-11.472c-10.161-3.268-20.445-6.948-31.21-7.405c-22.307-0.947-44.234-5.09-66.368-7.873
			c-22.3-2.804-43.814-3.646-66.142-0.507c-12.077,1.697-24.081,3.863-36.179,5.425c-10.846,1.401-21.7,3.173-32.294,5.913
			c-10.564,2.733-21.297,4.413-31.722,7.689c-9.485,2.981-20,4.872-28.592,10.044c-4.225,2.544-7.459,6.199-11.473,8.95
			c-3.595,2.464-7.637,3.678-10.983,6.585c-3.035,2.637,1.322,6.788,4.357,4.356c3.469-2.78,7.998-3.691,11.591-6.293
			c4.147-3.005,7.784-6.207,12.368-8.621c4.29-2.259,8.894-3.248,13.5-4.635c5.155-1.552,10.24-3.328,15.398-4.869
			c10.132-3.026,20.693-4.862,30.972-7.384c10.42-2.558,21.101-3.975,31.716-5.43c22.359-3.064,44.354-7.787,67.044-7.166
			c21.295,0.583,42.256,4.415,63.235,7.6c10.093,1.533,20.694,2.672,30.897,2.875c10.862,0.216,20.976,3.617,31.226,6.909
			c20.589,6.613,41.038,13.976,60.281,23.974c18.69,9.713,32.198,25.754,45.173,41.983c6.501,8.132,13.068,16.136,19.852,24.033
			c6.805,7.921,12.343,17.114,17.806,26.001c10.701,17.41,17.156,37.02,22.504,56.627c2.628,9.639,5.055,19.308,6.875,29.135
			c1.93,10.424,4.808,20.841,5.618,31.425c0.849,11.097,0.412,22.256,0.329,33.372c-0.089,11.607-0.613,23.214-2.347,34.706
			c-0.775,5.14-2.169,10.054-3.462,15.078c-1.322,5.14-1.964,10.392-3.006,15.588c-2.009,10.013-5.991,19.784-10.182,29.065
			c-4.235,9.379-9.388,17.969-14.938,26.603c-5.557,8.642-10.787,17.404-17.273,25.428c-6.641,8.211-13.587,16.257-20.501,24.239
			c-6.357,7.338-11.182,15.892-17.804,22.947c-13.846,14.755-29.979,28.97-47.524,39.111c-4.123,2.383-8.53,4.42-12.394,7.218
			c-3.946,2.858-7.48,5.098-11.889,7.21c-4.842,2.32-9.28,5.221-14.341,7.092c-5.154,1.903-10.331,3.743-15.573,5.393
			c-20.446,6.433-40.098,14.228-61.815,14.964c-10.309,0.351-20.729,0.343-31.043,0.179c-10.632-0.169-21.544-2.119-32.028-3.831
			c-21.206-3.461-42.736-5.877-63.676-10.654c-10.374-2.367-20.074-4-29.617-9.028c-8.47-4.463-16.778-8.535-24.54-14.155
			c-3.78-2.736-7.056-5.889-10.669-8.815c-4.109-3.33-8.567-6.173-12.515-9.708C172.992,543.343,172.293,544.032,172.753,544.522"/>
		<path clip-path="url(#SVGID_2_)" fill="#FFFFFF" d="M329.218,67.917c-0.377,5.408-0.188,11.036-1.084,16.385
			c-0.804,4.802-2.134,9.469-2.745,14.313h8.582c0.455-3.665,2.387-6.899,2.714-10.612c0.321-3.64-0.342-7.22,0.14-10.878
			c-0.711,1.24-1.422,2.479-2.133,3.718c0.308-0.135,0.616-0.271,0.924-0.406c3.002-1.321,2.376-6.868-0.958-7.326
			c-0.331-0.046-0.663-0.091-0.994-0.137c-2.48-0.341-4.382,0.582-5.296,3.007c-1.428,3.791-0.138,7.41-0.48,11.281
			c-0.347,3.935-2.487,7.307-2.499,11.353c-0.016,5.522,8.571,5.53,8.582,0c0.01-5.083,1.612-9.905,2.021-14.948
			c0.419-5.18-0.261-10.578-0.613-15.75C335.109,63.956,329.494,63.952,329.218,67.917"/>
		<path clip-path="url(#SVGID_2_)" fill="#FFFFFF" d="M576.356,333.852c5.429,1.94,9.573,1.104,15.134,1.123
			c5.646,0.02,10.96,0.455,16.42,1.775c5.472,1.323,8.822-6.19,3.861-9.158c-5.296-3.165-12.074-2.105-17.922-1.478
			c-3.095,0.332-5.694,0.878-8.641,1.854c-2.916,0.969-5.905,1.164-8.853,2.018C574.367,330.563,574.543,333.203,576.356,333.852"/>
		<path clip-path="url(#SVGID_2_)" fill="#FFFFFF" d="M116.988,326.588c-6.715-0.879-13.537-1.003-20.241-0.185
			c-4.231,0.518-8.806-0.218-12.189,2.93c-2.74,2.548-1.399,7.546,2.223,8.42c0.303,0.073,0.606,0.146,0.909,0.22
			c5.215,1.258,9.025-6.47,3.804-9.021c-0.277-0.136-0.554-0.271-0.831-0.406c0.34,2.638,0.68,5.274,1.02,7.913
			c0.282-0.279,7.708-0.703,9.142-0.881c5.343-0.662,10.801-0.217,16.163-0.916C122.167,333.985,122.175,327.267,116.988,326.588"/>
		<path clip-path="url(#SVGID_2_)" fill="#FFFFFF" d="M341.518,549.6c-2.154,5.25-2.968,10.687-3.832,16.313
			c-0.696,4.541-1.442,9.928,0.185,14.343c0.78,2.116,2.596,3.876,5.002,3.809l1.073-0.03c4.535-0.128,7.184-7.026,2.491-9.198
			c-0.315-0.146-0.632-0.292-0.946-0.438c0.855,1.492,1.713,2.985,2.569,4.479c-0.963-9.594,0.507-18.681,1.039-28.25
			C349.362,545.915,343.039,545.891,341.518,549.6"/>
		<path clip-path="url(#SVGID_2_)" fill="#FFFFFF" d="M520.64,125.264c-2.897,0.583-4.372,3.223-6.761,4.644
			c-1.554,0.926-3.17,1.473-4.591,2.637c-1.391,1.139-2.442,2.567-3.718,3.82c-3.632,3.572,1.668,8.473,5.459,5.458
			c2.312-1.838,3.688-4.538,5.875-6.547c0.913-0.838,1.696-1.73,2.438-2.723c0.633-0.847,1.472-2.509,2.501-2.923
			C524.512,128.558,523.553,124.678,520.64,125.264"/>
		<path clip-path="url(#SVGID_2_)" fill="#FFFFFF" d="M132.258,151.395c2.08,3.199,4.994,5.303,7.917,7.675
			c1.638,1.33,4.727,2.581,5.774,4.291c2.231,3.645,8.58,2.334,8.368-2.267c-0.2-4.331-3.357-5.939-6.733-7.763
			c-3.243-1.752-6.563-4.104-9.264-6.613C135.229,143.845,129.776,147.577,132.258,151.395"/>
		<path clip-path="url(#SVGID_2_)" fill="#FFFFFF" d="M499.672,491.097c0.227,4.352,2.78,7.722,5.2,11.169
			c3.015,4.297,5.509,9.023,9.364,12.66c4.16,3.923,10.031-2.023,6.246-6.246c-2.92-3.256-5.496-6.737-8.248-10.129
			c-2.026-2.498-5.022-5.155-5.782-8.372C505.566,486.435,499.469,487.178,499.672,491.097"/>
		<path clip-path="url(#SVGID_2_)" fill="#FFFFFF" d="M183.543,483.4c-4.955,4.016-9.189,8.978-14.521,12.475
			c-3.927,2.575-8.204,5.558-8.194,10.751c0.01,4.962,7.863,6.336,8.894,1.203c0.589-2.93,5.205-4.969,7.33-6.809
			c4.197-3.634,8.035-8.279,11.53-12.581C191.487,484.862,187.123,480.5,183.543,483.4"/>
		<path clip-path="url(#SVGID_2_)" fill="#FFFFFF" d="M421.075,88.208c-1.216,5.572-2.147,11.539-2.455,17.238
			c-0.297,5.471,8.688,5.522,8.536,0c-0.158-5.716,1.057-11.569,0.132-17.238C426.773,85.047,421.726,85.223,421.075,88.208"/>
		<path clip-path="url(#SVGID_2_)" fill="#FFFFFF" d="M573.269,219.982c-0.479,2.926-6.612,3.949-8.977,4.893
			c-3.965,1.586-6.154,3.696-7.627,7.752c-1.354,3.731,4.687,6.303,6.444,2.717c1.767-3.605,4.425-4.743,7.887-6.521
			c3.296-1.693,7.065-4.042,7.012-8.2C577.973,218.014,573.722,217.208,573.269,219.982"/>
		<path clip-path="url(#SVGID_2_)" fill="#FFFFFF" d="M544.816,422.563c2.484,3.378,5.325,6.497,8.434,9.309
			c2.84,2.568,4.216,6.077,7.343,8.397c3.782,2.806,8.159-3.221,4.948-6.412c-2.493-2.478-4.574-5.276-7.465-7.317
			c-3.357-2.373-6.318-5.174-9.604-7.633C546.365,417.33,543.268,420.455,544.816,422.563"/>
		<path clip-path="url(#SVGID_2_)" fill="#FFFFFF" d="M425.917,535.799c-1.074,4.362,0.834,8.935,1.578,13.249
			c0.687,3.979,1.837,7.379,5.354,9.639c3.215,2.066,6.729-2.602,4.048-5.246c-2.047-2.019-2.642-4.882-3.503-7.521
			c-1.12-3.432-2.646-6.516-3.183-10.121C429.879,533.567,426.412,533.789,425.917,535.799"/>
		<path clip-path="url(#SVGID_2_)" fill="#FFFFFF" d="M257.912,528.004c-5.621,4.771-9.551,11.115-14.865,16.194
			c-3.382,3.231,2.075,8.578,5.091,5.091c4.84-5.595,8.281-12.269,13.605-17.454C264.277,529.368,260.536,525.777,257.912,528.004"
			/>
		<path clip-path="url(#SVGID_2_)" fill="#FFFFFF" d="M132.63,414.479c-4.894,2.688-11.522,3.607-15.455,7.73
			c-3.068,3.216,1.016,9.183,4.947,6.412c2.406-1.696,4.753-3.066,7.44-4.284c2.593-1.175,5.281-2.379,7.071-4.67
			C138.831,416.851,136.149,412.547,132.63,414.479"/>
		<path clip-path="url(#SVGID_2_)" fill="#FFFFFF" d="M128.658,252.146c-3.003-2.651-6.678-3.842-10.233-5.54
			c-3.951-1.888-7.861-2.973-12.262-2.276c-3.468,0.549-3.404,6.334,0,6.942c3.564,0.637,6.573,0.586,10.012,1.921
			c2.983,1.158,6.2,1.791,8.84,3.674C127.784,258.842,131.209,254.397,128.658,252.146"/>
		<path clip-path="url(#SVGID_2_)" fill="#FFFFFF" d="M221.888,113.621c-2.244-2.498-3.284-5.78-5.341-8.424
			c-1.783-2.292-3.604-4.212-5.059-6.778c-2.655-4.68-5.907-8.966-10.555-11.803c-4.208-2.569-8.081,4.073-3.859,6.601
			c4.953,2.966,6.935,8.091,10.356,12.428c1.749,2.217,3.823,3.9,5.343,6.328c1.46,2.332,2.605,4.222,4.759,6.004
			C220.559,120.482,224.576,116.614,221.888,113.621"/>
		<path clip-path="url(#SVGID_2_)" fill="#FFFFFF" d="M350.831,321.356c-4.543-0.773-9.324-2.363-13.952-1.242
			c-4.498,1.09-8.053,4.835-10.207,8.804c-4.355,8.019-1.127,19.355,8.156,22.068c3.823,1.117,8.811,3.04,12.647,1.328
			c3.874-1.729,7.447-6.099,9.082-9.899c3.798-8.828-1.123-20.264-10.251-23.42c-3.808-1.317-6.746,4.033-3.9,6.699
			c3.659,3.429,7.956,7.009,6.189,12.676c-0.432,1.386-2.797,5.354-4.51,5.851c-1.123,0.324-4.569-0.94-6.04-1.312
			c-5.646-1.43-6.672-7.483-3.892-12.148c3.589-6.024,10.09-5.525,16.264-6.341C351.968,324.214,352.746,321.683,350.831,321.356"/>
		<path clip-path="url(#SVGID_2_)" fill="#FFFFFF" d="M338.4,322.178c1.444-8.76,4.729-16.913,5.057-25.837
			c0.355-9.647,0.24-19.341,0.286-28.994c0.097-20.27,0.787-40.705,0.037-60.958c-0.239-6.445-9.782-6.456-10.021,0
			c-0.737,19.926-0.039,40.033,0.035,59.975c0.036,9.659-0.073,19.359,0.254,29.012c0.15,4.414,0.843,8.471,0.25,12.859
			c-0.593,4.399-0.726,8.904-0.418,13.331C334.048,323.974,337.951,324.9,338.4,322.178"/>
		<path clip-path="url(#SVGID_2_)" fill="#FFFFFF" d="M348.75,334.187c4.688,7.096,12.678,7.45,20.209,9.615
			c8.387,2.412,16.21,6.793,24.178,10.284c8.259,3.619,16.908,6.174,25.063,9.994c8.34,3.905,16.811,7.476,25.285,11.077
			c16.205,6.886,31.206,15.519,46.774,23.618c3.938,2.05,7.497,4.812,11.659,6.41c1.803,0.693,3.625,1.061,5.26,2.141
			c1.741,1.149,3.051,2.483,4.986,3.376c2.778,1.28,5.972,2.001,8.926,2.822c1.331,0.37,2.702,0.586,4.035,0.954
			c2.642,0.729,1.284,1.061,1.235-1.029c0.158,6.721,10.549,6.754,10.466,0c-0.083-6.798-6.569-8.48-11.993-9.905
			c-3.456-0.907-7.138-1.797-10.066-3.808c-3.392-2.326-6.611-3.428-10.298-5.205c-4.333-2.092-8.371-4.961-12.691-7.149
			c-4.256-2.155-8.251-4.761-12.42-7.077c-7.971-4.428-16.225-8.328-24.571-11.988c-8.596-3.768-17.314-7.241-25.861-11.123
			c-8.839-4.013-17.729-7.229-26.753-10.753c-8.498-3.317-16.761-7.345-25.356-10.387c-7.985-2.827-17.9-5.652-26.4-4.771
			C349.072,331.422,347.867,332.851,348.75,334.187"/>
	</g>
</g>
</svg>
