<svg version="1.1" xmlns="http://www.w3.org/2000/svg" xmlns:xlink="http://www.w3.org/1999/xlink" x="0px" y="0px" width="780px"
	 height="522px" viewBox="0 0 780 522" enable-background="new 0 0 780 522" xml:space="preserve">
<g id="Layer_2" display="none">
	<rect x="-176" y="-292" display="inline" stroke="#FFFFFF" width="1150" height="1126"/>
</g>
<g id="Layer_1">
	<g>
		<defs>
			<rect id="SVGID_1_" x="-94.5" y="-246.5" width="1000" height="1000"/>
		</defs>
		<clipPath id="SVGID_2_">
			<use xlink:href="#SVGID_1_"  overflow="visible"/>
		</clipPath>
		<path clip-path="url(#SVGID_2_)" fill="#FFFFFF" d="M672.964,27.028c-10.366-0.308-20.514-2.569-30.852-3.142
			c-10.397-0.577-20.705-0.113-31.014-1.904c-19.378-3.367-39.316-3.718-58.866-5.768c-9.986-1.048-19.977-1.021-29.986-1.636
			c-9.972-0.612-19.893-1.898-29.8-3.149c-20.296-2.562-40.59-3.911-61.035-4.581c-20.813-0.681-41.664-0.491-62.486-0.651
			c-20.682-0.159-41.425-0.462-62.104-0.034c-20.022,0.414-39.88,2.539-59.821,4.185c-20.018,1.652-39.34,5.707-59.137,8.807
			c-19.74,3.091-39.671,4.505-59.446,7.302c-19.39,2.742-38.033,8.566-57.34,11.724c-9.564,1.565-19.185,3.023-28.535,5.633
			c-4.27,1.191-8.363,2.834-12.519,4.357c-3.589,1.316-7.687,2.155-10.68,4.664c-6.029,5.055-5.606,13.827-5.513,20.952
			c0.13,10.037-0.044,20.083-0.084,30.12c-0.082,20.856-0.187,41.711-0.283,62.567c-0.095,20.537-1.333,41.164,0.55,61.652
			c1.822,19.843,4.318,39.97,3.859,59.908c-0.235,10.219,0.269,20.458-0.128,30.669c-0.407,10.472-1.865,20.948-2.933,31.37
			c-2.066,20.18-3.516,40.377-4.412,60.644c-0.872,19.719-1.304,40.311,3.518,59.624c1.011,4.052,2.459,7.976,3.68,11.965
			c1.284,4.194,1.744,8.709,3.377,12.773c3.189,7.936,11.087,8.732,18.609,9.799c20.123,2.855,40.675,4.617,60.941,6.154
			c20.138,1.528,39.93,3.497,60.11,1.455c20.228-2.048,40.402-4.43,60.661-6.204c41.344-3.621,82.765-6.268,124.094-10.053
			c20.513-1.879,40.922-3.914,61.514-4.742c10.145-0.408,20.323-1.487,30.479-1.191c9.869,0.288,19.72,1.188,29.59,1.544
			c20.67,0.747,41.354,1.126,62.038,1.204c20.312,0.077,40.408,0.281,60.598,2.82c19.746,2.483,39.649,6.198,59.14,10.215
			c9.594,1.978,18.926,5.006,28.482,7.137c9.426,2.103,19.026,3.052,28.679,3.112c10.009,0.063,19.997-0.713,29.969-1.489
			c4.14-0.321,8.186-0.729,12.329-0.436c3.157,0.223,6.356,0.434,9.402-0.628c8.424-2.938,7.694-11.949,7.856-19.214
			c0.212-9.538,2.788-19.092,4.022-28.541c2.564-19.64,3.742-39.533,5.018-59.292c1.316-20.369,1.515-40.729,0.811-61.126
			c-1.429-41.378-5.84-82.583-7.709-123.938c-0.927-20.486-0.666-40.927-2.674-61.356c-1.979-20.129-2.794-40.29-4.436-60.44
			c-0.765-9.388-1.907-18.719-3.391-28.019c-1.08-6.768-2.244-13.51-5.07-19.807c-2.641-5.885-6.817-10.709-12.149-14.322
			c-3.156-2.139-6.714-3.488-10.02-5.359c-3.555-2.014-6.258-5.273-10.155-6.665c-8.167-2.917-17.599-1.52-26.059-3.331
			c-4.067-0.87-8.204-0.95-12.253-1.886c-3.575-0.825-6.25-0.777-9.691,0.653c-5.529,2.297-3.104,11.432,2.508,9.101
			c3.583-1.489,6.095-0.055,9.835,0.4c4.351,0.528,8.538,1.411,12.858,2.103c4.08,0.653,8.174,0.764,12.287,1.058
			c2.061,0.147,4.329,0.252,6.31,0.923c2.432,0.823,3.976,2.598,6.01,4.098c5.815,4.289,13.104,6.127,17.799,11.919
			c3.818,4.712,5.267,10.749,6.407,16.574c3.524,17.986,4.734,36.296,5.754,54.562c1.075,19.273,3.62,38.425,4.627,57.691
			c1.041,19.922,0.91,39.88,2.128,59.812c1.201,19.681,2.801,39.333,4.189,59.001c2.781,39.359,3.935,78.507,1,117.891
			c-1.429,19.188-2.342,38.606-5.674,57.583c-1.563,8.901-2.56,17.339-3.024,26.339c-0.214,4.134-1.617,3.611-5.301,3.376
			c-3.626-0.232-7.026-0.163-10.662,0.119c-19.536,1.518-39.312,3.31-58.631-0.986c-8.952-1.991-17.7-4.799-26.663-6.743
			c-9.117-1.978-18.38-3.164-27.537-4.931c-18.924-3.652-37.878-6.75-57.13-8.031c-19.787-1.317-39.674-0.629-59.491-0.861
			c-19.569-0.229-39.214-0.449-58.746-1.717c-19.12-1.24-38.142,0.092-57.255,1.134c-19.968,1.088-39.841,3.51-59.756,5.279
			c-20.052,1.781-40.121,3.342-60.193,4.872c-19.653,1.497-39.303,3.051-58.934,4.819c-19.209,1.729-38.342,4.247-57.546,5.952
			c-19.815,1.76-39.564-0.396-59.301-2.22c-9.824-0.908-19.616-2.129-29.42-3.227c-9.74-1.09-19.592-1.66-29.219-3.563
			c-2.978-0.589-6.413-0.404-7.478-3.53c-1.36-3.987-1.797-8.403-3.048-12.467c-2.734-8.879-4.518-17.531-5.659-26.76
			c-2.382-19.257-0.692-39.027,0.359-58.329c1.074-19.746,3.136-39.374,5.064-59.05c0.987-10.073,1.322-19.959,1.172-30.078
			c-0.141-9.497,0.54-19.023,0.057-28.512c-0.989-19.454-3.897-38.81-4.728-58.271c-0.852-19.933-0.101-39.973-0.193-59.922
			c-0.091-19.822-0.196-39.644-0.263-59.465c-0.031-9.27-0.246-18.546-0.234-27.813c0.004-3.201-0.169-7.481,2.912-9.284
			c3.531-2.067,8.51-3.123,12.384-4.52c17.601-6.345,36.632-7.128,54.711-11.565c8.988-2.207,17.801-4.727,26.933-6.345
			c9.6-1.701,19.28-2.874,28.969-3.923c19.026-2.061,38.009-4.369,56.802-8.045c19.391-3.794,38.686-5.377,58.314-7.36
			c39.187-3.958,78.525-2.723,117.853-3.085c19.754-0.182,39.516-0.579,59.265,0.06c19.789,0.639,39.286,2.416,58.958,4.57
			c18.867,2.066,37.818,2.123,56.732,3.495c9.796,0.71,19.587,1.642,29.397,2.049c9.732,0.404,19.263,1.549,28.946,2.368
			c9.277,0.784,18.581-0.126,27.869,0.203c9.688,0.344,19.217,2.322,28.931,2.458C675.099,30.37,675.093,27.091,672.964,27.028"/>
		<path clip-path="url(#SVGID_2_)" fill="#FFFFFF" d="M13.65,63.256c5.807,1.252,11.083,6.65,16.446,9.277
			c7.098,3.476,13.761,7.851,20.71,11.632c12.961,7.052,25.828,14.194,38.115,22.388c23.988,15.997,45.613,35.453,69.849,51.033
			c11.885,7.641,24.358,14.36,36.176,22.112c12.763,8.373,24.464,18.433,37.006,27.163c25.113,17.481,51.494,33.042,75.615,51.948
			c11.346,8.893,22.371,17.124,35.403,23.496c12.209,5.97,25.727,10.888,39.139,13.296c6.516,1.17,13.015,1.463,19.518,0.073
			c6.281-1.344,11.261-4.637,17.225-6.601c6.452-2.124,12.354-5.123,17.679-9.43c5.843-4.726,12.292-7.339,18.868-10.89
			c5.512-2.977,10.5-6.743,15.906-9.894c6.307-3.674,12.549-7.22,17.66-12.521c9.76-10.124,22.207-18.046,33.435-26.498
			c11.503-8.659,21.932-18.752,33.852-26.821c11.756-7.957,24.089-15.133,36.087-22.723c14.476-9.156,29.591-17.246,44.134-26.292
			c14.101-8.771,27.671-18.75,40.832-28.873c12.606-9.697,25.69-18.833,37.841-29.087c6.35-5.36,11.729-11.233,17.445-17.236
			c2.627-2.759,5.01-5.638,7.127-8.812c1.065-1.598,3.327-7.431,5.165-8.162c6.234-2.481,3.813-12.525-2.842-10.306
			c-5.61,1.871-7.987,6.828-11.234,11.355c-4.14,5.771-9.361,10.808-14.21,15.985c-9.721,10.378-22.064,17.565-33.219,26.169
			c-11.871,9.157-23.721,18.252-35.849,27.079c-12.248,8.914-25.307,16.549-38.389,24.155c-12.864,7.48-25.325,15.53-38.006,23.303
			c-11.937,7.316-24.045,14.442-34.754,23.531c-11.202,9.506-22.723,18.465-34.271,27.547c-5.001,3.933-10.234,7.636-15.136,11.685
			c-2.659,2.197-4.771,4.804-7.197,7.229c-2.866,2.866-6.236,5.012-9.688,7.097c-5.355,3.235-10.495,6.752-15.807,10.042
			c-6.154,3.813-13.242,6.157-19.223,10.182c-5.148,3.465-9.385,8.031-15.203,10.564c-3.295,1.436-6.823,1.994-10.056,3.654
			c-3.208,1.647-5.892,3.039-9.447,3.888c-13.296,3.176-27.968-2.339-40.342-6.95c-13.348-4.976-26.436-12.067-37.574-20.966
			c-23.397-18.69-48.208-34.996-73.24-51.38c-12.794-8.375-25.209-17.318-37.348-26.615c-11.259-8.622-23.341-15.886-35.537-23.107
			c-27.938-16.54-52.303-38.164-79.345-56.064c-13.94-9.228-28.635-16.474-43.497-24.05c-6.815-3.474-13.299-7.523-20.362-10.475
			c-6.297-2.631-11.69-7.557-18.611-8.393C10.934,56.564,10.165,62.504,13.65,63.256"/>
		<path clip-path="url(#SVGID_2_)" fill="#FFFFFF" d="M288.269,239.766l1.306,0.521c-0.573-1.408-1.146-2.817-1.719-4.225
			c-1.606,2.9-6.795,5.243-9.598,6.864c-5.344,3.092-10.501,6.334-15.71,9.645c-4.637,2.947-9.568,5.117-13.994,8.426
			c-4.54,3.395-9.391,6.496-13.769,10.081c-4.38,3.587-8.805,6.469-13.387,9.744c-4.672,3.34-8.458,7.622-12.425,11.73
			c-3.935,4.075-8.404,7.54-12.361,11.589c-4.365,4.465-8.326,9.31-12.79,13.682c-18.004,17.633-38.084,33.115-55.967,50.902
			c-18.709,18.609-38.615,35.99-57.349,54.598c-9.575,9.512-19.648,18.628-27.938,29.328c-4.249,5.483-8.227,10.967-12.922,16.1
			c-4.504,4.923-9.133,9.688-12.9,15.22c-2.756,4.046,3.579,8.991,6.822,5.264c7.766-8.926,16.635-16.796,23.527-26.46
			c7.278-10.204,16.238-18.807,25.147-27.561c9.548-9.381,19.005-18.844,28.705-28.067c9.785-9.306,20.005-18.181,29.609-27.671
			c18.028-17.813,37.271-34.271,55.985-51.346c8.862-8.085,16.642-17.244,25.435-25.42c4.117-3.827,7.636-8.263,11.851-11.986
			c4.399-3.887,9.761-6.346,14.202-10.222c4.935-4.308,10.317-8.098,15.51-12.104c5.068-3.911,10.918-6.44,16.041-10.275
			c5.21-3.899,10.913-7.137,15.97-11.221c2.795-2.257,6.678-4.918,7.563-8.623c0.472-1.973-0.896-3.433-2.774-3.641
			c-0.452-0.05-0.904-0.1-1.356-0.15C285.724,234.125,285.706,238.743,288.269,239.766"/>
		<path clip-path="url(#SVGID_2_)" fill="#FFFFFF" d="M510.973,229.549c-5.259,0.669-10.101,2.662-15.041,4.474
			c-0.188,0.069-0.106,0.372,0.083,0.301c4.913-1.824,9.721-3.837,14.958-4.525C511.129,229.778,511.132,229.529,510.973,229.549"/>
		<path clip-path="url(#SVGID_2_)" fill="#FFFFFF" d="M487.713,231.492c-0.318-0.07-0.637-0.14-0.955-0.21
			c-3.293-0.724-4.854,3.38-2.222,5.269c10.391,7.457,18.381,18.375,27.75,27.033c9.313,8.606,18.279,17.491,27.412,26.293
			c9.268,8.934,18.721,17.864,27.336,27.43c8.633,9.587,18.088,18.279,27.048,27.537c17.776,18.37,33.062,38.805,51.45,56.61
			c9.161,8.872,17.394,18.657,26.226,27.854c8.997,9.369,18.39,18.372,27.506,27.628c5.013,5.092,9.589,10.604,14.918,15.364
			c5.48,4.896,11.198,9.525,16.833,14.24c10.825,9.059,20.903,19.233,30.575,29.489c1.756,1.863,4.235-0.833,2.74-2.74
			c-7.979-10.179-16.442-20.088-26.187-28.656c-9.612-8.453-19.039-16.664-27.053-26.666c-8.039-10.031-17.76-18.983-26.677-28.239
			c-9.14-9.485-17.431-19.699-26.324-29.396c-8.804-9.599-18.073-18.525-26.355-28.615c-8.127-9.899-16.255-19.813-24.889-29.28
			c-8.88-9.737-18.702-18.518-27.782-28.059c-8.947-9.401-18.042-18.511-27.575-27.331c-10.639-9.842-21.18-19.78-32.258-29.121
			c-5.34-4.501-10.305-9.421-15.535-14.046c-5-4.421-10.082-9.568-16.25-12.306c-0.484,1.79-0.97,3.581-1.454,5.371
			c0.327,0.004,0.654,0.008,0.982,0.011C490.052,236.989,490.827,232.177,487.713,231.492"/>
	</g>
</g>
</svg>
