<svg version="1.1" xmlns="http://www.w3.org/2000/svg" xmlns:xlink="http://www.w3.org/1999/xlink" x="0px" y="0px"
	 width="476.977px" height="485.976px" viewBox="0 0 476.977 485.976" enable-background="new 0 0 476.977 485.976"
	 xml:space="preserve">
<g id="Layer_2" display="none">
	<rect x="-209.989" y="-157.492" display="inline" stroke="#FFFFFF" width="853.457" height="797.96"/>
</g>
<g id="Layer_1">
	<g>
		<defs>
			<rect id="SVGID_1_" x="-119.603" y="-116.603" width="720" height="720"/>
		</defs>
		<clipPath id="SVGID_2_">
			<use xlink:href="#SVGID_1_"  overflow="visible"/>
		</clipPath>
		<path clip-path="url(#SVGID_2_)" fill="#FFFFFF" d="M336.962,484.52H141.919c-74.632,0-135.694-61.062-135.694-135.694V140.993
			c0-74.632,61.062-135.694,135.694-135.694h195.043c74.632,0,135.694,61.062,135.694,135.694v207.833
			C472.656,423.458,411.594,484.52,336.962,484.52 M336.962,448.664c26.518,0,51.548-10.428,70.479-29.358
			c18.933-18.932,29.358-43.962,29.358-70.48V140.993c0-26.518-10.426-51.548-29.358-70.48
			c-18.931-18.932-43.961-29.358-70.479-29.358H141.919c-26.518,0-51.548,10.426-70.48,29.358s-29.358,43.962-29.358,70.48v207.833
			c0,26.519,10.426,51.549,29.358,70.48c18.932,18.931,43.962,29.358,70.48,29.358H336.962z"/>
		<path clip-path="url(#SVGID_2_)" fill="#FFFFFF" d="M368.602,243.06c0,70.935-57.505,128.44-128.441,128.44
			c-70.935,0-128.44-57.506-128.44-128.44c0-70.936,57.505-128.441,128.44-128.441C311.097,114.619,368.602,172.124,368.602,243.06
			 M239.543,159.057c-46.45,0-84.104,37.655-84.104,84.104c0,46.45,37.654,84.105,84.104,84.105s84.104-37.655,84.104-84.105
			C323.646,196.711,285.993,159.057,239.543,159.057"/>
		<path clip-path="url(#SVGID_2_)" fill="#FFFFFF" d="M401.076,112.621c0,16.796-13.616,30.413-30.413,30.413
			c-16.796,0-30.412-13.617-30.412-30.413s13.616-30.413,30.412-30.413C387.46,82.208,401.076,95.825,401.076,112.621"/>
	</g>
</g>
</svg>
