<svg version="1.1" xmlns="http://www.w3.org/2000/svg" xmlns:xlink="http://www.w3.org/1999/xlink" x="0px" y="0px"
	 width="873.087px" height="678.068px" viewBox="0 0 873.087 678.068" enable-background="new 0 0 873.087 678.068"
	 xml:space="preserve">
<g id="Layer_2" display="none">
	<rect x="-168.017" y="-270.027" display="inline" stroke="#FFFFFF" width="1281.128" height="1206.121"/>
</g>
<g id="Layer_1">
	<g>
		<defs>
			<rect id="SVGID_1_" x="-73.277" y="-181.288" width="1000" height="1000"/>
		</defs>
		<clipPath id="SVGID_2_">
			<use xlink:href="#SVGID_1_"  overflow="visible"/>
		</clipPath>
		<path clip-path="url(#SVGID_2_)" fill="#FFFFFF" d="M182.672,324.404c-1.344,18.549-1.055,37.079,6.117,54.538
			c3.162,7.698,7.139,15.913,12.108,22.626c4.733,6.395,9.964,13.175,15.786,18.604c6.866,6.401,13.122,13.943,20.87,19.292
			c6.973,4.812,14.055,8.751,21.874,12.021c8.539,3.572,17.414,7.354,26.535,9.158c8.389,1.66,17.101,2.567,25.635,2.805
			c18.571,0.52,37.071,2.959,55.701,1.727c17.815-1.179,35.836-5.737,52.5-12.027c8.095-3.056,15.563-6.551,22.857-11.196
			c3.87-2.464,7.769-4.893,11.673-7.304c3.919-2.419,8.213-4.088,12.158-6.45c7.421-4.444,15.17-8.857,22.009-14.141
			c7.06-5.453,14.785-9.818,21.673-15.545c7.07-5.88,14.044-12.175,20.143-19.07c5.881-6.648,11.064-13.912,16.732-20.743
			c10.985-13.241,18.707-30.509,21.445-47.469c1.397-8.662,1.931-17.416,2.494-26.162c0.567-8.797,1.139-18.31,0.224-27.091
			c-0.875-8.396-4.119-17.736-7.481-25.471c-3.372-7.754-9.222-14.634-15.156-20.579c-12.89-12.909-29.305-21.757-44.694-31.162
			c-15.957-9.752-31.742-18.053-50.435-21.042c-9.334-1.493-18.75-1.956-28.185-2.262c-10.073-0.326-20.15-1.245-30.225-1.332
			c-19.296-0.167-37.58,6.944-55.986,11.847c-8.78,2.339-16.544,4.942-24.729,8.863c-7.655,3.667-15.173,6.42-21.767,11.966
			c-13.565,11.409-25.237,25.073-38.527,36.791c-13.449,11.859-25.58,25.941-35.077,41.159c-4.781,7.661-9.516,15.351-14.315,23.001
			c-4.717,7.518-10.56,14.496-14.57,22.424c-3.309,6.544-6.027,14.037-5.077,21.469c0.816,6.385,10.975,6.439,10.125,0
			c-0.957-7.244,2.171-14.329,5.833-20.424c4.265-7.101,9.337-13.727,13.701-20.786c9.16-14.815,17.695-29.567,29.345-42.587
			c5.659-6.323,11.107-12.392,17.45-18.047c6.167-5.498,11.516-11.805,17.728-17.253c6.111-5.359,11.584-11.351,17.551-16.855
			c5.993-5.527,12.749-8.4,20.092-11.659c3.669-1.628,7.143-3.748,10.909-5.149c4.464-1.66,9.239-2.589,13.837-3.812
			c8.585-2.284,17.062-4.951,25.651-7.223c8.886-2.351,17.629-4.303,26.869-4.297c9.078,0.006,18.149,0.913,27.221,1.216
			c17.728,0.591,35.171,1.481,51.875,8.041c8.327,3.271,16.059,7.946,23.597,12.714c7.176,4.538,14.709,8.302,21.658,13.217
			c13.641,9.649,29.772,20.104,36.527,36.154c1.458,3.465,2.351,7.112,3.42,10.706c1.356,4.563,3.015,8.907,3.079,13.727
			c0.106,8.192-0.026,16.462-0.583,24.634c-1.183,17.358-3.09,33.444-11.073,49.143c-3.896,7.66-8.259,14.121-13.662,20.769
			c-5.127,6.308-9.807,12.992-15.431,18.883c-5.999,6.281-12.506,12.201-19.25,17.67c-6.438,5.221-13.654,9.316-20.245,14.338
			c-6.313,4.811-13.741,9.052-20.611,13.056c-7.233,4.219-14.563,8.029-21.66,12.54c-14.286,9.082-29.697,14.433-46.025,18.738
			c-16.815,4.433-33.815,4.434-51.068,4.443c-8.575,0.005-17.046-1.274-25.606-1.629c-3.943-0.164-7.96-0.012-11.89-0.395
			c-4.203-0.409-8.383-1.411-12.581-1.947c-8.569-1.094-17.108-4.552-25.036-7.881c-7.601-3.191-14.434-6.827-21.308-11.356
			c-7.553-4.978-13.448-12.004-20.033-18.148c-5.735-5.352-10.49-11.561-15.42-17.647c-4.769-5.888-8.6-13.489-11.83-20.312
			c-3.595-7.593-6.19-15.597-7.531-23.897c-1.486-9.194-1.754-18.648-2.434-27.928C187.914,320.871,182.929,320.862,182.672,324.404
			"/>
		<path clip-path="url(#SVGID_2_)" fill="#FFFFFF" d="M318.938,243.006c-1.816,0.649-2.764,1.847-3.973,3.3
			c-2.588,3.107-5.351,6.086-7.987,9.16c-4.856,5.664-9.848,10.944-12.951,17.81c-5.975,13.22-7.894,29.683-3.858,43.785
			c4.111,14.366,15.035,25.651,28.332,32.066c13.842,6.678,30.64,6.375,45.387,3.173c7.869-1.708,15.165-4.755,22.476-8.05
			c7.185-3.238,14.869-5.981,21.788-9.722c6.155-3.327,12.928-7.165,17.708-12.367c5.132-5.587,9.783-12.568,13.078-19.385
			c6.845-14.158,6.876-31.56,0.409-45.833c-5.956-13.148-18.115-22.47-30.629-28.97c-8.334-4.328-17.835-4.022-26.948-5.231
			c-8.708-1.156-17.129,0.643-25.711,1.977c-4.621,0.719-8.829,1.696-13.18,3.414c-3.768,1.488-7.732,2.2-11.475,3.773
			c-7.241,3.043-15.701,6.732-21.361,12.282c-1.138,1.116-1.911,3.239-1.269,4.802c0.127,0.308,0.253,0.616,0.38,0.925
			c2.384,5.806,11.956,3.24,9.522-2.625c-0.128-0.308-0.256-0.616-0.383-0.924c-0.423,1.6-0.846,3.201-1.27,4.802
			c4.034-3.983,9.983-6.288,15.02-8.813c5.577-2.796,12.343-4.884,18.358-6.661c6.363-1.879,13.593-2.798,20.175-3.421
			c6.694-0.633,13.254,0.585,19.904,1.231c7.201,0.701,12.651,2.572,18.915,6.008c5.294,2.904,10.33,7.678,14.553,11.984
			c9.283,9.466,11.568,24.463,9.124,37.074c-2.351,12.123-11.47,25.608-21.95,32.116c-10.883,6.757-22.872,11.726-34.596,16.905
			c-23.807,10.518-55.636,10.639-72.239-12.386c-8.241-11.428-9.181-28.197-5.837-41.552c1.905-7.607,5.458-13.88,10.063-20.119
			c2.139-2.897,4.296-5.782,6.42-8.69c1.037-1.42,2.131-2.814,3.025-4.332c0.712-1.209,1.212-3.165,2.498-3.909
			C322.333,245.52,321.09,242.238,318.938,243.006"/>
		<path clip-path="url(#SVGID_2_)" fill="#FFFFFF" d="M495.799,355.945c-2.537,0.964-4.62,4.487-6.454,6.405
			c-3.601,3.765-6.368,8.145-10.146,11.784c-3.075,2.963-5.524,6.454-8.969,9.021c-1.313,0.979-2.683,1.941-4.078,2.798
			c-0.499,0.307-1.713,0.783-2.04,1.151c-1.16,0.159-1.261,0.34-0.3,0.542c0.812,0.529,1.028,0.2,0.652-0.986
			c1.271-3.161,0.285-8.829,0.266-12.146c-0.03-4.816-0.068-9.932-1.194-14.645c-0.669-2.801-2.046-5.466-4.98-6.355
			c-1.544-0.469-3.44-0.266-5.018-0.414c-3.394-0.321-5.318-1.104-8.075-3.02c-3.615-2.511-7.746-4.063-11.292-6.718
			c-4.539-3.398-8.537-7.545-12.772-11.304c-3.712-3.295-7.923-6.239-11.28-9.911c-0.664-0.727-5.014-6.415-3.648-7.542
			c0.024-0.019,4.462,3.013,4.891,3.353c1.636,1.291,3.214,2.699,4.786,4.069c3.495,3.045,6.535,6.506,10.477,9.013
			c4.373,2.783,9.174,4.867,13.628,7.516c4.036,2.398,7.757,5.332,12.124,7.138c4.825,1.997,9.514,1.56,14.39-0.074
			c4.125-1.382,13.309-6.354,17.398-3.77c1.39,0.879,1.972,3.421,2.704,4.838c0.792,1.534,2.708,3.15,3.301,4.662
			c1.119,2.849-2.968,5.579-0.481,9.339c2.912,4.404,10.03,0.313,7.124-4.164c1.137,1.752,2.077-1.39,2.359-2.878
			c0.408-2.148-0.126-4.207-1.296-6.022c-1.067-1.656-2.561-2.895-3.517-4.646c-1.086-1.991-1.718-4.116-3.138-5.926
			c-7.231-9.225-20.478-0.686-29.072,1.322c-6.21,1.452-10.751-2.5-15.738-5.632c-5.502-3.456-11.761-5.696-17.137-9.317
			c-6.928-4.667-14.702-16.979-24.164-15.792c-8.122,1.018-6.739,10.229-3.74,15.46c2.251,3.927,5.781,6.826,9.198,9.693
			c5.179,4.345,10.149,8.935,15.346,13.257c4.054,3.372,8.187,5.741,12.838,8.169c5.344,2.789,8.572,5.205,14.785,5.881
			c0.629,0.067,2.919-0.116,3.29,0.287c-0.371-0.404-0.35,3.542-0.311,3.859c0.397,3.135,0.537,6.22,0.548,9.381
			c0.015,4.938-0.738,10.527,0.026,15.41c1.746,11.138,13.729,3.074,18.262-1.129c4.125-3.824,7.896-9.103,10.984-13.798
			c1.917-2.917,3.294-6.147,5.193-9.066c0.706-1.086,1.603-2.038,2.304-3.121c0.613-0.946,1.826-3.946,2.614-4.431
			C497.23,357.009,496.727,355.593,495.799,355.945"/>
		<path clip-path="url(#SVGID_2_)" fill="#FFFFFF" d="M399.885,226.792c5.011,0.57,10.055,1.389,14.84,3.018
			c5.211,1.776,9.323,4.82,14.117,7.367c4.36,2.316,7.977,3.98,11.383,7.717c3.353,3.678,6.538,7.629,9.084,11.923
			c5.143,8.674,4.466,18.952,4.532,28.616c0.07,10.211-0.058,21.388-3.325,31.186c-1.533,4.597-3.662,7.979-7.479,10.83
			c-3.963,2.96-7.262,6.743-10.794,10.186c-6.743,6.574-15.173,11.858-24.221,14.637c-4.381,1.345-9.327,1.93-13.835,2.922
			c-5.181,1.14-10.713,2.209-15.98,2.81c-10.079,1.15-19.54,2.747-29.554,0.321c-5.667-1.373-11.181-2.18-16.444-4.862
			c-4.424-2.253-9.162-4.625-13.348-7.282c-3.511-2.229-6.888-5.377-10.037-8.104c-3.714-3.218-6.414-6.621-7.229-11.58
			c-0.469-2.855-5.151-2.178-5.033,0.682c0.375,9.079,7.586,14.028,13.989,19.35c3.579,2.975,6.962,5.08,11.066,7.269
			c4.841,2.581,9.335,5.616,14.601,7.332c10.205,3.325,21.239,5.1,31.903,3.611c5.468-0.763,10.987-1.122,16.406-2.195
			c6.594-1.305,13.331-3.048,19.971-3.894c9.468-1.207,18.932-6.902,26.233-12.84c4.631-3.767,8.272-8.601,12.716-12.569
			c3.398-3.034,6.381-4.562,8.666-8.592c5.365-9.46,6.666-21.919,6.761-32.645c0.094-10.867,0.895-22.454-3.431-32.682
			c-2.103-4.972-6.001-9.159-9.61-13.087c-3.896-4.238-7.23-7.798-12.481-10.286c-4.975-2.357-9.492-5.678-14.63-7.668
			c-6.097-2.362-12.375-2.817-18.836-2.239C399.399,226.084,399.407,226.738,399.885,226.792"/>
		<path clip-path="url(#SVGID_2_)" fill="#FFFFFF" d="M488.512,233.31c3.172,0.94,5.962,6.506,7.594,9.181
			c1.729,2.831,3.297,5.677,5.306,8.33c3.96,5.235,10.258,10.459,12.439,16.711c1.993,5.711,5.263,11.033,6.772,16.961
			c1.79,7.031,1.604,15.297,1.208,22.507c-0.427,7.711-3.061,15.433-5.683,22.646c-2.849,7.838-6.396,14.578-11.538,21.099
			c-7.934,10.062-16.393,19.299-25.989,27.737c-4.693,4.128-8.958,8.731-13.792,12.699c-5.426,4.452-11.466,6.505-17.684,9.485
			c-7.209,3.455-14.909,4.961-22.429,7.567c-7.194,2.492-14.123,4.722-21.761,5.34c-7.179,0.582-13.914,1.151-20.92,2.912
			c-7.725,1.938-15.554,2.936-23.509,3.239c-15.064,0.575-30.16-0.794-44.76-4.613c-8.045-2.106-15.95-4.938-23.441-8.557
			c-6.947-3.356-15.139-7.46-20.082-13.522c-4.933-6.052-10.503-11.055-14.169-18.104c-1.968-3.785-3.741-7.7-5.542-11.566
			c-2.084-4.471-4.838-9.044-5.472-13.999c-0.52-4.063-6.941-4.199-6.5,0c0.808,7.689,4.78,14.73,8.078,21.615
			c3.55,7.413,7.111,14.652,13.048,20.489c2.306,2.268,4.218,4.728,6.337,7.146c2.484,2.837,5.841,5.009,8.961,7.082
			c6.685,4.442,13.891,7.983,21.334,10.964c14.926,5.975,30.899,9.311,46.947,10.158c8.749,0.461,17.602,0.236,26.299-0.831
			c8.335-1.023,16.346-3.957,24.664-4.761c7.919-0.764,15.661-0.944,23.345-3.249c8.01-2.401,16.125-5.024,24.024-7.762
			c3.356-1.164,6.412-2.8,9.586-4.363c3.578-1.763,7.322-2.979,10.739-5.081c5.741-3.529,10.53-8.357,15.281-13.076
			c2.489-2.475,5.009-4.901,7.646-7.218c2.959-2.597,5.108-5.863,8.049-8.454c5.126-4.514,9.058-10.13,13.267-15.522
			c5.221-6.691,9.146-12.968,12.434-20.835c3.004-7.189,5.416-14.922,6.782-22.602c1.443-8.113,1.179-17.722-0.195-25.85
			c-1.308-7.734-5.384-14.64-8.221-21.807c-2.59-6.545-9.353-11.923-13.873-17.13c-2.803-3.228-5.048-6.889-7.78-10.183
			c-1.827-2.204-3.589-5.063-6.567-5.629C488.198,232.361,487.965,233.147,488.512,233.31"/>
		<path clip-path="url(#SVGID_2_)" fill="#FFFFFF" d="M181.886,357.223c2.967,9.467,3,19.472,5.471,29.037
			c2.175,8.419,6.813,17.111,12.6,23.579c7.355,8.22,15.824,15.44,24.001,22.816c7.485,6.752,15.166,14.385,23.59,19.935
			c7.736,5.098,16.427,7.694,24.598,11.698c4.006,1.963,8.161,2.427,12.444,3.518c5.147,1.312,10.068,3.435,15.239,4.743
			c19.452,4.928,40.304,7.109,60.266,4.331c11.168-1.554,21.938-4.954,33.052-6.82c10.723-1.803,21.229-3.643,31.333-7.813
			c9.826-4.055,19.87-6.714,29.926-10.089c10.283-3.451,19.455-8.354,28.553-14.213c8.405-5.415,15.589-11.433,22.948-18.157
			c7.698-7.036,15.922-13.486,23.399-20.765c7.369-7.172,14.483-15.333,20.571-23.629c5.948-8.105,11.932-17.071,16.596-25.985
			c5.095-9.739,7.727-21.148,11.045-31.593c3.712-11.687,6.272-23.348,5.405-35.67c-0.396-5.64-0.966-11.371-1.944-16.943
			c-0.932-5.316-3.098-9.674-5.555-14.407c-2.684-5.171-5.461-10.183-8.908-14.896c-3.141-4.294-7.615-7.979-9.633-12.98
			c-1.281-3.176-6.469-1.881-5.243,1.446c2.971,8.059,10.164,14.031,14.535,21.374c5.155,8.659,8.752,16.935,9.853,26.993
			c1.228,11.2,1.394,21.674-1.364,32.684c-2.422,9.664-5.99,18.981-8.915,28.493c-3,9.755-7.668,17.345-13.097,25.893
			c-5.419,8.531-11.131,16.259-17.735,23.901c-6.806,7.874-14.093,14.887-21.932,21.725c-7.084,6.18-13.667,13.047-20.921,19.001
			c-7.89,6.477-17.012,12.448-26.113,17.065c-9.444,4.791-19.661,7.389-29.702,10.563c-9.424,2.978-18.126,7.563-27.813,9.807
			c-10.117,2.342-20.498,3.29-30.596,5.739c-20.169,4.893-40.567,5.784-61.145,2.923c-9.999-1.392-19.448-4.446-29.072-7.277
			c-4.592-1.351-9.013-1.737-13.328-3.96c-3.725-1.919-7.713-3.169-11.463-5.109c-4.834-2.501-9.843-4.959-14.111-8.38
			c-4.115-3.298-7.816-7.184-11.832-10.617c-8.813-7.537-17.435-15.342-25.877-23.292c-8.084-7.614-15.108-16.244-18.249-27.122
			c-2.795-9.679-2.987-19.794-7.678-28.895C184.179,354.118,181.293,355.331,181.886,357.223"/>
		<path clip-path="url(#SVGID_2_)" fill="#FFFFFF" d="M352.74,363.39c-5.687-0.079-11.993-0.302-16.377,3.967
			c-3.138,3.054-7.046,8.369-7.81,12.714c-1.862,10.598,9.572,15.828,18.536,16.463c4.315,0.305,9.167,0.914,12.689-2.133
			c3.632-3.143,5.244-9.351,6.347-13.825c2.736-11.088-7.776-18.901-18.007-19.078c-3.423-0.06-3.416,5.218,0,5.313
			c3.755,0.104,7.928,1.769,10.645,4.423c3.083,3.011,2.378,6.633,1.236,10.383c-0.847,2.782-1.619,7.649-4.419,9.272
			c-2.368,1.372-6.528,0.614-9.086,0.377c-4.862-0.449-7.938-1.628-11.617-4.692c-0.778-0.647-2.008-1.073-2.507-2.003
			c-0.671-1.253,0.018-3.829,0.423-5.051c0.976-2.938,3.917-7.353,6.146-9.588c3.555-3.564,9.188-3.152,13.801-3.166
			C354.914,366.759,354.915,363.42,352.74,363.39"/>
		<path clip-path="url(#SVGID_2_)" fill="#FFFFFF" d="M296.352,349.681c-4.265-0.416-8.587,2.669-11.911,5.003
			c-4.093,2.875-6.174,7.371-6.545,12.302c-0.892,11.847,10.574,19.055,21.449,18.197c9.738-0.77,22.503-11.521,22.099-21.988
			c-0.175-4.543-3.511-9.333-7.113-11.912c-4.72-3.378-11.68-1.966-17.055-1.378c-3.989,0.436-4.125,6.044,0,6.312
			c5.921,0.386,15.999-2.054,16.639,6.979c0.447,6.313-8.787,13.353-14.112,14.741c-7.145,1.861-16.275-2.113-16.399-10.242
			c-0.09-5.843,6.556-14.667,12.948-14.95C298.35,352.655,298.291,349.87,296.352,349.681"/>
		<path clip-path="url(#SVGID_2_)" fill="#FFFFFF" d="M272.317,320.662c-2.613,0.113-4.619,1.971-6.781,3.329
			c-3.183,2.002-6.266,4.139-9.475,6.098c-3.876,2.364-7.935,5.516-7.815,10.568c0.124,5.251,4.993,7.106,9.289,8.427
			c6.619,2.032,12.104,1.892,18.517-0.764c8.594-3.559,21.119-10.738,19.144-21.888c-1.919-10.834-14.205-13.468-22.338-7.033
			c-2.782,2.201,0.925,7.07,3.825,4.957c1.967-1.433,5.986-2.355,8.333-1.416c3.158,1.265,3.713,5.676,2.299,8.491
			c-2.605,5.188-9.44,8.444-14.484,10.761c-4.09,1.879-7.552,2.255-12.008,1.438c-3.779-0.694-9.876-1.591-5.981-6.765
			c1.691-2.244,4.694-3.699,6.91-5.394c3.688-2.82,7.079-6.659,11.054-9.005C273.608,321.994,273.298,320.619,272.317,320.662"/>
		<path clip-path="url(#SVGID_2_)" fill="#FFFFFF" d="M274.361,278.379c-5.018,3.955-10.216,7.535-15.011,11.826
			c-3.088,2.764-4.827,5.749-5.117,9.965c-0.565,8.202,9.698,9.817,15.939,8.11c10.16-2.781,20-9.263,20.759-20.556
			c0.313-4.659,0.137-9.222-3.701-12.405c-3.469-2.876-7.626-3.178-11.553-1.143c-2.863,1.484-0.339,5.765,2.524,4.318
			c5.362-2.711,7.497,3.218,7.265,7.229c-0.23,3.969-1.241,7.459-4.067,10.423c-2.014,2.112-4.555,3.051-7.118,4.289
			c-2.895,1.398-5.501,3.171-8.786,3.342c-2.03,0.106-5.836,0.141-6.926-1.987c-1.49-2.909,1.49-7.196,3.278-9.088
			c4.388-4.645,9.304-8.565,13.972-12.865C276.819,278.917,275.376,277.579,274.361,278.379"/>
		<path clip-path="url(#SVGID_2_)" fill="#FFFFFF" d="M303.946,239.56c-4.095-1.004-7.009-0.055-10.76,1.743
			c-3.957,1.898-8.986,3.532-11.61,7.292c-5.364,7.685,2.18,14.449,9.679,14.942c9.273,0.609,18.278-5.271,23.053-12.982
			c5.662-9.143-4.401-13.536-12.41-12.959c-3.411,0.245-3.5,5.402,0,5.375c1.089-0.009,7.198,0.432,7.825,1.921
			c0.597,1.418-2.345,4.367-3.113,5.212c-3.511,3.862-8.515,7.297-13.863,7.688c-2.703,0.198-6.002-0.038-7.083-2.826
			c-1.37-3.534,2.33-5.579,4.989-7.167c4.497-2.683,8.165-5.47,13.293-6.793C304.654,240.824,304.667,239.737,303.946,239.56"/>
		<path clip-path="url(#SVGID_2_)" fill="#FFFFFF" d="M348.119,214.23c-4.422-0.504-6.948,0.292-10.889,2.23
			c-2.617,1.288-6.876,2.29-8.752,4.73c-1.571,2.044-1.736,5.287-0.067,7.331c2.037,2.496,6.203,2.441,9.097,2.335
			c4.149-0.151,6.728-2.714,10.476-4.074c2.804-1.018,6.487-1.206,8.02-4.206c0.98-1.917,0.862-5.54-0.057-7.496
			c-1.334-2.841-4.286-2.301-6.904-1.975c-2.745,0.342-2.937,4.497,0,4.438c0.627-0.007,1.253-0.029,1.878-0.066
			c0.153-1.492,0.196-1.614,0.129-0.367c0.136,1.944,0.013,2.496-1.577,3.36c-2.848,1.546-5.936,2.46-8.798,4.165
			c-1.216,0.723-5.208,2.207-6.697,1.202c-3.535-2.384,0.412-3.358,1.762-4.11c4.238-2.361,7.366-4.839,12.379-5.309
			C349.535,216.285,349.513,214.389,348.119,214.23"/>
		<path clip-path="url(#SVGID_2_)" fill="#FFFFFF" d="M407.281,201.195c-3.3-0.226-6.573,0.246-9.885,0.143
			c-2.463-0.077-4.89-0.12-7.337,0.239c-5.181,0.759-9.751,3.848-14.071,6.631c-3.148,2.028-6.12,4.586-4.751,8.746
			c1.349,4.096,6.375,6.164,10.166,7.071c4.46,1.067,10.896,1.991,15.302,0.532c2.212-0.732,3.909-2.315,5.809-3.587
			c2.202-1.475,4.613-2.598,6.77-4.145c2.947-2.113,5.998-5.232,4.477-9.155c-1.315-3.39-5.256-5.189-8.456-6.332
			c-3.284-1.173-5.127,3.757-2.311,5.484c0.842,0.517,1.746,0.93,2.579,1.461c1.411,0.899,1.712,0.815,1.295,1.953
			c-0.67,1.828-6.138,3.874-7.712,4.989c-2.746,1.946-3.997,3.294-7.54,3.391c-3.329,0.091-6.905,0.018-10.108-0.944
			c-0.888-0.267-3.055-0.644-3.557-1.563c-1.238-2.262,1.011-2.927,2.342-3.853c2.861-1.991,5.695-4.399,9.002-5.614
			c3.056-1.123,6.281-1.188,9.479-1.452c3.01-0.248,5.874-1.041,8.823-1.662C408.972,203.237,408.553,201.282,407.281,201.195"/>
		<path clip-path="url(#SVGID_2_)" fill="#FFFFFF" d="M445.414,215.404c-1.482-0.271-2.534-1.415-4.085-1.714
			c-2.265-0.435-5.124-0.278-7.38,0.045c-4.567,0.652-8.626,2.427-12.231,5.271c-7.776,6.136-2.263,13.963,5.636,16.298
			c5.029,1.486,10.484,1.103,15.48-0.267c4.701-1.288,10.305-2.454,13.721-6.225c2.62-2.893,3.466-6.893,2.301-10.612
			c-0.559-1.786-1.66-3.49-3.037-4.75c-0.552-0.504-4.105-2.257-4.019-2.067c-1.001-2.18-4.279-0.974-4.31,1.167
			c-0.004,0.248-0.007,0.497-0.01,0.745c-0.016,1.147,0.791,2.035,1.821,2.392c2.825,0.981,4.713,3.617,3.866,6.666
			c-0.817,2.953-3.704,3.905-6.315,4.803c-5.649,1.941-11.896,3.957-17.86,2.2c-2.202-0.649-6.313-2.107-4.578-5.052
			c0.982-1.667,3.46-3.033,5.101-4.054c2.635-1.638,5.447-2.744,8.506-3.249c2.556-0.423,4.719,0.4,7.159,0.122
			C446.07,217.021,446.473,215.599,445.414,215.404"/>
		<path clip-path="url(#SVGID_2_)" fill="#FFFFFF" d="M476.611,240.444c-5.716-0.294-11.613-0.184-17.275,0.777
			c-3.774,0.641-6.417,2.412-6.839,6.375c-0.453,4.238-0.071,8.206,3.23,11.108c3.445,3.029,9.171,5.175,13.627,5.994
			c7.817,1.437,18.578-2.224,21.141-10.488c1.078-3.479,1.19-8.64-1.566-11.411c-3.126-3.14-10.932-3.94-15.09-4.154
			c-2.894-0.15-3.473,4.337-0.682,5.033c3.011,0.751,6.643,1.125,9.484,2.35c2.819,1.215,2.5,3.994,1.09,6.561
			c-2.458,4.475-8.728,6.058-13.475,5.445c-4.751-0.614-14.464-3.262-12.519-9.836c0.806-2.72,4.371-2.6,6.605-2.987
			c4.101-0.71,8.115-1.142,12.268-1.392C478.776,243.689,478.79,240.556,476.611,240.444"/>
		<path clip-path="url(#SVGID_2_)" fill="#FFFFFF" d="M408.205,358.197c-3.876-0.43-9.207,0.65-12.818,2.129
			c-4,1.638-6.898,5.552-7.92,9.743c-2.845,11.654,12.532,15.862,21.019,15.144c9.055-0.768,20.352-7.454,20.914-17.497
			c0.682-12.167-15.046-11.634-23.352-11.046c-2.467,0.175-2.504,4.012,0,3.875c5.296-0.29,19.432-1.217,17.262,7.841
			c-1.538,6.42-10.487,10.438-16.449,10.39c-2.821-0.022-7.678-0.562-10.172-2.184c-3.801-2.472-3.628-7.433-0.916-10.573
			c2.713-3.144,8.705-4.881,12.623-6.409C409.166,359.308,409.025,358.288,408.205,358.197"/>
		<path clip-path="url(#SVGID_2_)" fill="#FFFFFF" d="M454.738,256.56c-1.81-4.018-9.781-9.044-7.18-14.435
			c0.799-1.658,3.942-3.727,5.376-4.886c2.813-2.274,5.583-3.874,9.065-4.873c6.189-1.775,11.707-1.354,17.642,0.947
			c3.486,1.353,6.044,2.736,8.343,5.742c2.995,3.918,1.569,6.707-0.455,10.83c-1.319,2.688,2.649,5.06,4.048,2.366
			c1.689-3.254,4.185-7.785,2.843-11.541c-1.043-2.923-4.199-6.391-6.592-8.258c-7.198-5.619-17.583-6.559-26.093-4.229
			c-6.653,1.821-16.676,6.129-19.348,13.129c-2.594,6.792,5.125,15.195,11.539,16.264
			C454.571,257.722,455.004,257.151,454.738,256.56"/>
		<path clip-path="url(#SVGID_2_)" fill="#FFFFFF" d="M419.407,227.949c-2.124-0.984-3.359-2.91-4.187-5.039
			c-1.093-2.809-0.522-4.026,1.205-6.153c2.438-3.003,7.203-5.618,10.911-6.599c3.765-0.995,8.727-2.501,12.538-2.255
			c4.22,0.272,11.466,3.14,9.862,8.264c-1.013,3.239,4.012,4.59,5.063,1.396c2.418-7.343-2.881-11.426-9.33-13.934
			c-3.271-1.271-6.441-1.507-9.863-0.825c-4.019,0.8-8.588,1.77-12.392,3.311c-4.809,1.949-12.352,6.503-13.262,12.26
			c-0.814,5.156,3.353,11.065,8.346,12.201C419.805,230.919,420.955,228.666,419.407,227.949"/>
		<path clip-path="url(#SVGID_2_)" fill="#FFFFFF" d="M379.664,219.642c-2.314-0.642-5.406-0.938-7.161-2.783
			c-2.393-2.516-1.949-6.098,0.175-8.522c2.8-3.195,7.15-5.073,11.054-6.418c5.61-1.931,25.614-5.801,22.806,4.987
			c-0.875,3.363,4.134,4.716,5.183,1.429c2.308-7.235-0.992-12.344-8.398-13.739c-8.634-1.625-16.903,0.157-24.805,3.732
			c-5.892,2.666-13.012,7.487-12.531,14.786c0.482,7.32,6.956,10.538,13.677,9.602C381.295,222.488,381.062,220.03,379.664,219.642"
			/>
		<path clip-path="url(#SVGID_2_)" fill="#FFFFFF" d="M332.397,227.29c-1.665,0.943-3.968,0.968-5.851,0.771
			c-4.878-0.513-4.748-2.885-2.858-6.394c2.697-5.009,6.871-6.54,11.94-8.482c4.127-1.58,8.447-3.401,12.953-3.336
			c2.68,0.039,6.198,0.711,7.993,2.976c2.205,2.783-0.246,5.924-2.059,7.973c-2.303,2.603,1.436,6.418,3.845,3.845
			c5.991-6.4,6.527-14.518-2.006-18.8c-8.763-4.397-20.449,0.783-28.627,4.349c-5.927,2.584-15.257,12.015-10.724,19.216
			c2.224,3.532,5.921,4.113,9.693,3.703c3.093-0.337,7.096-0.49,8.409-3.738C335.739,227.804,333.678,226.564,332.397,227.29"/>
		<path clip-path="url(#SVGID_2_)" fill="#FFFFFF" d="M315.121,240.923c1.768-6.673-4.804-10.77-10.799-10.364
			c-4.247,0.288-6.611,2.384-10.131,4.516c-4.02,2.436-8.565,3.976-12.64,6.39c-6.278,3.72-10.131,10.746-7.597,18.14
			c2.386,6.965,9.928,6.663,15.927,5.926c4.376-0.538,3.624-6.626-0.814-6.016c-3.419,0.471-8.353,1.422-9.477-2.93
			c-1.525-5.907,3.42-9.477,7.623-12.286c3.229-2.158,6.786-3.727,9.869-6.067c2.106-1.599,4.121-3.248,6.739-3.864
			c3.73-0.878,9.738,1.003,8.889,5.89C312.439,241.814,314.702,242.507,315.121,240.923"/>
		<path clip-path="url(#SVGID_2_)" fill="#FFFFFF" d="M290.242,282.289c1.848-5.363,1.163-10.572-3.938-13.785
			c-5.979-3.765-12.797-0.18-18.427,2.451c-2.994,1.399-6.587,2.69-8.94,5.094c-2.66,2.715-4.527,6.831-6.585,10.028
			c-3.553,5.521-5.315,12.217-0.403,17.404c2.744,2.898,7.114-1.483,4.375-4.375c-3.792-4.005,0.897-9.984,3.001-13.708
			c1.155-2.046,2.017-4.392,3.655-6.098c1.572-1.637,3.885-2.586,5.831-3.747c3.719-2.219,8.729-5.862,13.138-6.138
			c7.341-0.459,8.302,7.208,7.556,12.774C289.446,282.629,290.113,282.664,290.242,282.289"/>
		<path clip-path="url(#SVGID_2_)" fill="#FFFFFF" d="M249.375,344.093c0.068,0.013,0.135,0.025,0.203,0.037
			c3.022,0.558,4.657-2.578,2.851-4.896c-1.558-1.998-3.671-3.188-4.022-5.821c-0.349-2.617,1.158-4.962,2.584-7.082
			c3.034-4.512,6.889-7.621,11.723-10.046c3.75-1.881,7.838-5.151,11.865-6.144c2.4-0.592,5.265-0.231,7.631,0.461
			c4.61,1.349,5.658,3.866,5.671,8.255c0.007,2.576,3.953,2.575,4,0c0.143-7.995-2.742-11.722-10.618-13.774
			c-8.147-2.122-14.042,1.864-21.285,5.018c-11.966,5.21-29.1,24.896-11.1,33.734v-5.059c-0.061,0.04-0.121,0.079-0.182,0.119
			C246.828,340.121,246.809,343.622,249.375,344.093"/>
		<path clip-path="url(#SVGID_2_)" fill="#FFFFFF" d="M284.419,377.833c-5.578-3.156-8.03-10.539-7.181-16.514
			c0.422-2.978,1.326-6.18,3.122-8.634c1.659-2.267,4.289-3.778,6.38-5.649c4.686-4.192,8.576-7.071,15.088-4.723
			c2.97,1.07,6.684,2.417,9.141,4.444c4.344,3.585,2.99,7.871,1.152,12.417c-1.057,2.613,3.332,4.462,4.569,1.927
			c4.585-9.4,0.937-16.577-8.043-20.894c-7.93-3.811-15.567-6.304-23.173-0.352c-3.376,2.641-7.77,5.318-10.309,8.8
			c-2.504,3.434-3.833,8.041-3.944,12.252c-0.198,7.533,3.98,17.86,11.657,20.58C285.035,382.253,286.365,378.935,284.419,377.833"
			/>
		<path clip-path="url(#SVGID_2_)" fill="#FFFFFF" d="M336.55,388.434c-6.748-3.584-8.791-11.122-7.268-18.2
			c0.782-3.636,2.205-6.38,5.942-7.516c3.145-0.956,6.876-1.473,10.121-1.374c2.337,0.07,2.326-3.528,0-3.625
			c-4.382-0.182-10.011,0.401-13.955,2.456c-4.177,2.175-6.05,6.984-7.094,11.332c-1.191,4.963-0.815,9.98,2.404,14.146
			c2.086,2.7,5.92,6.032,9.492,5.523C337.489,390.99,337.613,388.998,336.55,388.434"/>
		<path clip-path="url(#SVGID_2_)" fill="#FFFFFF" d="M362.909,364.595c8.63-0.123-1.045,15.617-1.999,19.089
			c-1.061,3.868,4.408,5.12,5.846,1.612c2.146-5.234,5.993-13.104,3.619-18.795c-1.38-3.308-5.033-6.001-7.996-3.186
			C361.908,363.762,362.267,364.605,362.909,364.595"/>
		<path clip-path="url(#SVGID_2_)" fill="#FFFFFF" d="M390.909,376.905c-0.635-3.814-6.48-3.432-7.361-7.801
			c-1.224-6.074,6.095-9.404,10.695-10.778c5.269-1.573,10.799-1.996,16.286-2.155c4.211-0.122,18.531,0.842,13.763,8.429
			c-1.925,3.063,2.798,5.726,4.803,2.807c4.279-6.227,0.173-12.912-6.181-15.228c-8.335-3.038-19.35-2.311-27.82-0.13
			c-6.883,1.771-15.266,5.119-17.055,12.891c-0.678,2.94-0.29,6.254,1.46,8.745c0.934,1.332,2.23,2.357,3.635,3.171
			c1.238,0.718,3.693,0.935,4.641,1.874C389.201,380.143,391.201,378.661,390.909,376.905"/>
		<path clip-path="url(#SVGID_2_)" fill="#FFFFFF" d="M633.76,82.839c-3.683-0.301-7.222-3.469-10.565-4.825
			c-3.844-1.56-8.053-2.994-12.163-3.592c-7.667-1.115-15.448-2.983-22.283,1.888c-5.282,3.763-6.716,11.963-8.458,17.786
			c-2.753,9.207-5.966,17.767-7.443,27.344c-1.458,9.446-3.232,18.857-4.641,28.301c-0.603,4.051-0.763,8.152-1.438,12.176
			c-0.583,3.473-1.606,7.581,1.558,10.167c2.309,1.887,5.967,2.201,8.829,2.58c4.979,0.66,9.182,0.88,13.619,3.558
			c6.36,3.84,11.2,10.619,18.354,13.181c1.011,0.362,2.313-0.236,2.819-1.147c1.741-3.132,1.107-6.149,1.202-9.604
			c0.125-4.551,0.745-9.052,0.871-13.614c0.257-9.364,3.363-18.456,5.262-27.56c1.984-9.517,3.322-19.186,5.435-28.665
			c1.072-4.809,2.211-8.981,5.755-12.555c1.488-1.501,3.208-2.783,4.648-4.327c0.12-0.128,2.146-3.17,2.236-3.192
			c3.934-0.998,2.203-6.597-1.646-5.967c-3.349,0.548-4.605,4.185-6.888,6.347c-2.787,2.641-5.657,5.323-7.289,8.868
			c-4.118,8.941-4.019,19.851-5.842,29.4c-1.815,9.5-4.443,18.929-5.688,28.515c-0.627,4.825-0.697,9.344-0.976,14.171
			c-0.148,2.584-0.687,5.128-0.812,7.719c-0.113,2.342,0.684,5.865-0.58,7.945c1.138-0.299,2.276-0.597,3.414-0.896
			c-2.318-1.063-5.591-3.976-7.535-5.673c-2.813-2.452-5.115-5.276-8.173-7.478c-2.476-1.784-5.149-3.351-8.05-4.343
			c-1.763-0.603-3.561-0.849-5.399-1.087c-1.364-0.177-4.167-1.15-5.562-0.903c-1.016-0.605-1.366-0.506-1.051,0.299
			c0.168,1.117,0.171,0.745,0.012-1.116c0.267-2.053,0.885-4.021,1.11-6.085c0.43-3.925,0.673-7.846,1.289-11.754
			c1.229-7.812,2.311-15.583,3.235-23.44c0.991-8.427,2.84-16.19,5.489-24.225c1.764-5.345,2.316-15.371,7.121-18.993
			c3.506-2.643,7.624-1.638,11.572-1.16c3.358,0.407,6.674,0.498,10.021,1.095c3.857,0.688,7.834,1.186,11.646,2.09
			c2.331,0.554,4.55,1.482,6.983,1.209C635.307,85.103,635.348,82.969,633.76,82.839"/>
		<path clip-path="url(#SVGID_2_)" fill="#FFFFFF" d="M413.796,140.447c0.451-9.011,0.205-18.035,2.038-26.92
			c1.663-8.056,4.212-15.622,7.263-23.172c3.149-7.795,6.492-16.539,12.266-22.826c2.401-2.614,4.541-5.784,7.19-8.133
			c2.276-2.018,5.337-2.721,7.32-5.148c1.24-1.516,1.469-3.58,0-5.082c-4.443-4.544-12.806-3.948-18.624-3.905
			c-7.821,0.058-17.134-1.331-24.549,1.727c-14.306,5.9-23.321,20.899-25.298,35.588c-1.109,8.233-1.683,16.505-2.579,24.754
			c-0.588,5.401-1.781,10.742-2.56,16.12c-0.602,4.158-0.594,8.181-1.519,12.195c-1.301,5.643,1.971,11.101,8.293,10.193
			c3.575-0.514,7.316-1.501,10.929-2.199c5.198-1.004,9.833-1.728,15.163-1.648c3.18,0.048,3.176-4.865,0-4.937
			c-3.359-0.077-6.626-0.249-9.967,0.228c-3.546,0.506-7.021,1.327-10.62,1.173c-1.272-0.055-2.353-0.189-3.619-0.023
			c-1.841,0.243-2.477,1.274-2.516-0.674c-0.021-1.033,1.016-2.662,1.166-3.782c0.175-1.302-0.068-2.581-0.062-3.885
			c0.031-7.257,2.276-14.583,3.038-21.792c0.733-6.928,1.185-13.906,1.844-20.848c0.584-6.15,1.256-12.559,4.456-17.983
			c3.32-5.625,8.164-10.979,13.747-14.426c6.303-3.892,13.933-2.499,21.007-2.577c3.979-0.044,13.996-1.481,17.188,1.783v-5.082
			c-2,2.446-5.564,3.369-7.867,5.695c-2.898,2.929-5.731,6.324-8.348,9.508c-5.308,6.461-8.828,14.759-11.665,22.548
			c-1.411,3.873-3.066,7.212-3.914,11.299c-0.883,4.261-1.665,8.542-2.193,12.864c-1.202,9.84,0.414,19.548,1.054,29.367
			C411.939,141.688,413.733,141.699,413.796,140.447"/>
		<path clip-path="url(#SVGID_2_)" fill="#FFFFFF" d="M424.975,70.482c0.067-0.225,0.133-0.449,0.2-0.674
			c0.213-0.716-0.255-1.613-1.008-1.774c-6.058-1.302-12.432-2.302-18.615-1.129c-3.644,0.691-6.892,1.038-10.582,1.299
			c-2.319,0.165-4.046,0.8-5.676,2.488c-1.728,1.788,0.849,4.274,2.696,2.696c2.289-1.955,5.229-1.046,7.887-1.317
			c2.723-0.277,5.311-1.279,8.005-1.707c3.015-0.478,6.174-0.569,9.191-0.1c0.181,0.028,6.078,0.715,5.903,0.479
			C423.521,71.479,424.688,71.448,424.975,70.482"/>
		<path clip-path="url(#SVGID_2_)" fill="#FFFFFF" d="M619.365,108.342c-4.25-2.751-8.084-4.903-12.985-6.47
			c-6.207-1.985-12.58-3.352-18.564-5.999c-3.126-1.383-5.056,3.101-1.83,4.341c5.765,2.217,11.709,3.203,17.729,4.443
			c5.369,1.107,9.923,3.594,15.049,5.113C619.635,110.028,620.091,108.813,619.365,108.342"/>
		<path clip-path="url(#SVGID_2_)" fill="#FFFFFF" d="M421.963,78.903c6.235,1.848,13.143,2.015,19.558,3.195
			c6.506,1.198,12.999,2.644,19.376,4.406c12.361,3.415,24.296,7.103,36.938,9.477c13.124,2.463,26.404,4.445,39.447,7.292
			c6.005,1.311,12.003,2.851,17.864,4.706c6.178,1.955,12.007,2.941,18.348,4.121c4.686,0.873,7.112-4.833,3.201-7.596
			c-2.565-1.814-5.039-2.182-8.085-2.648c-3.214-0.491-6.224-1.498-9.308-2.502c-6.096-1.987-12.322-3.681-18.605-4.965
			c-13.459-2.75-27.212-4.478-40.834-6.211c-6.916-0.881-13.861-1.74-20.676-3.241c-6.198-1.366-12.286-3.23-18.528-4.394
			c-6.442-1.201-12.997-2.067-19.519-2.703c-6.164-0.602-13.139-1.402-19.178,0.279C421.572,78.228,421.581,78.79,421.963,78.903"/>
		<path clip-path="url(#SVGID_2_)" fill="#FFFFFF" d="M615.445,117.384c0.039,0.254,0.077,0.508,0.116,0.762
			c0.2,1.307,1.467,2.194,2.6,2.599c4.731,1.694,9.47,4.446,13.585,7.287c4.748,3.28,10.138,6.432,13.989,10.771
			c3.902,4.395,7.604,8.946,10.445,14.123c1.411,2.569,2.144,5.018,2.121,7.948c-0.021,2.698-0.62,7.303-1.6,9.849
			c-0.752,1.953-2.396,3.516-3.419,5.405c-1.255,2.316-2.328,4.694-3.632,6.997c-3.091,5.455-5.389,11.394-7.786,17.18
			c-4.201,10.136-6.521,21.864-0.445,31.731c5.78,9.389,14.004,16.35,21.796,23.916c3.986,3.87,9.098,6.419,13.581,9.65
			c5.551,3.999,10.929,8.192,16.345,12.368c9.571,7.378,20.535,12.604,31.994,16.348c5.852,1.911,11.729,2.501,17.774,3.431
			c6.756,1.039,13.328,3.206,20.028,4.563c11.817,2.391,23.005,4.717,35.115,2.853c5.916-0.91,11.862-2.241,17.676-3.663
			c2.148-0.526,4.505-0.933,6.444-2.057c2.009-1.164,3.405-3.111,5.13-4.629c8.267-7.274,13.538-17.105,19.752-26.118
			c6.737-9.772,11.878-19.715,14.271-31.407c2.673-13.066,4.544-26.107,3.411-39.456c-1.14-13.419-3.004-26.651-5.643-39.848
			c-2.314-11.585-3.47-22.025-10.635-31.823c-6.427-8.791-14.244-16.628-24.429-20.703c-23.862-9.549-44.881-25.258-67.99-36.453
			c-11.635-5.636-23.166-11.542-34.995-16.764C710,47.367,698.544,41.812,686.666,39.422c-12.708-2.556-25.456-4.302-38.014-7.608
			c-13.228-3.481-26.456-7.198-39.937-9.571c-12.894-2.269-25.929-3.591-38.931-5.053c-12.989-1.459-25.816-3.926-38.782-5.46
			c-25.742-3.047-52.217-1.414-78.087-1.712c-13.751-0.158-27.05,1.263-40.696,2.684c-13.082,1.363-26.212,2.445-39.311,3.655
			c-12.868,1.189-25.647,3.609-38.365,5.853c-6.066,1.071-12.038,2.375-18.018,3.845c-5.808,1.427-11.757,2.067-17.577,3.423
			c-22.334,5.204-36.536,25.465-37.325,47.904c-0.433,12.348,1.514,24.701,1.384,37.084c-0.067,6.387-0.175,12.737,0.177,19.119
			c0.387,7.005,0.044,13.977,0.313,20.96c0.187,4.845,1.69,8.656,4.761,12.385c3.423,4.156,6.077,7.75,8.698,12.497
			c1.914,3.467,4.45,8.253,8.674,9.104c5.116,1.029,6.71-3.884,9.855-6.694c9.158-8.181,18.734-14.188,30.272-18.375
			c11.696-4.245,22.695-9.65,34.036-14.716c8.99-4.016,23.569-5.117,23.708-17.499c0.062-5.498-1.047-10.695-0.562-16.247
			c0.584-6.681,1.216-13.424,2.694-19.975c1.29-5.715,2.516-11.523,4.29-17.11c0.853-2.684,2.245-5.249,2.91-7.98
			c0.6-2.464-0.037-4.653-0.023-7.139c0.022-3.982-6.165-3.987-6.188,0c-0.01,1.764,0.404,3.442,0.172,5.187
			c-0.268,2.018-1.377,3.874-2.086,5.774c-1.231,3.297-2.13,6.704-2.978,10.115c-1.898,7.639-3.194,15.287-4.699,22.993
			c-1.414,7.248-2.395,13.942-2.475,21.323c-0.044,4.052-0.409,5.187-4.136,6.683c-3.816,1.531-7.739,2.774-11.547,4.329
			c-6.899,2.819-13.494,6.358-20.283,9.428c-7.06,3.192-14.4,5.498-21.601,8.317c-6.753,2.643-12.682,5.972-18.425,10.398
			c-2.595,2-5.222,3.924-7.887,5.826c-1.14,0.813-2.354,1.631-3.37,2.606c-0.772,0.743-1.976,3.09-2.762,3.563
			c1.294-0.169,2.588-0.339,3.882-0.508c-1.404-0.204-4.502-8.046-5.303-9.38c-2.178-3.629-5.274-6.265-7.79-9.596
			c-2.838-3.756-1.814-8.432-1.806-12.856c0.01-5.762-0.604-11.498-0.896-17.247c-0.546-10.789,0.179-21.596-0.651-32.382
			c-0.708-9.199-2.319-18.591-0.382-27.755c1.92-9.082,7.022-18.958,14.643-24.472c7.909-5.721,16.685-7.197,26.051-8.887
			c10.09-1.82,19.988-4.5,30.121-6.211c10.769-1.819,21.508-3.831,32.4-4.766c10.538-0.905,21.041-2.153,31.586-2.986
			c10.994-0.868,21.874-2.761,32.909-3.134c10.687-0.362,21.391,0.093,32.079,0.095c10.983,0.002,21.987-0.197,32.968,0.082
			c10.27,0.261,20.703,0.462,30.869,2.022c10.259,1.574,20.458,3.239,30.773,4.424c21.957,2.522,43.435,5.236,64.887,10.717
			c10.68,2.728,21.283,5.808,32.123,7.842c9.944,1.866,20.414,2.688,30.008,6.029c19.621,6.832,38.165,16.566,56.836,25.568
			c19.089,9.203,36.75,20.729,55.448,30.629c4.023,2.13,8.079,4.239,12.279,6.004c4.573,1.922,8.708,3.475,12.385,6.912
			c6.674,6.24,13.42,13.463,16.355,22.303c1.593,4.796,1.95,9.988,2.847,14.946c0.977,5.416,2.21,10.785,3.036,16.228
			c1.667,11.001,3.035,22.459,3.078,33.592c0.042,10.626-2.063,21.472-4.542,31.776c-2.247,9.339-7.213,17.326-12.643,25.134
			c-5.014,7.212-9.387,16.33-15.974,22.19c-2.752,2.447-4.717,4.662-8.285,5.548c-5.335,1.325-10.756,2.473-16.168,3.438
			c-9.892,1.764-19.499,0.262-29.172-1.912c-10.253-2.304-20.324-4.731-30.721-6.267c-20.619-3.047-36.186-15.88-52.407-27.736
			c-3.897-2.847-8.016-5.323-11.946-8.094c-3.921-2.763-7.168-6.68-10.844-9.805c-6.426-5.462-14.382-13.865-14.277-22.726
			c0.114-9.568,5.216-20.01,9.686-28.309c1.866-3.464,3.56-7.421,5.845-10.558c2.711-3.723,3.127-7.088,4.093-11.561
			c3.872-17.941-10.534-34.261-24.58-43.556c-3.666-2.426-7.174-5.39-11.263-7.063c-3.652-1.496-8.072-2.797-11.944-3.481l2.6,2.599
			l-0.242-0.728C620.982,110.883,614.744,112.805,615.445,117.384"/>
		<path clip-path="url(#SVGID_2_)" fill="#FFFFFF" d="M375.244,114.212c-4.247,0.746-8.171,3.157-12.104,4.854
			c-4.161,1.796-8.475,3.081-12.55,5.063c-9.017,4.384-19.993,4.443-29.635,6.884c-8.95,2.266-17.631,5.342-26.534,7.663
			c-9.566,2.494-18.656,4.151-28.575,4.241c-5.146,0.047-5.158,7.991,0,8c9.321,0.017,17.942-1.451,26.859-3.986
			c9.526-2.708,18.827-5.988,28.386-8.64c9.625-2.671,20.053-3.239,29.338-7.001c3.731-1.512,7.331-3.396,11.06-4.967
			c5.156-2.171,9.786-5.686,14.968-7.712C379.188,117.544,378.162,113.699,375.244,114.212"/>
		<path clip-path="url(#SVGID_2_)" fill="#FFFFFF" d="M651.67,179.85c2.15,2.586,3.211,6.087,4.818,9.01
			c1.796,3.266,3.826,6.389,6.114,9.332c4.264,5.484,9.599,9.905,15.182,13.987c12.369,9.04,25.121,17.788,39.111,24.149
			c6.926,3.149,13.84,6.001,21.075,8.344c7.812,2.528,15.241,6.398,22.931,9.319c7.423,2.82,14.74,5.856,22.125,8.764
			c7.246,2.854,14.626,6.356,22.313,7.81c8.149,1.542,16.699,1.052,24.493-1.871c3.667-1.375,7.289-2.954,10.907-4.454
			c1.093-0.452,2.157-0.973,3.26-1.402c0.463-0.18,1.038-0.3,1.472-0.534c1.483-0.799,1.81,0.514-0.364-0.707
			c4.88,2.741,9.233-4.702,4.385-7.501c-3.751-2.165-8.216,0.538-11.757,1.942c-6.672,2.646-13.309,5.799-20.573,6.265
			c-15.339,0.984-30.396-8.43-44.251-13.84c-7.635-2.981-15.33-5.777-22.773-9.223c-7.129-3.3-14.684-5.289-21.872-8.434
			c-14.425-6.309-27.335-14.345-40.536-22.838c-6.66-4.284-13.596-8.656-19.03-14.48c-2.929-3.138-5.847-6.461-8.348-9.951
			c-1.896-2.643-3.472-5.066-6.105-7.025C652.177,174.974,650.245,178.135,651.67,179.85"/>
		<path clip-path="url(#SVGID_2_)" fill="#FFFFFF" d="M799.562,131.454c-0.854,3.11-0.181,7.089-0.155,10.346
			c0.037,5.059,0.875,10.269,1.295,15.315c0.751,9.023,1.869,17.976,2.335,27.009c0.49,9.508-0.823,19.209-1.257,28.708
			c-0.241,5.305-0.073,10.677-0.875,15.935c-0.633,4.153-1.442,8.258-1.875,12.44c-0.13,1.249,2.021,1.554,2.209,0.299
			c1.422-9.516,4.772-18.48,7.022-27.797c2.252-9.325,3.89-19.076,3.797-28.706c-0.043-4.487-0.826-8.882-0.889-13.382
			c-0.066-4.712-1.165-9.177-1.882-13.805c-1.368-8.834-2.101-17.87-4.844-26.362C803.692,129.128,800.245,128.968,799.562,131.454"
			/>
		<path clip-path="url(#SVGID_2_)" fill="#FFFFFF" d="M831.544,114.297c-0.731,2.185-3.06,3.796-4.508,5.509
			c-2.391,2.827-4.188,5.259-7.325,7.356c-5.352,3.579-10.226,5.847-16.491,7.296c-3.03,0.702-1.691,5.057,1.263,4.581
			c7.415-1.194,13.231-4.812,18.898-9.625c2.513-2.133,4.173-4.651,5.909-7.419c1.464-2.334,3.669-4.387,4.183-7.166
			C833.706,113.571,831.958,113.064,831.544,114.297"/>
		<path clip-path="url(#SVGID_2_)" fill="#FFFFFF" d="M803.651,134.701c-0.039-0.252-0.079-0.504-0.118-0.756
			c-0.042-0.27-0.31-0.477-0.553-0.553c-4.117-1.287-7.847-3.916-11.652-5.926c-3.877-2.049-8.189-3.502-11.888-5.852
			c-6.731-4.275-14.365-7.02-21.468-10.738c-14.42-7.548-29.529-14.419-44.677-20.374c-15.966-6.277-31.207-13.889-47.424-19.603
			c-8.334-2.936-16.154-6.241-24.145-9.984c-7.087-3.32-14.604-4.926-21.987-7.4c-7.83-2.623-16.121-3.827-24.098-5.958
			c-8.367-2.235-16.497-5.113-24.93-7.142c-16.468-3.961-33.032-6.841-49.65-9.989c-33.937-6.428-68.673-12.467-103.312-8.021
			c-9.288,1.192-18.672,2.148-28.026,2.52c-4.539,0.18-9.026,1.013-13.572,1.074c-4.348,0.059-8.53-0.066-12.858,0.514
			c-9.661,1.294-19.415,1.809-29.092,3.009c-9.721,1.206-19.807,1.484-29.312,3.905c-2.821,0.719-2.335,5.538,0.706,5.218
			c17.19-1.81,34.48-3.069,51.709-4.501c16.187-1.345,32.451-1.921,48.688-2.979c8.28-0.54,16.428-2.056,24.736-2.38
			c8.658-0.338,17.431-0.392,26.089-0.018c9.009,0.389,18.19,1.305,27.067,2.865c8.337,1.465,16.782,2.208,25.076,3.902
			c16.607,3.393,33.506,5.547,49.985,9.574c16.499,4.032,32.8,8.813,49.485,12.014c7.746,1.486,15.576,3.555,23.158,5.729
			c7.701,2.207,14.511,6.51,21.995,9.264c8.203,3.018,16.585,5.543,24.782,8.595c8.087,3.012,15.774,6.867,23.704,10.245
			c17.466,7.438,35.178,14.153,52.197,22.639c7.692,3.836,16.147,6.595,23.505,10.87c4.071,2.367,8.764,3.817,13.018,5.821
			c2.034,0.958,4.092,1.856,6.156,2.747c0.756,0.327,5.12,1.56,5.257,2.068C802.46,136.053,803.795,135.632,803.651,134.701"/>
		<path clip-path="url(#SVGID_2_)" fill="#FFFFFF" d="M441.417,71.182c2.26,2.157,5.58,1.182,8.408,1.283
			c4.938,0.175,10.028,1.822,14.974,2.402c6.95,0.815,13.442,3.864,20.079,5.97c5.912,1.876,11.766,3.377,17.879,4.424
			c12.138,2.08,23.962,5.379,36.085,7.518c6.337,1.118,12.763,1.662,19.094,2.789c5.113,0.909,9.727,3.801,14.813,4.262
			c2.419,0.219,2.471-3.704,0-3.813c-2.733-0.12-5.031-1.627-7.615-2.333c-2.564-0.7-5.298-1.129-7.922-1.521
			c-6.153-0.92-12.35-1.444-18.479-2.549c-11.526-2.079-22.793-5.135-34.335-7.149c-11.446-1.998-21.953-6.403-33.184-9.078
			c-5.166-1.23-10.583-0.764-15.838-1.435c-2.045-0.261-4.007-0.515-6.066-0.377c-2.51,0.168-5.512,1.273-7.76-0.525
			C441.458,70.976,441.329,71.097,441.417,71.182"/>
		<path clip-path="url(#SVGID_2_)" fill="#FFFFFF" d="M480.309,93.182c-6.304-0.651-11.199,3.46-16.104,6.791
			c-5.577,3.786-12.223,5.157-17.655,9.226c-5.932,4.443-12.207,8.396-18.03,12.991c-6.438,5.081-11.96,11.315-18.189,16.684
			c-3.467,2.989,1.535,7.864,4.994,4.994c5.492-4.557,9.884-9.959,15.079-14.774c5.27-4.883,11.429-8.526,16.998-13.005
			c2.95-2.372,5.706-4.533,9.161-6.109c2.756-1.257,5.557-2.289,8.1-3.97c4.837-3.201,9.425-8.907,15.647-8.89
			C482.893,97.126,482.779,93.437,480.309,93.182"/>
		<path clip-path="url(#SVGID_2_)" fill="#FFFFFF" d="M473.606,97.843c1.425,0.208,2.756,1.258,4.158,1.646
			c2.271,0.629,4.712,0.935,7.016,1.502c4.821,1.188,9.675,2.149,14.526,3.191c9.862,2.119,19.438,5.381,29.396,7.071
			c9.339,1.584,18.956,0.378,28.143,2.381c4.739,1.034,9.446,1.987,14.119,3.31c3.719,1.053,7.149,2.554,11.029,2.874
			c3.867,0.319,4.568-5.746,0.905-6.691c-3.994-1.03-7.815-2.704-11.813-3.797c-4.584-1.253-9.26-2.197-13.919-3.136
			c-9.605-1.937-19.563-0.465-29.286-2.017c-9.651-1.541-19.073-4.252-28.815-5.25c-5.378-0.551-10.715-1.241-16.074-1.946
			c-3.013-0.396-6.392-1.239-9.385-0.825C472.767,96.271,472.772,97.722,473.606,97.843"/>
		<path clip-path="url(#SVGID_2_)" fill="#FFFFFF" d="M474.029,99.156c0.206-0.925,0.916-1.58,1.332-2.408
			c0.584-1.16,0.687-2.44,0.918-3.697c0.295-1.597-0.702-3.205-2.441-3.205c-1.724,0-2.737,1.607-2.439,3.205
			c0.221,1.19,0.534,2.192,0.249,3.382c-0.265,1.101-0.271,1.977,0.269,2.999C472.37,100.295,473.815,100.117,474.029,99.156"/>
		<path clip-path="url(#SVGID_2_)" fill="#FFFFFF" d="M304.671,31.934c-2.956-0.319-4.95,3.648-6.29,5.703
			c-3.132,4.802-7.311,7.889-11.374,11.866c-7.856,7.691-10.639,19.244-10.626,29.933c0.004,3.096,4.833,3.102,4.813,0
			c-0.068-10.172,2.626-20.695,10.145-27.923c2.958-2.843,6.283-5.367,8.465-8.899c1.271-2.057,2.754-7.274,5.208-8.163
			C306.41,33.944,306.111,32.089,304.671,31.934"/>
		<path clip-path="url(#SVGID_2_)" fill="#FFFFFF" d="M261.99,66.529c-5.943,0.55-10.91,3.907-16.073,6.59
			c-5.463,2.839-6.933,6.373-6.012,12.412c0.78,5.114,1.04,11.633,7.442,12.531c5.933,0.833,12.114-4.078,16.504-7.392
			c2.744-2.072,1.308-7.683-2.6-6.169c-3.243,1.256-5.642,3.117-8.652,4.726c-2.258,1.207-3.441,1.934-4.113-0.664
			c-0.349-1.352-0.562-3.112-0.779-4.505c-0.661-4.249,3.085-4.555,6.164-6.702c2.785-1.942,5.628-4.078,8.876-5.232
			C265.563,71.123,265.399,66.214,261.99,66.529"/>
		<path clip-path="url(#SVGID_2_)" fill="#FFFFFF" d="M241.812,80.477c-5.732-0.48-10.924-2.841-16.342-4.575
			c-5.3-1.696-10.949-2.323-16.471-1.491c-9.629,1.45-18.143,7.857-22.151,16.761c-3.947,8.769-2.656,19.708,1.776,27.995
			c4.3,8.041,9.162,17.017,18.522,19.901c8.3,2.558,21.342,2.236,28.339-3.442c6.757-5.482,7.964-14.948,0.922-20.54
			c-7.54-5.988-16.76-7.019-25.62-3.673c-7.211,2.723-15.849,7.318-18.855,14.903c-3.855,9.727,0.859,17.857,10.143,21.331
			c5.512,2.063,11.628,3.457,17.551,2.956c5.511-0.466,10.605-3.8,15.912-5.283c-1.876-1.065-3.752-2.13-5.628-3.195
			c1.397,6.892-6.961,9.018-12.285,10.535c-6.338,1.807-13.681,1.752-18.595-3.178c-3.572-3.582-10.015,1.091-7.145,5.513
			c7.852,12.093,25.491,14.403,37.98,9.265c1.497-0.615,3.004-1.264,4.37-2.135c0.373-0.251,0.732-0.52,1.077-0.809
			c1.949-1.055,1.031-1.812-2.755-2.27c-0.258,0.179-0.901,3.055-1.384,3.604c-0.783,0.89-1.805,1.416-2.886,1.868
			c-3.012,1.26-6.596,1.967-9.81,2.479c-5.204,0.829-7.796-0.589-12.116-3.237c-4.012-2.461-8.252,2.331-6.201,6.2
			c3.698,6.972,13.108,9.291,20.27,10.552c7.743,1.364,15.168,3.636,22.588,0.359c-2.081-2.08-4.162-4.161-6.242-6.242
			c-3.717,6.499-13.781,6.488-20.196,5.031c-5.21-1.183-17.774-8.202-20.684-0.129c-2.611,7.241,6.482,12.965,11.88,15.308
			c9.21,3.997,18.555,4.618,28.253,6.355c-1.037-1.825-2.073-3.65-3.109-5.475c-0.812,4.204-11.827,2.636-14.153,1.897
			c-5.921-1.881-10.904-6.46-15.443-10.512c-1.146-1.023-2.835-1.71-4.38-1.158c-7.301,2.61-4.85,11.198-1.316,15.988
			c2.511,3.403,5.527,6.308,8.833,8.931c1.969,1.562,4.006,3.032,6.038,4.51c0.98,0.713,1.943,1.464,2.943,2.148
			c0.565,0.386,1.713,1.414,1.627,0.978c1.058-1.865,2.117-3.729,3.175-5.593c-6.181,2.032-15.808-4.312-19.186-9.332
			c-3.228-4.796-7.516-15.111-15.219-11.906c-7.784,3.238-4.341,13.83-0.843,18.861c2.36,3.395,5.273,6.381,8.48,8.98
			c3.582,2.904,7.826,4.746,11.421,7.568c0.676-2.558,1.351-5.117,2.027-7.675c-2.41,0.973-8.551-3.129-10.436-4.45
			c-3.383-2.371-3.691-5.533-5.433-8.951c-2.853-5.599-11.433-8.989-16.573-4.222c-4.418,4.097-2.335,11.306-0.195,16.019
			c1.544,3.402,3.868,6.372,6.63,8.879c1.534,1.392,3.252,2.827,5.048,3.881c1.701,0.997,3.915,1.362,5.303,2.82
			c0.309-2.399,0.619-4.798,0.928-7.197c-11.919,6.086-14.683-14.598-21.004-20.01c-8.453-7.238-15.172,1.389-15.958,9.882
			c-0.568,6.128,0.954,11.809,3.07,17.504c0.312,0.841,1.185,4.445,1.784,4.641c0.822-0.397,1.645-0.794,2.467-1.191
			c0.33-0.388,0.114-0.7-0.649-0.939c-0.257-0.889-1.733-2.043-2.271-2.832c-0.854-1.256-1.6-2.579-2.303-3.924
			c-2.201-4.21-3.224-8.457-4.462-12.969c-1.104-4.019-2.849-7.827-7.073-9.191c-1.51-0.487-3.667-0.006-4.708,1.245
			c-7.737,9.296-0.223,19.13-0.955,29.459c-0.04,0.565-0.989,5.82,0.273,3.482c0.194-0.04,0.387-0.079,0.581-0.119
			c-0.57-0.756-0.928-1.602-1.074-2.54c-0.466-1.58-0.512-3.249-0.576-4.881c-0.261-6.751,0.565-14.361-0.875-20.936
			c-0.65-2.968-4.587-5.499-7.548-4.286c-7.475,3.062-11.67,9.826-13.003,17.657c-0.668,3.93-0.557,7.839,0.493,11.705
			c0.592,2.181,1.496,4.389,2.647,6.334c0.598,1.012,3.242,3.407,3.256,4.335c1.987-1.987,3.973-3.974,5.96-5.961
			c-12.55-0.947-11.074-30.162-26.021-25.489c-7.62,2.382-7.4,10.908-5.134,17.083c1.276,3.474,9.283,17.343,6.015,20.002
			c1.231-0.51,2.462-1.02,3.693-1.529c-5.134,0.473-8.865-8.277-10.494-12.131c-2.2-5.205-3.941-10.591-6.799-15.494
			c-1.193-2.045-3.481-2.753-5.695-2.317c-6.483,1.277-7.361,8.845-6.881,14.267c0.208,2.36,0.507,4.802,1.122,7.095
			c0.379,1.411,5.97,13.669,5.749,13.888c1.113-0.461,2.226-0.922,3.339-1.383c-11.673-0.845-10.832-18.098-14.088-25.964
			c-1.061-2.564-2.961-3.661-5.738-3.258c-5.098,0.739-5.966,6.92-6.147,11.04c-0.275,6.254,0.604,12.495-0.528,18.717
			c2.325-0.946,4.649-1.891,6.974-2.837c0.963,0.494-0.197-0.649-0.54-1.373c-0.444-0.935-0.925-1.836-1.477-2.712
			c-1.344-2.137-2.954-4.081-4.784-5.815c-3.663-3.473-7.888-6.321-12.134-9.022c-4.029-2.561-9.214,2.564-6.606,6.606
			c3.816,5.911,6.79,12.149,9.212,18.749c3.042-1.283,6.083-2.565,9.125-3.847c-3.966-6.436-9.679-10.88-15.932-14.95
			c-2.961-1.928-6.672-5.161-10.252-5.668c-4.941-0.7-8.164,4.279-4.833,8.301c5.374,6.489,10.264,13.304,12.498,21.535
			c1.719-2.257,3.439-4.514,5.158-6.771c-5.831-0.489-11.216-2.76-17.183-2.417c-5.936,0.342-11.551,2.491-17.065,4.551
			c-4.921,1.839-6.018,9.772,0,11.127c5.52,1.242,11.123,1.897,16.532,3.611c1.573,0.498,3.162,1.003,4.686,1.638
			c0.819,0.341,1.7,0.953,2.532,1.21c1.172,0.361,0.886,1.32,0.482-0.291l3.915-6.897c-10.117,2.632-18.785,6.083-27.685,11.667
			c-5.127,3.217-1.9,11.723,4.202,9.968c6.276-1.805,13.134-4.641,19.774-3.557c-0.425-3.248-0.849-6.496-1.274-9.744
			c-10.311,7.737-20.235,14.793-25.999,26.805c-2.61,5.441,3.546,10.011,8.14,6.28c8.558-6.95,18.492-11.651,28.808-15.364
			c-1.651-2.836-3.302-5.672-4.953-8.509c-8.893,8.53-13.185,18.34-16.928,29.887c3.279,0.443,6.558,0.887,9.837,1.331
			c-0.569-13.651,15.377-20.66,26.267-24.239c-1.874-2.438-3.749-4.876-5.623-7.315c-8.668,13.267-16.17,28.03-9.543,43.859
			c2.005,4.788,9.789,4.751,9.729-1.317c-0.071-7.175,3.632-12.456,8.345-17.538c2.423-2.614,4.785-4.529,7.827-6.363
			c2.564-1.547,4.023-3.066,4.869-6.021c1.372-4.791-4.753-8.177-8.229-4.79c-10.953,10.67-16.384,28.773-11.168,43.553
			c1.627,4.608,7.825,4.664,9.436,0c2.049-5.935,4.083-11.899,7.285-17.332c3.342-5.671,7.958-10.444,12.272-15.371
			c-2.292-2.292-4.585-4.585-6.877-6.877c-9.551,11.934-12.413,29.673-5.559,43.78c1.469,3.024,6.897,3.257,8.289,0
			c2.075-4.854,4.105-9.796,7.25-14.075c3.257-4.43,7.209-8.315,10.535-12.705c2.803-3.701-2.736-9.152-6.437-6.437
			c-6.578,4.825-9.042,11.568-9.753,19.489c-0.778,8.673-0.834,18.261,1.796,26.616c1.289,4.094,8.241,4.866,9.095,0
			c1.191-6.787,2.804-13.504,6.461-19.43c3.378-5.475,7.997-9.997,10.887-15.796c2.716-5.453-4.735-9.8-8.149-4.763
			c-4.502,6.642-6.246,14.659-5.581,22.614c0.538,6.437,1.136,14.083,5.159,19.401c2.607,3.447,8.744,2.693,8.702-2.356
			c-0.048-5.935-0.055-11.956,2.398-17.486c2.402-5.419,5.877-10.459,9.477-15.137c-2.817-1.188-5.634-2.375-8.451-3.563
			c-2.734,13.781-2.28,27.545,0.405,41.295c0.739,3.784,6.741,4.604,8.43,1.103c2.849-5.906,4.34-12.392,8.016-17.881
			c3.664-5.473,8.217-10.277,11.818-15.805c2.872-4.408-3.75-9.571-7.32-5.647c-6.823,7.501-11.134,20.088-10.212,30.202
			c0.367,4.024,4.876,6.228,8.017,3.319c5.281-4.889,9.313-11.237,13.884-16.772c4.623-5.598,8.988-11.674,14.109-16.819
			c4.318-4.338-2.396-11.058-6.717-6.717c-5.121,5.144-9.464,11.25-14.071,16.856c-4.556,5.545-8.582,11.913-13.846,16.812
			c2.672,1.107,5.344,2.214,8.016,3.321c-0.706-7.545,2.274-17.936,7.411-23.611c-2.44-1.882-4.88-3.765-7.32-5.648
			c-3.585,5.533-8.125,10.349-11.776,15.829c-3.688,5.537-5.129,11.971-7.974,17.905c2.81,0.368,5.62,0.735,8.43,1.103
			c-2.387-12.065-2.814-24.29-0.383-36.386c0.805-4.005-4.634-8.499-7.728-4.498c-4.354,5.63-8.471,11.583-11.18,18.206
			c-2.605,6.37-2.812,13.229-2.773,20.021c2.901-0.786,5.802-1.572,8.703-2.358c-3.023-4.017-3.444-9.814-3.839-14.687
			c-0.524-6.462,0.662-12.447,4.345-17.852c-2.716-1.588-5.432-3.176-8.149-4.763c-3.162,6.309-8.394,11.165-11.828,17.298
			c-3.5,6.251-5.267,13.171-6.466,20.184h9.095c-2.063-6.454-1.911-13.268-1.767-19.977c0.117-5.467,0.54-11.993,5.378-15.498
			l-6.436-6.436c-3.414,4.451-7.517,8.314-10.796,12.878c-3.046,4.239-5.086,9.043-7.154,13.805h8.289
			c-2.319-4.845-2.165-10.972-2.015-16.226c0.171-5.966,2.455-11.214,6.162-15.832c3.839-4.782-2.682-11.653-6.877-6.877
			c-4.858,5.532-10.053,10.951-13.819,17.324c-3.625,6.133-5.971,12.953-8.297,19.653H68.8c-4.086-11.63,0.057-25.598,8.695-33.988
			c-2.743-1.597-5.486-3.194-8.23-4.79c-0.19,0.66-6.039,3.969-7.318,5.121c-2.651,2.389-5.1,5.203-7.269,8.033
			c-4.377,5.713-6.925,12.127-6.864,19.385c3.243-0.438,6.486-0.878,9.729-1.316c-5.599-13.429,1.279-25.031,8.59-36.198
			c2.342-3.578-1.556-8.647-5.623-7.315c-15.414,5.048-34.187,15.153-33.636,33.842c0.169,5.722,8.066,6.7,9.837,1.331
			c3.256-9.869,6.821-18.089,14.47-25.35c3.563-3.382-0.095-10.229-4.954-8.509c-12.123,4.293-23.368,9.767-33.43,17.853
			l8.139,6.281c5.052-10.393,13.422-16.219,22.43-22.831c3.26-2.392,3.721-8.873-1.273-9.743c-8.872-1.545-17.017,0.975-25.507,3.32
			c1.401,3.323,2.801,6.645,4.202,9.968c3.878-2.376,7.853-4.713,12.016-6.56c4.189-1.858,8.721-2.612,13.145-3.712
			c3.009-0.749,4.61-4.007,3.916-6.897c-1.26-5.252-7.352-7.514-11.835-9.239c-6.539-2.517-13.354-3.471-20.141-5.075v11.127
			c5.098-1.844,10.289-4.43,15.797-4.599c5.194-0.159,10.207,1.745,15.383,2.036c3.441,0.194,6.12-3.578,5.158-6.771
			c-2.985-9.911-9.055-18.023-15.79-25.715c-1.17,2.826-2.341,5.653-3.512,8.479c-1.619-0.184,1.937,1.384,2.796,1.926
			c1.238,0.782,2.442,1.621,3.659,2.435c4.794,3.201,9.278,6.626,12.429,11.54c2.888,4.507,11.265,1.683,9.124-3.847
			c-2.844-7.346-6.185-14.364-10.503-20.968l-6.605,6.606c4.201,2.636,8.682,5.39,11.976,9.17c2.697,3.094,3.202,7.672,7.041,9.612
			c2.485,1.256,6.41,0.37,6.973-2.837c0.994-5.653,0.988-11.296,0.83-17.019c-0.031-1.105-0.108-2.206-0.096-3.313
			c0.007-0.755,0.275-2.055,0.132-2.781c-0.389-1.973,1.871-0.584-0.866-0.171c-1.913-1.086-3.826-2.172-5.739-3.258
			c3.367,8,2.845,17.117,8.308,24.26c3.513,4.593,12.06,12.166,18.116,7.284c7.156-5.769-0.305-14.817-2.341-21.212
			c-0.679-2.132-1.098-4.214-1.261-6.449c-0.093-1.277,0.161-2.729-0.036-3.973c-0.283-1.781,0.916-0.805-0.349-0.57
			c-1.898-0.772-3.796-1.544-5.694-2.317c5.3,9.311,6.694,21.019,15.059,28.44c4.142,3.675,10.838,7.178,15.545,2.272
			c3.751-3.911,2.831-10.932,1.379-15.625c-1.53-4.943-4.085-9.501-5.79-14.376c-0.261-0.746-0.532-2.858-0.966-3.472
			c0.257-1.514-0.625-1.578-2.645-0.191c0.196,0.289,0.391,0.578,0.587,0.868c0.456,2.004,2.306,4.508,3.157,6.399
			c4.412,9.803,9.462,18.779,21.122,20.074c3.253,0.362,5.9-3.025,5.961-5.96c0.134-6.479-6.179-10.063-6.642-16.554
			c-0.241-3.376,0.931-10.175,4.59-11.643c-2.516-1.429-5.032-2.857-7.548-4.286c0.384,1.819-0.059,4.174,0.121,6.08
			c0.233,2.465,0.519,4.912,0.651,7.387c0.226,4.274,0.332,8.719,1.722,12.809c2.247,6.609,9.732,13.139,16.718,8.211
			c4.55-3.211,5.034-9.813,4.784-14.903c-0.159-3.251-0.942-6.316-1.853-9.425c-0.876-2.989-3.264-8.267-0.84-11.044
			c-1.569,0.415-3.139,0.83-4.708,1.245c-1.364-0.476-0.232,0.652-0.119,1.436c0.17,1.188,0.567,2.402,0.814,3.583
			c0.446,2.126,1.026,4.116,1.708,6.185c1.901,5.762,4.148,11.804,8.253,16.406c3.265,3.659,8.592,6.4,13.276,3.461
			c6.007-3.768,4.817-10.778,2.601-16.273c-2.277-5.647-3.828-11.019-3.839-17.084c-0.002-0.589,0.563-1.334,0.499-1.874
			c-0.578,0.18-1.156,0.36-1.734,0.54c0.672,0.397,1.237,0.912,1.696,1.545c1.594,1.936,2.407,4.599,3.376,6.882
			c4.687,11.051,15.192,18.9,27.066,12.803c2.696-1.384,2.867-5.168,0.927-7.196c-2.075-2.17-4.66-2.795-7.166-4.239
			c-3.059-1.764-6.064-4.798-7.7-7.924c-0.852-1.627-1.906-3.912-1.873-5.758c0.028-1.537,0.078-0.34-0.471-0.291
			c1.565-0.138,2.005,0.748,2.645,1.829c1.195,2.015,1.5,4.516,2.773,6.549c1.762,2.813,4.478,4.912,7.284,6.601
			c4.397,2.648,10.871,6.687,16.125,4.592c2.806-1.118,5.039-5.287,2.026-7.674c-5.697-4.512-12.208-7.359-17.049-13
			c-0.91-1.06-1.771-2.154-2.474-3.366c-0.533-0.842-0.962-1.735-1.287-2.678c0.112-1.738-0.608-1.98-2.161-0.726
			c0.069,0.644,1.828,2.389,2.191,2.985c0.769,1.267,1.42,2.605,2.211,3.859c5.471,8.671,19.341,17.496,29.839,14.017
			c2.459-0.815,3.679-3.072,3.176-5.593c-0.539-2.699-2.326-4.009-4.447-5.522c-3.087-2.202-6.276-4.288-9.243-6.661
			c-2.177-1.742-4.287-3.649-6.085-5.784c-0.931-1.104-1.557-2.437-2.46-3.523c-0.193-0.403-0.326-0.825-0.399-1.267
			c0.019-1.403-0.603-0.969-1.865,1.303c-1.46-0.386-2.92-0.772-4.38-1.158c7.319,6.503,15.336,13.073,25.48,13.909
			c6.456,0.532,17.589-1.554,19.066-9.295c0.417-2.187-0.592-5.03-3.109-5.475c-8.675-1.533-17.096-1.981-25.456-5.162
			c-1.268-0.483-2.496-1.002-3.696-1.639c-0.998-0.531-3.901-3.524-4.606-3.595c-3.477,1.57-3.891,2.459-1.242,2.665
			c0.52,0.146,1.041,0.292,1.561,0.438c2.072,0.595,4.103,1.327,6.171,1.937c11.05,3.258,27.012,3.375,33.528-8.019
			c2.437-4.261-2.278-8.009-6.243-6.242c-4.331,1.931-10.999-0.456-15.564-1.248c-4.526-0.786-12.467-1.861-14.861-6.359
			c-2.067,2.067-4.134,4.134-6.201,6.201c4.091,2.5,7.503,4.802,12.469,4.836c4.464,0.03,9.009-1.094,13.289-2.256
			c7.133-1.937,13.806-6.445,13.991-14.598c0.073-3.226-1.284-6.557-4.618-7.548c-3.691-1.096-5.956,1.786-8.988,3.293
			c-8.271,4.11-22.578,3.77-28.188-4.911c-2.381,1.837-4.763,3.675-7.144,5.513c7.858,7.917,19.685,8.258,29.75,4.835
			c4.738-1.611,9.961-3.579,13.57-7.188c3.688-3.689,3.813-9.047,2.816-13.87c-0.498-2.409-3.369-3.836-5.628-3.196
			c-3.885,1.102-7.509,2.841-11.285,4.206c-4.834,1.747-10.082,0.608-14.868-0.914c-3.55-1.128-7.224-2.136-7.266-6.402
			c-0.033-3.324,1.242-5.55,3.706-7.73c5.705-5.047,15.078-9.284,22.529-6.43c3.031,1.161,7.475,2.971,6.15,6.813
			c-1.485,4.304-7.041,5.217-10.926,5.431c-4.392,0.241-9.717,0.562-13.681-1.612c-3.227-1.77-5.613-4.767-7.462-7.868
			c-4.811-8.071-9.061-16.587-6.078-26.235c2.78-8.988,11.838-14.353,20.905-14.397c9.226-0.045,17.735,4.448,26.983,4.43
			C245.276,85.783,245.174,80.759,241.812,80.477"/>
		<path clip-path="url(#SVGID_2_)" fill="#FFFFFF" d="M490.3,645.261c6.058-3.131,11.786-7.831,16.488-12.741
			c5.123-5.349,9.22-11.421,14.739-16.425c5.4-4.896,11.714-8.764,17.099-13.731c5.854-5.4,11.435-11.091,17.245-16.54
			c12.102-11.351,24.396-22.505,36.195-34.175c11.11-10.988,22.213-21.833,34.119-31.964c11.613-9.88,22.604-20.7,31.285-33.271
			c9.074-13.138,17.063-27.274,26.887-39.863c9.623-12.33,20.311-23.833,30.401-35.772c5.115-6.051,9.96-12.329,15.058-18.396
			c4.982-5.93,8.961-12.563,14.166-18.307c5.486-6.051,9.997-12.595,15.08-18.947c2.198-2.748,4.589-5.328,6.798-8.071
			c1.992-2.473,4.529-4.293,5.358-7.494c0.956-3.69-0.39-7.399-0.781-11.056c-0.478-4.479-0.102-9.119-0.267-13.628
			c-0.334-9.14,1.584-17.61-0.273-26.691c-1.078-5.276-8.579-2.887-7.895,2.177c1.044,7.707-0.737,14.978-0.597,22.689
			c0.064,3.588,0.125,7.152,0.086,10.741c-0.021,1.778-0.051,3.544,0.108,5.318c0.189,2.093,1.194,4.805,0.829,6.865
			c-0.411,2.319-3.388,4.66-4.92,6.479c-2.045,2.429-4.371,4.579-6.381,7.048c-4.595,5.643-8.7,11.508-13.609,16.905
			c-4.828,5.311-8.508,11.276-12.986,16.834c-4.963,6.158-10.046,12.239-15.064,18.354c-9.532,11.617-19.64,22.788-29.296,34.309
			c-9.677,11.547-17.528,24.684-25.862,37.21c-4.078,6.128-8.078,12.359-12.892,17.947c-5.06,5.873-11.034,10.972-16.616,16.338
			c-10.832,10.414-22.525,19.844-33.222,30.451c-11.296,11.202-22.741,22.225-34.326,33.128
			c-12.457,11.722-24.099,24.655-37.548,35.242c-12.393,9.754-19.008,24.995-32.751,33.314
			C483.292,641.759,486.52,647.214,490.3,645.261"/>
		<path clip-path="url(#SVGID_2_)" fill="#FFFFFF" d="M493.308,568.448c0.179-1.568,3.048-3.737,4.014-5.149
			c1.572-2.296,2.696-4.821,4.021-7.261c2.777-5.122,5.778-10.083,8.044-15.467c4.853-11.536,9.615-22.935,15.205-34.146
			c5.507-11.043,10.16-22.455,15.797-33.442c5.621-10.954,11.079-21.733,15.362-33.292c4.314-11.646,10.774-22.436,16.123-33.632
			c5.196-10.88,8.713-22.572,14.635-33.091c5.801-10.305,11.955-20.35,17.518-30.796c5.45-10.236,10.928-20.495,17.581-30.015
			c7.871-11.261,15.591-22.547,23.132-34.037c3.689-5.62,7.504-11.153,11.262-16.728c1.763-2.616,3.491-5.239,5.354-7.783
			c0.63-0.86,1.338-1.718,1.888-2.639c0.56-0.938,1.114-3.346,1.938-4.063c-1.461,0.189-2.921,0.377-4.382,0.566
			c0.254,0.16,0.508,0.321,0.762,0.481c3.372,2.132,7.223-2.802,4.279-5.546c-0.221-0.205-0.44-0.41-0.659-0.614
			c-1.178-1.098-2.963-1.397-4.382-0.566c-1.627,0.954-2.226,1.983-3.124,3.53c-1.264,2.174-2.721,4.081-4.267,6.069
			c-4.002,5.145-7.818,10.488-11.562,15.823c-7.209,10.276-13.989,20.846-21.331,31.03c-7.09,9.832-13.833,19.591-19.726,30.209
			c-6.054,10.91-11.761,21.984-18.291,32.625c-6.45,10.51-10.892,21.416-15.754,32.703c-5.004,11.618-11.41,22.546-16.723,34.013
			c-2.521,5.441-4.312,11.154-6.494,16.729c-2.56,6.537-5.938,12.774-9.13,19.02c-5.759,11.265-10.725,22.744-15.916,34.265
			c-5.892,13.075-11.54,25.905-16.178,39.49c-2.155,6.312-5.279,12.219-7.804,18.383c-1.291,3.151-2.473,6.139-4.024,9.163
			c-0.878,1.71-1.188,2.713-0.912,4.675C489.887,571.26,493.088,570.383,493.308,568.448"/>
		<path clip-path="url(#SVGID_2_)" fill="#FFFFFF" d="M491.863,567.524c-0.342,2.853-3.611,5.308-5.5,7.247
			c-2.068,2.122-4.144,4.311-6.712,5.84c-5.539,3.299-11.945,2.385-18.138,2.045c-13.133-0.72-25.646-2.164-37.822-7.394
			c-11.783-5.062-23.209-10.286-35.366-14.445c-12.3-4.208-24.168-9.576-36.147-14.599c-11.696-4.903-24.446-6.918-35.762-12.697
			c-11.526-5.888-23.396-10.463-35.477-15.07c-25.291-9.645-50.118-20.61-75.661-29.57c-12.467-4.374-24.727-8.951-37.048-13.706
			c-5.994-2.313-11.972-4.623-17.869-7.179c-5.842-2.533-12.369-4.401-17.681-7.89c-4.479-2.942-9.859-4.594-14.038-7.956
			c-1.954-1.572-3.54-3.514-5.549-5.036c-2.438-1.847-5.26-3.065-7.592-5.072c-4.091-3.517-6.658-8.162-7.208-13.56
			c-0.652-6.406,2.284-11.973,5.231-17.428c5.899-10.923,13.107-20.89,19.42-31.555c2.995-5.062,5.753-10.268,8.905-15.236
			c3.304-5.21,6.838-10.252,9.355-15.91c1.986-4.469,3.624-9.109,5.955-13.418c1.101-2.035,2.316-4.287,4.09-5.815
			c2.067-1.781,4.768-2.454,6.906-4.247c8.726-7.32,15.97-15.681,22.962-24.673c8.702-11.193,16.661-22.717,26.208-33.248
			c9.477-10.453,19.575-20.363,28.848-30.995c9.486-10.877,18.146-22.515,27.359-33.629c4.489-5.416,8.981-10.846,13.958-15.828
			c4.363-4.368,10.023-11.586,16.235-12.585c4.564-0.733,3.363-7.919-1.072-7.918c-6.123,0.002-9.426,2.493-13.92,6.361
			c-5.445,4.685-10.724,9.404-15.633,14.657c-9.56,10.231-18.331,21.137-27.174,31.982c-17.136,21.018-37.831,38.775-54.222,60.459
			c-7.88,10.425-16.151,22.733-27.226,30.031c-2.06,1.357-3.778,2.695-5.568,4.388c-1.874,1.773-4.304,2.778-6.169,4.636
			c-3.921,3.906-6.233,9.237-8.046,14.368c-1.92,5.433-3.339,10.728-6.231,15.761c-3.394,5.908-7.306,11.489-10.671,17.422
			c-6.773,11.939-15.091,22.989-21.525,35.095c-5.802,10.912-11.282,21.108-7.893,33.806c3.256,12.198,13.737,17.303,22.541,24.914
			c4.479,3.872,9.992,5.61,14.934,8.711c6.031,3.785,12.498,5.949,19.042,8.767c12.315,5.302,24.869,10.42,37.46,15.03
			c13.974,5.119,28.157,9.521,42.011,14.997c13.792,5.45,27.477,11.157,41.318,16.483c12.983,4.995,26.463,9.289,38.96,15.422
			c5.751,2.823,11.314,5.881,17.376,8.008c6.767,2.375,13.781,3.953,20.548,6.339c14.556,5.131,28.374,12.192,43.005,17.179
			c7.771,2.647,15.39,5.381,22.861,8.796c7.08,3.236,14.151,6.655,21.586,9.017c6.617,2.101,13.504,2.722,20.384,3.384
			c7.646,0.737,15.86,1.588,23.526,0.596c6.432-0.833,10.712-4.7,14.464-9.658c3.295-4.353,8.469-9.571,8.096-15.421
			C496.294,564.494,492.211,564.612,491.863,567.524"/>
		<path clip-path="url(#SVGID_2_)" fill="#FFFFFF" d="M94.09,424.981c-0.205-0.254-0.41-0.508-0.614-0.762
			c-1.181-1.461-4.077-1.072-4.854,0.626c-1.468,3.21-1.424,5.83-1.729,9.27c-0.329,3.707-1.514,7.195-1.724,10.959
			c-0.238,4.289-1.476,8.388-2.103,12.639c-0.647,4.382-0.661,8.759-0.793,13.177c-0.23,7.686,0.311,16.147,1.96,23.672
			c1.583,7.225,3.284,16.438,9.267,21.377c5.612,4.633,12.683,6.97,19.046,10.286c7.099,3.701,14.61,6.348,21.715,10.084
			c15.713,8.26,30.645,17.369,47.413,23.504c8.516,3.114,17.044,5.838,25.38,9.451c8.183,3.548,16.437,6.913,24.695,10.278
			c7.986,3.253,16.026,6.49,23.8,10.227c7.34,3.526,14.996,5.729,22.651,8.434c16.887,5.968,33.456,13.196,50.847,17.568
			c17.183,4.318,33.435,11.545,50.285,17.003c9.557,3.096,19.154,5.969,28.948,8.229c9.92,2.288,19.909,3.514,29.903,5.307
			c9.009,1.617,17.584,4.535,26.73,5.308c4.833,0.407,9.535,1.111,14.403,0.694c4.573-0.393,10.032-3.563,14.42-2.194
			c6.36,1.986,8.867-7.689,2.726-9.884c-7.465-2.667-14.985,1.594-22.669,1.329c-8.246-0.283-15.844-2.078-23.785-4.025
			c-8.549-2.095-17.341-2.722-25.972-4.335c-8.311-1.554-16.568-3.406-24.726-5.631c-16.414-4.478-32.675-10.026-48.474-16.328
			c-7.576-3.022-15.436-4.791-23.307-6.848c-8.465-2.214-16.58-5.466-24.781-8.484c-15.623-5.75-31.49-10.694-46.708-17.395
			c-15.325-6.746-30.98-12.707-46.336-19.38c-15.843-6.886-32.422-11.58-47.811-19.582c-7.531-3.915-14.597-8.723-21.989-12.9
			c-6.74-3.811-13.939-6.544-20.655-10.322c-5.944-3.344-16.252-6.146-19.008-12.896c-3.336-8.171-3.815-16.369-5.088-24.912
			c-1.376-9.229-0.969-18.648,0.03-27.9c0.431-3.994-0.325-7.912,0.064-11.919c0.413-4.245-0.811-8.109-0.866-12.299
			c-1.55,0.89-3.1,1.778-4.65,2.669c0.292,0.141,0.583,0.281,0.875,0.422C93.63,430.957,96.146,427.527,94.09,424.981"/>
		<path clip-path="url(#SVGID_2_)" fill="#FFFFFF" d="M420.182,639.448c-3.027,6.038,2.55,13.459,7.123,16.972
			c7.143,5.486,16.183,7.403,24.967,8.569c5.032,0.668,10.239,0.302,15.303,0.171c4.633-0.119,9.623-0.389,14.06-1.83
			c3.853-1.252,8.008-3.255,11.024-6.012c3.246-2.967,4.166-7.194,6.835-10.523c3.146-3.926-1.066-11.32-5.946-7.705
			c-2.813,2.084-4.258,4.286-5.932,7.32c-1.48,2.683-3.308,4.077-6.061,5.465c-7,3.531-15.638,2.915-23.271,3.066
			c-6.934,0.137-15.226-0.801-21.708-3.414c-6.148-2.478-9.792-6.155-12.615-12.079
			C423.268,637.997,420.887,638.041,420.182,639.448"/>
		<path clip-path="url(#SVGID_2_)" fill="#FFFFFF" d="M104.949,517.083c-1.173,2.8-0.173,5.31,0.259,8.218
			c0.383,2.585,0.406,5.191,1.463,7.629c2.297,5.293,8.706,7.891,13.504,10.368c12.725,6.57,26.554,7.927,40.535,5.365
			c4.977-0.912,3.683-8.635-1.171-8.655c-5.447-0.024-10.94,0.994-16.366,0.303c-5.725-0.728-11.51-1.572-16.841-3.842
			c-3.808-1.622-10.224-3.449-12.798-6.791c-1.425-1.849-1.512-4.401-2.211-6.573c-0.715-2.223-1.623-4.464-2.776-6.492
			C107.626,514.99,105.563,515.615,104.949,517.083"/>
		<path clip-path="url(#SVGID_2_)" fill="#FFFFFF" d="M604.874,188.165c0.871,5.182,6.005,8.872,8.759,13.148
			c3.181,4.935,6.413,10.452,8.074,16.104c3.658,12.442,2.289,25.258,0.476,37.861c-0.908,6.305-1.804,12.642-3.114,18.881
			c-1.381,6.573-3.894,12.913-5.833,19.338c-1.85,6.127-3.575,12.311-5.663,18.362c-2.295,6.653-5.929,12.185-10.011,17.849
			c-1.533,2.128,1.888,4.746,3.632,2.803c4.38-4.881,8.639-9.675,11.35-15.709c2.842-6.329,5.009-12.956,7.297-19.497
			c2.43-6.944,5.493-13.785,7.337-20.909c1.826-7.052,2.694-14.209,3.979-21.355c2.328-12.938,2.924-26.428-0.732-39.185
			c-1.736-6.058-5.121-11.326-8.731-16.438c-3.808-5.39-8.686-8.753-13.214-13.35C606.852,184.416,604.537,186.162,604.874,188.165"
			/>
		<path clip-path="url(#SVGID_2_)" fill="#FFFFFF" d="M552.413,162.995c-1.712-0.065-3.225-1.106-4.813-1.626
			c-2.324-0.759-4.873-0.92-7.244-1.518c-4.602-1.159-9.014-2.863-13.656-3.917c-9.681-2.199-19.08-4.997-28.877-6.729
			c-9.765-1.727-19.317-4.028-28.991-6.157c-9.476-2.085-18.616-2.267-28.271-2.203c-3.056,0.021-3.063,4.771,0,4.75
			c10.55-0.07,20.374,0.226,30.721,2.623c9.675,2.242,19.316,3.917,29.137,5.39c9.705,1.456,19.35,3.718,28.971,5.663
			c4.744,0.959,9.301,2.388,14.096,3.131c2.82,0.437,6.097,1.921,8.93,1.718C553.129,164.068,553.143,163.022,552.413,162.995"/>
		<path clip-path="url(#SVGID_2_)" fill="#FFFFFF" d="M363.217,194.893c7.037,0.627,13.435-0.405,20.277-2.035
			c8.546-2.036,17.384-2.791,26.087-1.589c3.784,0.522,7.561,0.054,11.305,0.657c4.431,0.713,8.875,1.809,13.212,2.954
			c7.794,2.057,15.501,5.465,22.588,9.294c3.567,1.928,6.958,4.18,10.383,6.345c3.88,2.452,8.194,3.914,11.593,7.071
			c5.304,4.924,10.352,9.649,14.209,15.925c4.406,7.166,6.101,15.861,8.644,23.813c2.507,7.837,5.008,16.954,3.613,25.215
			c-0.752,4.454-2.886,8.781-4.151,13.115c-1.209,4.139-3.723,8.151-5.496,12.1c-1.839,4.098-4.673,7.598-6.443,11.733
			c-1.689,3.946-3.331,8.129-6.404,11.242c-3.345,3.388,1.771,8.482,5.214,5.216c5.799-5.503,8.031-13.808,11.826-20.62
			c4.304-7.729,6.636-16.153,9.678-24.336c3.124-8.402,2.876-16.418,0.903-25.065c-2.04-8.938-4.406-18.099-7.551-26.722
			c-2.844-7.798-7.761-13.714-13.11-19.89c-2.297-2.652-5.023-4.888-7.667-7.22c-3.487-3.075-7.778-4.571-11.678-7.015
			c-15.474-9.7-32.099-16.93-50.333-19.486c-2.055-0.288-4.092-0.057-6.148-0.248c-2.786-0.259-5.502-1.098-8.288-1.403
			c-4.868-0.531-9.739-0.178-14.564,0.56c-9.591,1.466-18.766,4.619-28.245,6.339C360.229,191.284,361.06,194.701,363.217,194.893"
			/>
		<path clip-path="url(#SVGID_2_)" fill="#FFFFFF" d="M456.274,359.743c-5.131,0.354-8.988,5.29-12.96,7.995
			c-5.805,3.952-12.191,6.925-18.596,9.779c-6.597,2.941-12.006,7.522-19.038,9.537c-7.562,2.168-15.004,3.586-22.68,5.141
			c-3.755,0.761-7.378,2.059-11.1,2.949c-3.959,0.948-7.831,0.758-11.851,1.049c-8.326,0.603-16.522,0.869-24.873,1.042
			c-7.274,0.15-13.612-2.035-20.622-3.607c-7.41-1.661-14.531-3.386-21.703-5.917c-7.493-2.645-12.934-6.11-18.347-11.846
			c-5.252-5.565-11.55-9.908-16.598-15.787c-2.447-2.849-4.706-5.853-7.168-8.688c-2.581-2.972-5.383-5.531-6.874-9.273
			c-2.956-7.414-1.782-16.028-1.766-23.849c0.017-8.563,2.247-16.334,4.702-24.458c2.277-7.537,3.536-15.469,7.724-22.261
			c3.92-6.357,8.474-12.155,14.255-16.903c5.922-4.865,10.403-10.541,15.834-15.862c6.284-6.157,12.594-12.173,18.697-18.513
			c5.702-5.923,11.394-11.928,18.953-15.395c7.79-3.572,15.61-6.999,23.286-10.83c3.833-1.913,7.67-3.748,11.829-4.841
			c3.462-0.909,6.418-1.252,9.85-0.037c1.589,0.563,2.27,0.938,4,1.076c2.613,0.208,3.22-4.101,0.623-4.604
			c-3.547-0.686-6.154-2.888-9.999-3.1c-4.127-0.227-8.058,0.824-11.881,2.304c-7.647,2.96-14.996,6.825-22.44,10.255
			c-6.927,3.191-13.934,5.638-19.568,10.988c-5.983,5.681-11.474,11.839-17.391,17.58c-6.153,5.97-12.265,11.696-18.032,18.041
			c-5.391,5.931-12.147,10.056-17.077,16.504c-10.036,13.126-14.492,28.651-18.298,44.536c-2.071,8.642-1.693,17.161-1.8,25.976
			c-0.091,7.475,0.752,14.882,5.231,21.146c2.095,2.931,4.848,5.399,7.16,8.165c2.609,3.118,5.104,6.325,7.873,9.307
			c2.89,3.112,5.98,6.033,9.161,8.844c3.02,2.669,5.389,5.786,8.312,8.495c5.577,5.17,12.374,8.495,19.558,10.831
			c3.845,1.25,7.524,3.142,11.462,4.056c3.958,0.918,7.943,1.73,11.789,3.061c16.184,5.595,32.675,3.267,49.427,2.715
			c4.585-0.151,8.909-1.103,13.319-2.317c4.605-1.268,9.154-1.945,13.845-2.759c8.823-1.53,18.686-3.728,26.579-8.07
			c7.664-4.218,15.544-8.035,23.096-12.45c3.327-1.945,6.841-4.322,9.559-7.084c1.373-1.396,2.624-3.045,3.72-4.671
			c0.652-0.97,1.195-2.809,2.111-3.473C459.425,363.171,459.058,359.55,456.274,359.743"/>
		<path clip-path="url(#SVGID_2_)" fill="#FFFFFF" d="M474.028,585.758c-1.111,2.938,0.03,7.062,0.616,10.087
			c0.875,4.524,0.776,8.989,1.396,13.542c1.382,10.176,0.367,20.637,2.65,30.74c0.572,2.532,4.55,2.534,5.123,0
			c1.149-5.086,1.317-10.212,1.741-15.393c0.435-5.316,0.918-10.664,0.178-15.974c-0.586-4.199-0.272-8.422-1.419-12.532
			c-1.109-3.982-1.871-7.624-3.602-11.344C479.25,581.746,475.024,583.126,474.028,585.758"/>
	</g>
</g>
</svg>
