<svg version="1.1" xmlns="http://www.w3.org/2000/svg" xmlns:xlink="http://www.w3.org/1999/xlink" x="0px" y="0px" width="554px"
	 height="824px" viewBox="0 0 554 824" enable-background="new 0 0 554 824" xml:space="preserve">
<g id="Layer_2" display="none">
	<rect x="-266" y="-102" display="inline" stroke="#FFFFFF" width="1106" height="1080"/>
</g>
<g id="Layer_1">
	<g>
		<defs>
			<rect id="SVGID_1_" x="-240.5" y="-78.5" width="1000" height="1000"/>
		</defs>
		<clipPath id="SVGID_2_">
			<use xlink:href="#SVGID_1_"  overflow="visible"/>
		</clipPath>
		<path clip-path="url(#SVGID_2_)" fill="#FFFFFF" d="M265.938,185.395c-5.306,0.545-10.32,2.027-15.464,3.363
			c-2.74,0.712-5.538,1.437-8.384,1.498c-2.954,0.064-5.555-0.348-8.496,0.321c-2.158,0.492-4.171,1.424-6.41,1.531
			c-2.763,0.131-5.278-0.258-7.997,0.491c-5.098,1.405-9.945,4.435-14.307,7.342c-17.693,11.792-31.369,27.894-35.796,49.047
			c-2.048,9.782-2.275,19.651-2.533,29.594c-0.316,12.147,0.046,22.518,5.559,33.588c4.911,9.863,11.403,18.217,19.132,26.003
			c7.973,8.032,15.045,17.557,24.884,23.423c9.973,5.947,21.234,9.532,32.52,11.889c11.341,2.37,22.824,4.921,34.389,5.874
			c11.56,0.951,23.272-0.455,34.336-3.95c9.975-3.151,18.051-8.509,25.729-15.507c7.951-7.248,15.857-15.239,21.014-24.787
			c5.385-9.975,9.787-21.299,13.29-32.069c3.447-10.599,5.65-22.119,5.03-33.301c-0.628-11.318-4.491-21.775-10.354-31.409
			c-6.153-10.116-14.211-18.97-22.595-27.271c-4.563-4.519-10.073-7.16-15.149-10.958c-5.435-4.066-10.601-8.498-16.258-12.267
			c-10.333-6.883-21.925-9.327-33.98-11.213c-9.865-1.543-23.001-3.092-30.75,4.759c-5.938,6.018,3.329,15.297,9.281,9.281
			c2.104-2.126,5.845-2.008,8.653-2.062c4.925-0.096,9.695,0.753,14.544,1.518c9.17,1.446,17.801,3.929,25.589,9.115
			c4.182,2.784,8.152,5.926,12.089,9.041c3.96,3.133,8.08,5.619,12.246,8.423c7.328,4.932,13.965,13.222,19.31,20.205
			c5.486,7.168,10.471,15.388,12.728,24.197c2.49,9.718,1.463,20.067-0.825,29.719c-2.384,10.047-6.417,19.532-10.525,28.97
			c-3.955,9.088-8.654,16.562-15.619,23.679c-6.166,6.299-12.7,12.698-20.738,16.522c-7.865,3.742-17.364,5.746-26.03,6.104
			c-10.504,0.434-20.652-1.55-30.906-3.526c-10.262-1.978-20.633-3.664-30.261-7.869c-4.119-1.8-8.278-3.578-12.015-6.105
			c-4.279-2.894-7.638-6.962-11.159-10.695c-6.621-7.018-14.114-13.507-19.539-21.533c-5.426-8.026-10.189-16.549-10.537-26.41
			c-0.314-8.919-0.135-18.135,0.55-27.037c0.727-9.459,2.56-19.33,6.865-27.861c4.685-9.285,12.383-16.915,20.447-23.349
			c3.871-3.088,8.229-6.282,12.72-8.412c2.635-1.25,5.399-1.507,8.174-2.294c2.506-0.71,4.83-2.018,7.34-2.692
			c4.545-1.219,9.435-0.714,14.094-1.95c5.692-1.509,11.126-3.701,16.988-4.525C270.435,191.331,269.619,185.017,265.938,185.395"/>
		<path clip-path="url(#SVGID_2_)" fill="#FFFFFF" d="M193.128,132.842c-1.568,2.653-5.736,4.565-8.353,6.048
			c-3.766,2.136-8.099,3.134-11.803,5.389c-3.231,1.968-5.807,4.388-9.286,6.002c-3.991,1.85-7.358,4.553-10.783,7.29
			c-13.59,10.859-26.057,23.837-36.051,38.082c-10.348,14.749-17.552,32.198-19.865,50.099c-2.379,18.407-6.021,36.675-1.858,55.138
			c3.999,17.733,12.675,33.535,24.088,47.496c5.734,7.015,10.694,14.372,16.993,20.956c6.208,6.488,12.833,12.555,19.401,18.671
			c12.666,11.794,26.441,22.338,40.558,32.399c14.238,10.147,31.013,15.747,48.238,18.007c18.46,2.423,38.715,2.887,57.129-0.08
			c8.618-1.388,17.298-1.498,25.636-4.341c8.468-2.887,16.591-6.996,24.696-10.753c4.019-1.862,7.619-4.064,11.319-6.475
			c3.625-2.362,7.733-3.877,11.526-5.949c7.853-4.29,15.665-8.641,22.246-14.778c12.729-11.87,24.063-25.252,32.053-40.789
			c4.277-8.322,7.706-17.068,11.367-25.671c3.738-8.78,6.34-17.263,7.585-26.738c2.535-19.288,0.358-37.419-5.992-55.783
			c-2.963-8.564-5.704-17.576-9.77-25.686c-3.887-7.752-8.793-15.201-13.135-22.723c-8.973-15.543-20.068-28.405-34.252-39.41
			c-7.069-5.485-14.448-10.527-21.88-15.501c-7.121-4.766-14.021-10.056-21.317-14.534c-15.83-9.718-34.009-11.79-52.126-12
			c-9.733-0.112-19.237-1.508-29.004-1.43c-9.329,0.074-18.529-1.85-27.89-1.698c-8.829,0.144-19.207,0.576-27.42,4
			c-5.814,2.425-12.545,4.873-17.486,8.885c-4.987,4.05-6.843,10.494-3.022,16.05c4.824,7.013,16.36,0.373,11.495-6.719
			c-1.698-2.475,0.593,1.933-0.662,1.528c-0.182-0.059,1.357-0.375,0.444-0.457c0.302,0.027,2.324-1.522,2.52-1.629
			c2.131-1.163,4.172-1.903,6.408-2.912c3.424-1.547,6.62-3.259,10.367-3.862c4.466-0.717,9.171-1.121,13.686-1.38
			c8.695-0.5,17.109,0.793,25.736,1.455c4.206,0.322,8.418,0.028,12.628,0.01c4.688-0.019,9.188,0.73,13.832,1.209
			c8.614,0.887,17.335-0.092,25.938,1.006c7.822,0.998,16.216,3.74,23.308,7.185c6.88,3.343,12.943,8.377,19.27,12.642
			c6.697,4.517,13.455,8.951,20.021,13.659c13.247,9.496,24.929,20.253,33.648,34.126c4.256,6.771,7.801,13.948,12.013,20.74
			c4.517,7.283,7.441,14.513,10.34,22.557c5.933,16.463,10.853,32.493,9.645,50.209c-0.591,8.658-1.869,17.143-4.883,25.308
			c-2.782,7.546-6.105,15.006-9.393,22.347c-6.792,15.17-15.862,27.989-27.475,39.805c-5.637,5.735-11.074,10.501-18.054,14.553
			c-7.09,4.117-14.695,7.356-21.519,11.859c-6.713,4.431-14.459,7.339-21.739,10.697c-7.376,3.402-14.638,5.606-22.73,6.244
			c-8.706,0.685-17.108,2.288-25.88,2.505c-8.752,0.216-17.519,0.305-26.263-0.198c-15.878-0.913-31.631-4.181-45.605-12.034
			c-7.059-3.966-13.281-9.102-19.775-13.895c-3.155-2.329-6.374-4.565-9.544-6.872c-2.794-2.033-4.953-4.631-7.468-6.97
			c-6.012-5.591-12.534-10.654-18.531-16.322c-6.07-5.737-12.078-11.616-17.424-18.046c-10.411-12.521-20.299-25.675-26.309-40.931
			c-6.275-15.928-6.786-32.337-4.197-49.102c1.301-8.427,1.666-16.935,3.861-25.206c2.098-7.905,4.927-15.713,8.701-22.977
			c7.402-14.249,17.897-26.46,29.281-37.666c5.696-5.606,11.69-12.072,18.829-15.782c3.37-1.751,5.413-3.511,8.001-6.229
			c2.735-2.874,6.248-4.327,9.601-6.317c4.516-2.68,9.949-6.921,11.818-11.999C199.808,131.902,194.817,129.984,193.128,132.842"/>
		<path clip-path="url(#SVGID_2_)" fill="#FFFFFF" d="M273.1,811.371c-0.208-7.463-5.176-13.081-8.082-19.639
			c-1.538-3.471-1.905-7.318-2.775-10.978c-0.906-3.814-2.554-7.355-3.756-11.071c-2.055-6.351-5.462-12.582-8.466-18.551
			c-3.366-6.688-8.511-12.604-12.374-19.061c-4.124-6.895-9.158-13.141-13.281-20.052c-4.096-6.866-8.344-13.687-12.073-20.761
			c-3.884-7.366-6.858-15.146-10.597-22.582c-3.766-7.487-7.618-14.932-11.157-22.53c-3.657-7.852-7.292-15.689-11.518-23.256
			c-3.822-6.842-6.973-14.285-11.407-20.715c-4.823-6.992-9.394-14.031-12.964-21.762c-3.453-7.475-6.825-14.46-11.186-21.471
			c-9.084-14.603-18.132-29.433-26.083-44.688c-7.382-14.158-15.199-28.273-21.62-42.9c-2.933-6.681-7.768-12.037-11.327-18.351
			c-4.057-7.197-8.27-14.301-12.167-21.588c-7.851-14.681-16.926-28.298-23.552-43.64c-6.558-15.185-14.595-30.054-19.084-46.027
			c-4.784-17.02-7.037-35.017-9.468-52.495c-1.215-8.738-1.879-17.268-2.126-26.077c-0.247-8.801-1.326-17.48-1.293-26.304
			c0.032-8.367,0.059-16.731-0.22-25.094c-0.266-7.968-0.539-15.95,1.792-23.665c4.208-13.928,15.122-26.657,25.17-36.857
			c11.969-12.15,22.531-24.985,33.034-38.424c4.862-6.221,9.484-12.728,15.154-18.256c6.132-5.979,13.415-10.659,20.571-15.298
			c13.589-8.809,28.402-14.827,42.842-22.07c14.104-7.074,26.707-16.831,41.3-22.914c14.13-5.889,29.361-9.36,44.537-11.128
			c15.908-1.853,31.883-1.701,47.87-1.878c17.3-0.191,34.849-0.374,51.914,2.87c32.492,6.177,61.899,21.983,85.871,44.532
			c5.764,5.422,11.388,10.992,17.187,16.377c5.846,5.428,11.89,10.702,16.976,16.876c10.476,12.715,19.098,27.85,26.578,42.481
			c3.714,7.263,6.684,14.859,10.272,22.172c3.797,7.737,7.999,15.229,11.661,23.052c7.086,15.139,14.469,30.249,19.378,46.271
			c4.962,16.195,6.47,32.627,2.021,49.142c-4.349,16.153-10.919,31.695-15.479,47.822c-4.495,15.894-5.898,32.769-13.263,47.689
			c-7.368,14.928-14.82,30.149-23.25,44.5c-8.574,14.598-18.161,28.715-26.058,43.694c-3.843,7.29-7.384,14.852-10.515,22.475
			c-3.205,7.805-4.978,16.045-8.62,23.689c-6.808,14.28-16.724,26.111-25.522,39.104c-4.677,6.905-8.962,14.066-13.649,20.963
			c-4.693,6.904-10.029,12.864-15.725,18.938c-5.672,6.05-10.456,12.836-15.34,19.518c-4.681,6.403-9.521,12.661-13.894,19.286
			c-9.168,13.891-16.731,28.698-23.568,43.852c-6.964,15.438-13.609,30.604-22.21,45.232c-4.115,6.998-8.312,13.98-11.834,21.302
			c-3.667,7.621-6.604,15.563-10.637,23.012c-3.884,7.175-8.149,14.161-12.282,21.193c-3.42,5.82-8.564,12.749-9.71,19.502
			c-1.514,8.932,12.155,12.77,13.681,3.772c0.554-3.257,2.555-5.911,4.114-8.769c2.101-3.848,4.275-7.639,6.48-11.429
			c4.225-7.263,8.668-14.482,12.312-22.059c3.811-7.922,6.865-16.158,10.992-23.936c3.922-7.39,8.29-14.529,12.437-21.791
			c8.596-15.052,14.683-31.204,22.013-46.872c7.078-15.132,15.178-29.751,24.838-43.396c4.762-6.727,9.7-13.365,14.641-19.96
			c5.137-6.856,11.475-12.575,16.832-19.227c10.631-13.195,18.475-28.324,28.729-41.796c9.712-12.758,18.601-26.652,23.662-41.976
			c5.462-16.531,12.313-31.937,21.346-46.873c8.935-14.778,18.55-29.344,26.216-44.84c3.753-7.586,7.454-15.151,11.416-22.635
			c3.87-7.307,7.845-14.782,10.203-22.74c2.349-7.927,3.249-16.187,5.191-24.21c2.081-8.595,4.574-17.109,7.191-25.555
			c5.077-16.383,12.231-32.16,14.004-49.37c3.493-33.901-14.358-66.21-28.49-95.792c-3.651-7.644-7.965-14.91-11.409-22.648
			c-3.449-7.751-6.983-15.447-11.115-22.862c-8.091-14.521-16.643-29.622-27.912-41.951c-5.586-6.112-11.914-11.504-17.903-17.209
			c-5.903-5.625-11.688-11.377-17.715-16.872c-12.475-11.374-26.102-20.701-41.277-28.112c-14.979-7.316-30.861-13.006-47.296-15.96
			c-17.333-3.116-34.974-3.25-52.528-3.096c-31.973,0.281-64.176,0.615-94.436,12.37c-15.291,5.94-28.124,15.535-42.605,22.979
			c-14.56,7.483-30.147,13.219-43.926,22.094c-7.148,4.605-14.284,9.216-20.915,14.555c-6.463,5.205-11.627,11.452-16.678,17.988
			c-10.501,13.589-20.756,27.589-33.06,39.62c-10.805,10.566-21.772,22.924-28.458,36.602c-7.553,15.453-5.974,31.154-5.943,47.809
			c0.033,17.647,0.201,35.406,1.735,52.991c1.57,18,4.705,36.08,8.134,53.809c3.323,17.181,9.261,32.514,16.625,48.33
			c7.174,15.409,13.367,30.744,22.263,45.293c8.788,14.373,15.665,30.102,25.48,43.819c4.699,6.566,7.735,13.771,11.346,20.96
			c3.581,7.127,7.432,14.112,10.988,21.246c7.696,15.435,16.185,30.28,25.06,45.069c4.364,7.273,9.299,14.376,13.189,21.912
			c3.951,7.655,6.76,15.679,11.358,23.039c2.043,3.271,4.264,6.425,6.464,9.59c2.524,3.629,4.102,7.269,6.029,11.218
			c3.744,7.675,8.545,14.848,12.303,22.554c7.521,15.423,15.274,30.761,22.392,46.369c6.792,14.891,15.71,29.602,25.538,42.668
			c4.732,6.291,8.229,13.405,13.078,19.638c4.315,5.546,7.667,12.445,11.112,18.59c3.597,6.415,6.217,13.521,8.922,20.351
			c1.392,3.517,3.344,6.642,5.343,9.833c2.205,3.52,5.244,7.139,5.639,11.402C267.096,815.382,273.216,815.539,273.1,811.371"/>
	</g>
</g>
</svg>
