<?xml version="1.0" encoding="utf-8"?>
<!-- Generator: Adobe Illustrator 14.0.0, SVG Export Plug-In . SVG Version: 6.00 Build 43363)  -->
<!DOCTYPE svg PUBLIC "-//W3C//DTD SVG 1.1//EN" "http://www.w3.org/Graphics/SVG/1.1/DTD/svg11.dtd">
<svg version="1.1" id="Layer_1" xmlns="http://www.w3.org/2000/svg" xmlns:xlink="http://www.w3.org/1999/xlink" x="0px" y="0px"
	 width="100px" height="100px" viewBox="0 0 100 100" enable-background="new 0 0 100 100" xml:space="preserve">
<g>
	<defs>
		<rect id="SVGID_1_" width="100" height="100"/>
	</defs>
	<clipPath id="SVGID_2_">
		<use xlink:href="#SVGID_1_"  overflow="visible"/>
	</clipPath>
	<path clip-path="url(#SVGID_2_)" fill="#FFFFFF" d="M50,2.224c-26.512,0-48,21.49-48,48c0,26.511,21.488,48,48,48
		c26.509,0,48-21.488,48-48C98.001,23.714,76.51,2.224,50,2.224 M69.521,41.546c0.02,0.406,0.027,0.814,0.027,1.224
		c0,12.493-9.51,26.899-26.898,26.899c-5.338,0-10.307-1.566-14.49-4.249c0.738,0.089,1.49,0.133,2.254,0.133
		c4.429,0,8.505-1.511,11.742-4.048c-4.137-0.075-7.629-2.809-8.832-6.564c0.578,0.109,1.17,0.17,1.779,0.17
		c0.861,0,1.697-0.116,2.49-0.332c-4.324-0.869-7.584-4.689-7.584-9.271c0-0.04,0-0.079,0.002-0.118
		c1.274,0.708,2.733,1.133,4.281,1.182c-2.537-1.696-4.205-4.589-4.205-7.87c0-1.732,0.465-3.355,1.28-4.752
		c4.662,5.72,11.629,9.484,19.486,9.878c-0.162-0.692-0.244-1.414-0.244-2.155c0-5.221,4.232-9.453,9.453-9.453
		c2.719,0,5.176,1.148,6.9,2.985c2.154-0.424,4.178-1.21,6.004-2.294c-0.707,2.207-2.205,4.061-4.156,5.231
		c1.912-0.229,3.734-0.737,5.43-1.489C72.973,38.548,71.369,40.214,69.521,41.546"/>
</g>
</svg>
